<?xml version="1.0" encoding="UTF-8" standalone="no"?>
<svg width="120px" height="120px" viewBox="0 0 120 120" version="1.1" xmlns="http://www.w3.org/2000/svg" xmlns:xlink="http://www.w3.org/1999/xlink">
    <!-- Generator: Sketch 39.1 (31720) - http://www.bohemiancoding.com/sketch -->
    <title>brain</title>
    <desc>Created with Sketch.</desc>
    <defs>
        <circle id="path-1" cx="60" cy="60" r="60"></circle>
        <mask id="mask-2" maskContentUnits="userSpaceOnUse" maskUnits="objectBoundingBox" x="0" y="0" width="120" height="120" fill="white">
            <use xlink:href="#path-1"></use>
        </mask>
    </defs>
    <g id="Page-1" stroke="none" stroke-width="1" fill="none" fill-rule="evenodd">
        <g id="brain">
            <g id="Group-24">
                <use id="Oval-3" stroke="#EF0069" mask="url(#mask-2)" stroke-width="8" fill="#FFFFFF" xlink:href="#path-1"></use>
                <path d="M54,66 C54,66 54,18 54,18 C40.745166,18 30,28.745166 30,42 C30,55.254834 40.745166,66 54,66 Z M54,18 L56,18 C57.1045695,18 58,18.8929514 58,20.0066147 L58,97.9933853 C58,99.101608 57.1122704,100 56,100 L54,100 L54,18 Z" id="Combined-Shape" fill="#EF0069"></path>
                <path d="M54,100 C54,100 54,44 54,44 C38.536027,44 26,56.536027 26,72 C26,87.463973 38.536027,100 54,100 Z" id="Oval" fill="#EF0069"></path>
                <path d="M62,20.0066147 C62,18.898392 62.8877296,18 64,18 L66,18 L66,100 L64,100 C62.8954305,100 62,99.1070486 62,97.9933853 L62,20.0066147 Z M66,66 C79.254834,66 90,55.254834 90,42 C90,28.745166 79.254834,18 66,18 C66.0000002,18 66,66 66,66 Z" id="Combined-Shape" fill="#F77FB4"></path>
                <path d="M66,100 C81.463973,100 94,87.463973 94,72 C94,56.536027 81.463973,44 66,44 C66.0000002,44 66,100 66,100 Z" id="Oval-2-Copy" fill="#F77FB4"></path>
                <g id="Group-3" transform="translate(32.000000, 24.000000)" fill="#FFFFFF">
                    <path d="M21.6585886,28 C20.8349158,25.6696153 18.6124377,24 16,24 C16,24 16,25.7968857 16,28 C17.1045695,28 18,28.8954305 18,30 C18,30.8575991 17.460223,31.5891265 16.7018739,31.8733771 C16.4834855,31.9552353 16.2469704,32 16,32 C16,34.2031143 16,36 16,36 C16.7409112,36 17.4504564,35.8657059 18.1056218,35.6201314 C19.7605562,34.9998152 21.0685169,33.6694663 21.6585886,32 L34.3414114,32 C35.1650842,34.3303847 37.3875623,36 40,36 C40,36 40,24 40,24 C37.3875623,24 35.1650842,25.6696153 34.3414114,28 L21.6585886,28 Z M40,4 C40,1.79688569 40,0 40,0 C43.3137085,0 46,2.6862915 46,6 C46,8.57279727 44.3806689,10.7673795 42.1056218,11.6201314 C41.4504564,11.8657059 40.7409112,12 40,12 C40,12 40,10.2031143 40,8.00000001 C36.6862915,8.00000001 34,10.6862915 34,14 C34,17.3137085 36.6862915,20 40,20 C40,20 40,8 40,8 C40.2469704,8 40.4834855,7.9552353 40.7018739,7.87337713 C41.460223,7.5891265 42,6.85759909 42,6 C42,4.89543051 41.1045695,4.00000001 40,4 L40,0 L35.9979131,0 C34.8982606,0 34,0.8954305 34,2 C34,3.11227036 34.8944962,4 35.9979131,4 L40,4 Z M50,52 C50,49.7968857 50,48 50,48 C53.3137085,48 56,50.6862915 56,54 C56,56.5727973 54.3806689,58.7673795 52.1056218,59.6201314 C51.4504564,59.8657059 50.7409112,60 50,60 C50,60 50,58.2031143 50,56 C50.2469704,56 50.4834855,55.9552353 50.7018739,55.8733771 C51.460223,55.5891265 52,54.8575991 52,54 C52,52.8954305 51.1045695,52 50,52 Z M48,36 C48,33.7968857 48,32 48,32 C51.3137085,32 54,34.6862915 54,38 C54,40.5727973 52.3806689,42.7673795 50.1056218,43.6201314 C49.4504564,43.8657059 48.7409112,44 48,44 C48,44 48,42.2031143 48,40 C48.2469704,40 48.4834855,39.9552353 48.7018739,39.8733771 C49.460223,39.5891265 50,38.8575991 50,38 C50,36.8954305 49.1045695,36 48,36 Z M48,20 C48,17.7968857 48,16 48,16 C51.3137085,16 54,18.6862915 54,22 C54,24.5727973 52.3806689,26.7673795 50.1056218,27.6201314 C49.4504564,27.8657059 48.7409112,28 48,28 C48,28 48,26.2031143 48,24 C48.2469704,24 48.4834855,23.9552353 48.7018739,23.8733771 C49.460223,23.5891265 50,22.8575991 50,22 C50,20.8954305 49.1045695,20 48,20 Z M16,60 C16,57.7968857 16,56 16,56 C19.3137085,56 22,58.6862915 22,62 C22,64.5727973 20.3806689,66.7673795 18.1056218,67.6201314 C17.4504564,67.8657059 16.7409112,68 16,68 C16,68 16,66.2031143 16,64 C16.2469704,64 16.4834855,63.9552353 16.7018739,63.8733771 C17.460223,63.5891265 18,62.8575991 18,62 C18,60.8954305 17.1045695,60 16,60 Z M16,44 C16,41.7968857 16,40 16,40 C19.3137085,40 22,42.6862915 22,46 C22,48.5727973 20.3806689,50.7673795 18.1056218,51.6201314 C17.4504564,51.8657059 16.7409112,52 16,52 C16,52 16,50.2031143 16,48 C16.2469704,48 16.4834855,47.9552353 16.7018739,47.8733771 C17.460223,47.5891265 18,46.8575991 18,46 C18,44.8954305 17.1045695,44 16,44 Z M16,12 C16,9.79688569 16,8 16,8 C19.3137085,8 22,10.6862915 22,14 C22,16.5727973 20.3806689,18.7673795 18.1056218,19.6201314 C17.4504564,19.8657059 16.7409112,20 16,20 C16,20 16,18.2031143 16,16 C16.2469704,16 16.4834855,15.9552353 16.7018739,15.8733771 C17.460223,15.5891265 18,14.8575991 18,14 C18,12.8954305 17.1045695,12 16,12 Z M16,0 L20.0020869,0 C21.1055038,0 22,0.887729645 22,2 C22,3.1045695 21.1017394,4 20.0020869,4 L16,4 L16,0 Z M16,12 C16,12 16,0 16,0 C12.6862915,0 10,2.6862915 10,6 C10,9.3137085 12.6862915,12 16,12 Z M16,8 C16,8 16,4 16,4 C14.8954305,4 14,4.8954305 14,6 C14,7.1045695 14.8954305,8 16,8 Z M8,28 C8,28 8,16 8,16 C4.6862915,16 2,18.6862915 2,22 C2,25.3137085 4.6862915,28 8,28 Z M8,24 C8,24 8,20 8,20 C6.8954305,20 6,20.8954305 6,22 C6,23.1045695 6.8954305,24 8,24 Z M8,44 C8,44 8,32 8,32 C4.6862915,32 2,34.6862915 2,38 C2,41.3137085 4.6862915,44 8,44 Z M8,40 C8,40 8,36 8,36 C6.8954305,36 6,36.8954305 6,38 C6,39.1045695 6.8954305,40 8,40 Z M6,60 C6,60 6,48 6,48 C2.6862915,48 0,50.6862915 0,54 C0,57.3137085 2.6862915,60 6,60 Z M6,56 C6,56 6,52 6,52 C4.8954305,52 4,52.8954305 4,54 C4,55.1045695 4.8954305,56 6,56 Z M8,16 L16,16 L16,20 L8,20 L8,16 Z M8,24 L16,24 L16,28 L8,28 L8,24 Z M8,32 L16,32 L16,36 L8,36 L8,32 Z M8,40 L16,40 L16,44 L8,44 L8,40 Z M6,48 L16,48 L16,52 L6,52 L6,48 Z M6,56 L16,56 L16,60 L6,60 L6,56 Z M10,66 C10,64.8954305 10.8982606,64 11.9979131,64 L16,64 L16,68 L11.9979131,68 C10.8944962,68 10,67.1122704 10,66 Z M40,64 L44.0020869,64 C45.1055038,64 46,64.8877296 46,66 C46,67.1045695 45.1017394,68 44.0020869,68 L40,68 L40,64 Z M40,16 C40,16 40,12 40,12 C38.8954305,12 38,12.8954305 38,14 C38,15.1045695 38.8954305,16 40,16 Z M40,32 C40,32 40,28 40,28 C38.8954305,28 38,28.8954305 38,30 C38,31.1045695 38.8954305,32 40,32 Z M40,52 C40,52 40,40 40,40 C36.6862915,40 34,42.6862915 34,46 C34,49.3137085 36.6862915,52 40,52 Z M40,48 C40,48 40,44 40,44 C38.8954305,44 38,44.8954305 38,46 C38,47.1045695 38.8954305,48 40,48 Z M40,68 C40,68 40,56 40,56 C36.6862915,56 34,58.6862915 34,62 C34,65.3137085 36.6862915,68 40,68 Z M40,64 C40,64 40,60 40,60 C38.8954305,60 38,60.8954305 38,62 C38,63.1045695 38.8954305,64 40,64 Z M40,16 L48,16 L48,20 L40,20 L40,16 Z M40,24 L48,24 L48,28 L40,28 L40,24 Z M40,32 L48,32 L48,36 L40,36 L40,32 Z M40,40 L48,40 L48,44 L40,44 L40,40 Z M40,48 L50,48 L50,52 L40,52 L40,48 Z M40,56 L50,56 L50,60 L40,60 L40,56 Z" id="Combined-Shape"></path>
                </g>
                <g id="Group-3-Copy-4" transform="translate(66.000000, 24.000000)"></g>
                <g id="Group-3-Copy-5" transform="translate(80.000000, 40.000000)"></g>
                <g id="Group-3-Copy-6" transform="translate(80.000000, 56.000000)"></g>
                <g id="Group-3-Copy-7" transform="translate(82.000000, 72.000000)"></g>
                <g id="Group-3-Copy" transform="translate(48.000000, 48.000000)"></g>
                <g id="Group-3-Copy-2" transform="translate(48.000000, 64.000000)"></g>
                <g id="Group-3-Copy-3" transform="translate(48.000000, 80.000000)"></g>
                <g id="Group-2" transform="translate(42.000000, 24.000000)"></g>
                <g id="Group-2-Copy-4" transform="translate(66.000000, 32.000000)"></g>
                <g id="Group-2-Copy-5" transform="translate(66.000000, 48.000000)"></g>
                <g id="Group-2-Copy-6" transform="translate(66.000000, 64.000000)"></g>
                <g id="Group-2-Copy-7" transform="translate(66.000000, 80.000000)"></g>
                <g id="Group-2-Copy" transform="translate(34.000000, 40.000000)"></g>
                <g id="Group-2-Copy-2" transform="translate(34.000000, 56.000000)"></g>
                <g id="Group-2-Copy-3" transform="translate(32.000000, 72.000000)"></g>
            </g>
        </g>
    </g>
</svg>