<?xml version="1.0" encoding="UTF-8" standalone="no"?>
<svg width="137px" height="137px" viewBox="0 0 137 137" version="1.1" xmlns="http://www.w3.org/2000/svg" xmlns:xlink="http://www.w3.org/1999/xlink">
    <!-- Generator: Sketch 39.1 (31720) - http://www.bohemiancoding.com/sketch -->
    <title>Cancer</title>
    <desc>Created with Sketch.</desc>
    <defs>
        <circle id="path-1" cx="66.5" cy="66.5" r="66.5"></circle>
        <mask id="mask-2" maskContentUnits="userSpaceOnUse" maskUnits="objectBoundingBox" x="0" y="0" width="133" height="133" fill="white">
            <use xlink:href="#path-1"></use>
        </mask>
        <rect id="path-3" x="57.6333333" y="17.7333333" width="22.1666667" height="16.625" rx="4"></rect>
        <mask id="mask-4" maskContentUnits="userSpaceOnUse" maskUnits="objectBoundingBox" x="0" y="0" width="22.1666667" height="16.625" fill="white">
            <use xlink:href="#path-3"></use>
        </mask>
        <path d="M28.8166667,4.00137921 C28.8166667,1.79147849 30.6079357,-8.66270019e-14 32.8102008,-8.66270019e-14 L55.8564659,-8.66270019e-14 C58.0620339,-8.66270019e-14 61.1213921,1.27139212 62.679939,2.82993896 L79.1867277,19.3367277 C80.7496598,20.8996598 80.2161235,22.1666667 78.0180201,22.1666667 L32.8153133,22.1666667 C30.6069217,22.1666667 28.8166667,20.3714518 28.8166667,18.1652875 L28.8166667,4.00137921 Z" id="path-5"></path>
        <mask id="mask-6" maskContentUnits="userSpaceOnUse" maskUnits="objectBoundingBox" x="0" y="0" width="51.0628597" height="22.1666667" fill="white">
            <use xlink:href="#path-5"></use>
        </mask>
        <rect id="path-7" x="28.8166667" y="-8.66270019e-14" width="22.1666667" height="79.8" rx="4"></rect>
        <mask id="mask-8" maskContentUnits="userSpaceOnUse" maskUnits="objectBoundingBox" x="0" y="0" width="22.1666667" height="79.8" fill="white">
            <use xlink:href="#path-7"></use>
        </mask>
        <rect id="path-9" x="0" y="28.8166667" width="79.9108316" height="22.1666667" rx="4"></rect>
        <mask id="mask-10" maskContentUnits="userSpaceOnUse" maskUnits="objectBoundingBox" x="0" y="0" width="79.9108316" height="22.1666667" fill="white">
            <use xlink:href="#path-9"></use>
        </mask>
    </defs>
    <g id="Page-1" stroke="none" stroke-width="1" fill="none" fill-rule="evenodd">
        <g id="Cancer" stroke-width="8">
            <g id="Group-27-Copy" transform="translate(2.000000, 2.000000)">
                <g id="Group-5-Copy-3" stroke="#7A00F6">
                    <use id="Oval-3" mask="url(#mask-2)" xlink:href="#path-1"></use>
                </g>
                <g id="Group-9" transform="translate(67.216478, 69.108522) rotate(-45.000000) translate(-67.216478, -69.108522) translate(26.762312, 29.208522)" fill="#FFFFFF">
                    <use id="Rectangle-7" stroke="#7A00F6" mask="url(#mask-4)" xlink:href="#path-3"></use>
                    <use id="Rectangle-4" stroke-opacity="0.412307518" stroke="#BC7FFA" mask="url(#mask-6)" xlink:href="#path-5"></use>
                    <use id="Rectangle-4" stroke="#7A00F6" mask="url(#mask-8)" xlink:href="#path-7"></use>
                    <use id="Rectangle-4" stroke-opacity="0.412307518" stroke="#BC7FFA" mask="url(#mask-10)" xlink:href="#path-9"></use>
                </g>
            </g>
        </g>
    </g>
</svg>