<?xml version="1.0" encoding="UTF-8" standalone="no"?>
<svg width="137px" height="137px" viewBox="0 0 137 137" version="1.1" xmlns="http://www.w3.org/2000/svg" xmlns:xlink="http://www.w3.org/1999/xlink">
    <!-- Generator: Sketch 39.1 (31720) - http://www.bohemiancoding.com/sketch -->
    <title>Cell Dynamics</title>
    <desc>Created with Sketch.</desc>
    <defs>
        <circle id="path-1" cx="66.5" cy="66.5" r="66.5"></circle>
        <mask id="mask-2" maskContentUnits="userSpaceOnUse" maskUnits="objectBoundingBox" x="0" y="0" width="133" height="133" fill="white">
            <use xlink:href="#path-1"></use>
        </mask>
    </defs>
    <g id="Page-1" stroke="none" stroke-width="1" fill="none" fill-rule="evenodd">
        <g id="Cell-Dynamics">
            <g id="Group-23-Copy" transform="translate(2.000000, 2.000000)">
                <use id="Oval-3" stroke="#79F800" mask="url(#mask-2)" stroke-width="8" xlink:href="#path-1"></use>
                <g id="Group-22" transform="translate(25.491667, 25.491667)">
                    <circle id="Combined-Shape" fill-opacity="0.5" fill="#79F800" cx="41.5625" cy="41.5625" r="41.5625"></circle>
                    <g id="Group-21" transform="translate(8.866667, 17.733333)">
                        <ellipse id="Oval-5-Copy" fill="#79F800" cx="53.2" cy="24.3833333" rx="13.3" ry="13.3"></ellipse>
                        <ellipse id="Oval-5-Copy-2" fill="#FFFFFF" cx="33.25" cy="8.86666667" rx="6.65" ry="6.65"></ellipse>
                        <ellipse id="Oval-5-Copy-3" fill="#FFFFFF" cx="4.43333333" cy="35.4666667" rx="4.43333333" ry="4.43333333"></ellipse>
                        <g id="Group" transform="translate(13.300000, 0.000000)" fill="#79F800">
                            <path d="M2.21666669,4.43333334 C2.21666669,1.99154831 2.21666668,-4.72510919e-14 2.21666667,-4.72510919e-14 C5.88936025,-4.72510919e-14 8.86666667,2.97730641 8.86666667,6.65 C8.86666667,9.50151698 7.07190798,11.9338456 4.55039754,12.878979 C3.82425583,13.1511574 3.03784328,13.3 2.21666667,13.3 C2.21666667,13.3 2.21666667,11.3084517 2.21666668,8.86666667 C2.49039221,8.86666667 2.75252973,8.81705246 2.99457696,8.72632632 C3.83508044,8.41128187 4.43333333,7.60050566 4.43333333,6.65 C4.43333333,5.42576881 3.44089787,4.43333334 2.21666669,4.43333333 Z" id="Combined-Shape"></path>
                            <path d="M2.21666667,4.43333333 C2.21666667,4.43333333 2.21666667,0 2.21666667,0 C0.992435471,0 0,0.992435471 0,2.21666667 C0,3.44089786 0.992435471,4.43333333 2.21666667,4.43333333 Z" id="Oval-Copy"></path>
                            <path d="M2.21666667,13.3 C2.21666667,13.3 2.21666667,8.86666667 2.21666667,8.86666667 C0.992435471,8.86666667 0,9.85910214 0,11.0833333 C0,12.3075645 0.992435471,13.3 2.21666667,13.3 Z" id="Oval-Copy-2"></path>
                        </g>
                        <g id="Group-6" transform="translate(23.107910, 31.974577) rotate(-45.000000) translate(-23.107910, -31.974577) translate(10.916244, 20.891244)" fill="#79F800">
                            <g id="Group-3-Copy-7" transform="translate(17.733333, 0.000000)">
                                <path d="M2.05241093e-08,4.43333334 C2.23196034e-08,1.99154831 1.82041285e-08,-4.72510919e-14 0,-4.72510919e-14 C3.67269359,-4.72510919e-14 6.65,2.97730641 6.65,6.65 C6.65,9.50151698 4.85524132,11.9338456 2.33373087,12.878979 C1.60758917,13.1511574 0.82117661,13.3 0,13.3 C0,13.3 7.04432675e-09,11.3084517 1.29552958e-08,8.86666667 C0.273725545,8.86666667 0.535863059,8.81705246 0.77791029,8.72632632 C1.61841377,8.41128187 2.21666667,7.60050566 2.21666667,6.65 C2.21666667,5.42576881 1.22423121,4.43333334 2.05241091e-08,4.43333333 Z" id="Combined-Shape"></path>
                            </g>
                            <rect id="Rectangle-5-Copy" x="6.65" y="17.7333333" width="6.65" height="4.43333333"></rect>
                            <g id="Group-2-Copy-7" transform="translate(0.000000, 8.866667)">
                                <path d="M6.65,13.3 C6.65,13.3 6.65,0 6.65,0 C2.97730641,0 0,2.97730641 0,6.65 C0,10.3226936 2.97730641,13.3 6.65,13.3 Z M6.65,8.86666667 C6.65,8.86666667 6.65,4.43333333 6.65,4.43333333 C5.4257688,4.43333333 4.43333333,5.4257688 4.43333333,6.65 C4.43333333,7.8742312 5.4257688,8.86666667 6.65,8.86666667 Z" id="Combined-Shape"></path>
                            </g>
                            <rect id="Rectangle-6-Copy-12" x="6.65" y="3.93759099e-14" width="11.0833333" height="4.43333333" rx="2.21666667"></rect>
                            <rect id="Rectangle-6-Copy-13" x="6.65" y="8.86666667" width="11.0833333" height="4.43333333"></rect>
                        </g>
                    </g>
                </g>
            </g>
        </g>
    </g>
</svg>