
<svg width="137px" height="137px" viewBox="0 0 137 137" version="1.1" xmlns="http://www.w3.org/2000/svg" xmlns:xlink="http://www.w3.org/1999/xlink">
    <!-- Generator: Sketch 39.1 (31720) - http://www.bohemiancoding.com/sketch -->
    <title>Computational Biology</title>
    <desc>Created with Sketch.</desc>
    <defs>
        <circle id="path-1" cx="66.5" cy="66.5" r="66.5"></circle>
        <path d="M110.470617,25.1149291 C115.699816,42.4053617 114.26607,61.0124944 106.45378,77.2164957 L93.6852303,70.9139597 C102.53186,52.5555335 100.973833,30.784545 89.5954699,13.8050524 C81.5613425,1.81603357 69.3406854,-6.69100378 55.3887381,-10.0031768 L58.586052,-23.9383681 C83.2844234,-18.0680334 103.063016,0.633543616 110.470617,25.1149291 Z" id="path-3"></path>
        <mask id="mask-4" maskContentUnits="userSpaceOnUse" maskUnits="objectBoundingBox" x="0" y="0" width="58.1772605" height="101.154864" fill="white">
            <use xlink:href="#path-3"></use>
        </mask>
        <path d="M48.6054206,115.17599 C45.076934,115.419204 41.5286547,115.390605 38,115.098006 L39.1010328,100.83994 C59.3218668,102.515157 78.8366067,93.1905427 90.3083987,76.3777708 C91.9119152,74.0270865 93.3315886,71.5678295 94.567419,69 L107.335969,75.302536 C96.2752186,98.2500802 73.8871336,113.449841 48.6054206,115.17599 Z" id="path-5"></path>
        <mask id="mask-6" maskContentUnits="userSpaceOnUse" maskUnits="objectBoundingBox" x="0" y="0" width="69.3359688" height="46.3399145" fill="white">
            <use xlink:href="#path-5"></use>
        </mask>
        <path d="M0.224793299,99.3210744 L9.09927381,88.1960437 C17.9982751,95.4314795 28.847219,99.8130712 40.218844,100.7539 L39.1178112,115.011965 C24.9027576,113.831962 11.3456084,108.367363 0.224793299,99.3210744 Z" id="path-7"></path>
        <mask id="mask-8" maskContentUnits="userSpaceOnUse" maskUnits="objectBoundingBox" x="0" y="0" width="39.9940507" height="26.8159218" fill="white">
            <use xlink:href="#path-7"></use>
        </mask>
        <path d="M0.224793299,101.321074 C-5.30983503,96.823648 -10.1422654,91.5123687 -14.1195168,85.5772696 L-2.37340717,77.6025788 C0.807597691,82.3494699 4.67157115,86.5981026 9.09927381,90.1960437 L0.224793299,101.321074" id="path-9"></path>
        <mask id="mask-10" maskContentUnits="userSpaceOnUse" maskUnits="objectBoundingBox" x="0" y="0" width="23.2187906" height="23.7184956" fill="white">
            <use xlink:href="#path-9"></use>
        </mask>
        <circle id="path-11" cx="69.5" cy="66.5" r="66.5"></circle>
        <mask id="mask-12" maskContentUnits="userSpaceOnUse" maskUnits="objectBoundingBox" x="0" y="0" width="133" height="133" fill="white">
            <use xlink:href="#path-11"></use>
        </mask>
        <mask id="mask-14" maskContentUnits="userSpaceOnUse" maskUnits="objectBoundingBox" x="0" y="0" width="133" height="133" fill="white">
            <use xlink:href="#path-11"></use>
        </mask>
        <path d="M69.5,129 C104.017797,129 132,101.017797 132,66.5 C132,31.9822031 104.017797,4 69.5,4 C34.9822031,4 7,31.9822031 7,66.5 C7,101.017797 34.9822031,129 69.5,129 Z" id="path-15"></path>
        <mask id="mask-16" maskContentUnits="userSpaceOnUse" maskUnits="objectBoundingBox" x="0" y="0" width="125" height="125" fill="white">
            <use xlink:href="#path-15"></use>
        </mask>
    </defs>
    <g id="Page-1" stroke="none" stroke-width="1" fill="none" fill-rule="evenodd">
        <g id="Computational-Biology">
            <g id="Group-61" transform="translate(0.000000, 4.000000)">
                <g stroke-width="1" transform="translate(65.000000, 62.000000) rotate(-270.000000) translate(-65.000000, -62.000000) translate(-3.000000, -6.000000)">
                    <g id="Group" transform="translate(66.961914, 68.766602) scale(-1, 1) translate(-66.961914, -68.766602) translate(0.461914, 2.266602)">
                        <mask id="mask-2" fill="white">
                            <use xlink:href="#path-1"></use>
                        </mask>
                        <g id="Mask"></g>
                        <path d="M15.9619141,105.233397 L36.7747041,103.224902 C36.7747041,103.224902 43.5492662,51.6463022 102.193753,69.129652 C102.133298,69.2382116 106.461917,58.2333984 106.461917,58.2333984 C106.461917,58.2333984 50.4912831,41.8846987 15.9619141,105.233397 Z" id="Shape" fill="#FFDD88" opacity="0.7" mask="url(#mask-2)"></path>
                        <path d="M98.9619144,17.7333984 C98.9619144,17.7333984 52.6180931,47.9416553 79.4619136,102.733398 L84.4619144,97.2333984 C84.4619144,97.2333984 74.9923896,46.6365956 115.461913,14.2333984" id="Shape-Copy" fill-opacity="0.608950408" fill="#FEB600" opacity="0.7" mask="url(#mask-2)"></path>
                        <path d="M16.5864804,9.77559517 C9.82085018,26.8196082 21.4059858,35.2002679 36.183874,65.3638674 L48.2434668,39.5744463 C48.2434668,39.5744463 22.6167008,39.3555941 27.9610169,15.6188607 C30.167478,5.81888266 57.6799979,13.9190031 57.6799979,13.9190031 L54.608202,-7.40150585 C54.608202,-7.40150585 22.1105199,-4.14059546 16.5864804,9.77559517 Z" id="Shape-Copy-2" fill-opacity="0.698907382" fill="#FEB600" opacity="0.7" mask="url(#mask-2)" transform="translate(36.143939, 28.981181) rotate(-150.000000) translate(-36.143939, -28.981181) "></path>
                        <path d="M63.2095841,35.8708975 C56.4439538,52.9149105 82.1672174,61.6998419 96.9451056,91.8634414 L100.799918,73.4137649 C100.799918,73.4137649 65.4535151,62.3313244 70.7978312,38.594591 C73.0042923,28.794613 110.650397,54.4146079 110.650397,54.4146079 C110.650397,54.4146079 109.667995,37.3255788 110.102115,39.7875984 C110.102115,39.7875984 68.7336236,21.9547068 63.2095841,35.8708975 Z" id="Shape-Copy-3" fill-opacity="0.851817255" fill="#FEB600" opacity="0.7" mask="url(#mask-2)" transform="translate(86.374150, 61.211838) rotate(10.000000) translate(-86.374150, -61.211838) "></path>
                        <path d="M8.84378825,72.6360898 C13.1414584,68.6684478 18.1007605,63.9290547 23.2811151,58.7335387 C25.8709977,56.1337665 28.5598481,53.4425766 31.2465755,50.6674579 C33.9377965,47.8954105 36.6405294,45.047591 39.3739446,42.2088135 C40.73632,40.7876677 42.0897705,39.3551078 43.4342277,37.9229053 C44.1052048,37.204897 44.7748222,36.4881458 45.4422179,35.7737233 C46.1023505,35.0510152 46.7741984,34.3431783 47.4478205,33.6409271 C50.1250842,30.8161084 52.7390812,28.0024059 55.2510834,25.2427637 C57.8007553,22.529792 60.2586963,19.8827947 62.5704668,17.3265878 C63.1482287,16.6863539 63.717889,16.0548917 64.2793705,15.4327298 C64.8465453,14.8199392 65.4048334,14.2164632 65.9541578,13.6228304 C67.0505346,12.4301647 68.1078101,11.2700861 69.1190173,10.1451946 C70.1279169,9.01191746 71.0948507,7.92604174 72.0142258,6.89365335 C72.4721569,6.37336633 72.9149541,5.85197974 73.3523182,5.37110778 C73.7882516,4.88552155 74.2153841,4.41996424 74.6220627,3.95429324 C76.2577731,2.10899474 72.175012,8.37283901 73.3347698,7.0035707 C75.6580857,4.27286258 84.1822429,9.7448906 84.1822429,9.7448906 C82.8481124,10.6444186 81.2397593,11.7674985 79.4018726,13.0819574 C78.4816393,13.737544 77.5098809,14.4528467 76.5030555,15.224722 C75.4966802,16.006426 74.4387979,16.8283459 73.3347701,17.6859816 C72.2332601,18.5521744 71.0897842,19.4657686 69.907755,20.4194927 C69.3180866,20.8992262 68.718557,21.3868885 68.1096639,21.882294 C67.5073615,22.3889851 66.9041021,22.9167763 66.2873914,23.4448394 C63.8296423,25.5721913 61.2468516,27.8471761 58.6024398,30.2576204 C55.9880376,32.7220927 53.3045468,35.3070676 50.5990017,37.9675006 C49.2413698,39.28666 47.9091468,40.6898049 46.5638903,42.0758214 C45.2215929,43.4689808 43.8779654,44.8728831 42.5430526,46.2880281 C39.8594352,49.0934754 37.2375399,52.006593 34.6712603,54.8852087 C32.1085707,57.7714816 29.5975483,60.6099813 27.2164182,63.4354915 C24.8331495,66.2563018 22.5541448,69.0107088 20.4164558,71.6478969 C18.2793769,74.2873563 16.2810812,76.796297 14.4614102,79.1693461 C12.6389549,81.5324381 10.9882139,83.7214816 9.54295077,85.6823894 C8.09705674,87.6427831 4.37712957,93.5434439 3.36687606,94.9831225 C2.35151874,96.4174584 3.20001209,95.9761319 3.20001209,95.9761319 L-6.96588942,88.3358045 C-6.96588942,88.3358045 6.69680748,74.6217178 8.84378825,72.6360898 L33.5224733,50.3848563" id="Shape" fill="#FEB600" mask="url(#mask-2)" transform="translate(39.200239, 49.825676) rotate(-11.000000) translate(-39.200239, -49.825676) "></path>
                        <path d="M38.9619141,114.733401 L71.8542764,97.6463831 C71.8542764,97.6463831 51.2046697,70.1915137 75.7807711,-19.146025 C75.8399763,-19.1547411 63.4124177,-24.7602841 63.4124177,-24.7602841 C55.9947215,-29.423877 62.7229708,48.2283104 38.9619141,114.733401 Z" id="Shape" fill-opacity="0.99012115" fill="#FEB600" opacity="0.7" mask="url(#mask-2)"></path>
                        <g id="Segment-30" mask="url(#mask-2)" stroke="#FFFFFF" stroke-width="8.5" fill="#FEB80A" stroke-linecap="round" stroke-linejoin="round">
                            <use mask="url(#mask-4)" xlink:href="#path-3"></use>
                        </g>
                        <g id="Segment-20" mask="url(#mask-2)" stroke-width="8.5" stroke="#FFFFFF" fill="#FEB80A">
                            <use mask="url(#mask-6)" xlink:href="#path-5"></use>
                        </g>
                        <g id="Segment-10" mask="url(#mask-2)" stroke-width="8.5" stroke="#FFFFFF" fill="#FEB80A">
                            <use mask="url(#mask-8)" xlink:href="#path-7"></use>
                        </g>
                        <g id="Segment-5" mask="url(#mask-2)" stroke-width="4.5" stroke="#FFFFFF" fill="#FFCB48">
                            <use mask="url(#mask-10)" xlink:href="#path-9"></use>
                        </g>
                    </g>
                    <mask id="mask-13" fill="white">
                        <use xlink:href="#path-11"></use>
                    </mask>
                    <g id="Oval-3-Copy-5" stroke="#FEB600" mask="url(#mask-12)" stroke-width="8.976" transform="translate(69.500000, 66.500000) scale(-1, 1) translate(-69.500000, -66.500000) ">
                        <use mask="url(#mask-14)" xlink:href="#path-11"></use>
                    </g>
                    <g id="Oval-3-Copy-6" mask="url(#mask-13)" transform="translate(69.500000, 66.500000) scale(-1, 1) translate(-69.500000, -66.500000) " stroke-width="11.9799995" stroke="#FFFFFF">
                        <use mask="url(#mask-16)" xlink:href="#path-15"></use>
                    </g>
                </g>
                <rect id="Rectangle" fill="#FFFFFF" transform="translate(42.849149, 32.577695) rotate(-36.000000) translate(-42.849149, -32.577695) " x="40.8491495" y="25.0776951" width="4" height="15"></rect>
                <rect id="Rectangle-Copy-6" fill="#FFFFFF" transform="translate(49.182760, 28.760479) rotate(-31.000000) translate(-49.182760, -28.760479) " x="48.1073348" y="21.2604789" width="2.15085052" height="15"></rect>
                <rect id="Rectangle-Copy-10" fill="#FFFFFF" transform="translate(27.182760, 57.760479) rotate(-68.000000) translate(-27.182760, -57.760479) " x="26.1073348" y="50.2604789" width="2.15085052" height="15"></rect>
                <rect id="Rectangle-Copy-7" fill="#FFFFFF" transform="translate(65.032975, 22.289006) rotate(-24.000000) translate(-65.032975, -22.289006) " x="63.9575494" y="14.7890058" width="2.15085052" height="15"></rect>
                <rect id="Rectangle-Copy" fill="#FFFFFF" transform="translate(35.784365, 41.648617) rotate(-49.000000) translate(-35.784365, -41.648617) " x="33.7843652" y="34.1486174" width="4" height="15"></rect>
                <rect id="Rectangle-Copy-2" fill="#FFFFFF" transform="translate(28.590530, 50.186942) rotate(-63.000000) translate(-28.590530, -50.186942) " x="26.5905299" y="42.6869418" width="4" height="15"></rect>
                <rect id="Rectangle-Copy-11" fill="#FFFFFF" transform="translate(19.590530, 77.186942) rotate(-86.000000) translate(-19.590530, -77.186942) " x="17.5905299" y="69.6869418" width="4" height="15"></rect>
                <rect id="Rectangle-Copy-3" fill="#FFFFFF" transform="translate(21.784365, 68.648617) rotate(-82.000000) translate(-21.784365, -68.648617) " x="19.7843652" y="61.1486174" width="4" height="15"></rect>
                <rect id="Rectangle-Copy-4" fill="#FFFFFF" transform="translate(71.332798, 19.742526) rotate(-19.000000) translate(-71.332798, -19.742526) " x="69.3327983" y="12.2425256" width="4" height="15"></rect>
                <path d="M85.1486352,11.2205315 L89.1486352,11.2205315 L89.1486352,21.3397705 L89.1486352,26.2205315 L85.1486352,26.2205315 L85.1486352,11.2205315 Z" id="Rectangle-Copy-5" fill="#FFFFFF" transform="translate(87.148635, 18.720531) rotate(-17.000000) translate(-87.148635, -18.720531) "></path>
                <rect id="Rectangle-Copy-9" fill="#FFFFFF" transform="translate(101.266196, 21.355297) rotate(-12.000000) translate(-101.266196, -21.355297) " x="99.2661956" y="13.8552971" width="4" height="15"></rect>
            </g>
        </g>
    </g>
</svg>
