<?xml version="1.0" encoding="UTF-8" standalone="no"?>
<svg width="137px" height="137px" viewBox="0 0 137 137" version="1.1" xmlns="http://www.w3.org/2000/svg" xmlns:xlink="http://www.w3.org/1999/xlink">
    <!-- Generator: Sketch 39.1 (31720) - http://www.bohemiancoding.com/sketch -->
    <title>Environment</title>
    <desc>Created with Sketch.</desc>
    <defs>
        <circle id="path-1" cx="66.5" cy="66.5" r="66.5"></circle>
        <mask id="mask-2" maskContentUnits="userSpaceOnUse" maskUnits="objectBoundingBox" x="0" y="0" width="133" height="133" fill="white">
            <use xlink:href="#path-1"></use>
        </mask>
        <circle id="path-3" cx="66" cy="67" r="63"></circle>
        <mask id="mask-4" maskContentUnits="userSpaceOnUse" maskUnits="objectBoundingBox" x="0" y="0" width="126" height="126" fill="white">
            <use xlink:href="#path-3"></use>
        </mask>
    </defs>
    <g id="Page-1" stroke="none" stroke-width="1" fill="none" fill-rule="evenodd">
        <g id="Environment">
            <g id="Group-15" transform="translate(2.000000, 2.000000)">
                <g id="Group-4" transform="translate(4.000000, 36.000000)">
                    <circle id="Oval-7" fill="#FFF2FF" cx="69.5" cy="61.5" r="33.5"></circle>
                    <circle id="Oval-7-Copy-44" fill="#FFF2FF" cx="47.5" cy="61.5" r="33.5"></circle>
                    <path d="M18.8648367,76 C21.0235409,77.6246001 14.9008553,81 18.8648364,81 C37.3663755,81 52.3648364,66.0015391 52.3648364,47.5 C52.3648364,28.9984609 37.3663755,14 18.8648364,14 C11.4136218,14 4.5,18 4.5,18 C4.5,18 2,31.4496754 2,42.5 C2,57.037558 10.9479756,70.0419197 18.8648367,76 Z" id="Oval-7-Copy-2" fill="#FFF2FF"></path>
                    <path d="M47.8648367,77 C50.0235409,78.6246001 43.9008553,82 47.8648364,82 C66.3663755,82 81.3648364,67.0015391 81.3648364,48.5 C81.3648364,29.9984609 66.3663755,15 47.8648364,15 C41.7837033,15 32.1601521,16.3927867 30,18.5 C25.5879987,22.8038764 33.3648364,31.079594 33.3648364,43.5 C33.3648364,58.037558 39.9479756,71.0419197 47.8648367,77 Z" id="Oval-7-Copy-45" fill="#FFF2FF"></path>
                    <path d="M66.8648367,77 C69.0235409,78.6246001 62.9008553,82 66.8648364,82 C85.3663755,82 100.364836,67.0015391 100.364836,48.5 C100.364836,29.9984609 85.3663755,15 66.8648364,15 C48.3632972,15 52.3648364,24.9984609 52.3648364,43.5 C52.3648364,58.037558 58.9479756,71.0419197 66.8648367,77 Z" id="Oval-7-Copy-46" fill="#FFF2FF"></path>
                    <path d="M87.8648367,79 C90.0235409,80.6246001 83.9008553,84 87.8648364,84 C106.366375,84 121.364836,69.0015391 121.364836,50.5 C121.364836,31.9984609 106.366375,17 87.8648364,17 C87.1749661,17 86.6286703,15.9722751 85.9999996,16 C69.7684337,16.7158249 73.3648364,27.6883312 73.3648364,45.5 C73.3648364,60.037558 79.9479756,73.0419197 87.8648367,79 Z" id="Oval-7-Copy-47" fill="#FFF2FF"></path>
                    <path d="M99.8648367,73 C102.023541,74.6246001 95.9008553,78 99.8648364,78 C118.366375,78 121.5,53.5015391 121.5,35 C121.5,16.4984609 118.366375,11 99.8648364,11 C81.3632972,11 85.3648364,20.9984609 85.3648364,39.5 C85.3648364,54.037558 91.9479756,67.0419197 99.8648367,73 Z" id="Oval-7-Copy-48" fill="#FFF2FF"></path>
                    <circle id="Oval-7-Copy-3" fill="#FFF2FF" cx="60.5" cy="61.5" r="33.5"></circle>
                    <g id="Group-59" transform="translate(44.000000, 1.000000)" fill="#FFF2FF">
                        <path d="M19,6 C24.0764958,6 29.35541,4.97015899 30,3.5 C30.0566757,3.37073604 29.5,3.13390551 29.5,3 C28.5916297,1.62366615 23.854438,0 19,0 C13.4771525,0 9,1.34314575 9,3 C9,4.65685425 13.4771525,6 19,6 Z" id="Oval-8"></path>
                        <ellipse id="Oval-8-Copy" cx="16" cy="5" rx="9" ry="3"></ellipse>
                        <path d="M13,10 C17.9705627,10 22,8.65685425 22,7 C22,5.34314575 17.9705627,4 13,4 C8.02943725,4 6,5.84314575 6,7.5 C6,9.15685425 8.02943725,10 13,10 Z" id="Oval-8-Copy-2"></path>
                        <path d="M15,11 C19.9705627,11 24,9.65685425 24,8 C24,7.83854388 25.8456872,6.31953331 26,5.49999999 C26.0894333,5.02503212 24.5659241,5.08674171 24.5,5.00000002 C23.5123895,3.70052038 19.2054744,5 15,5 C10.0294373,5 6,6.34314575 6,8 C6,9.65685425 10.0294373,11 15,11 Z" id="Oval-8-Copy-3"></path>
                        <ellipse id="Oval-8-Copy-4" cx="12" cy="10" rx="9" ry="3"></ellipse>
                        <ellipse id="Oval-8-Copy-6" cx="11" cy="12" rx="9" ry="3"></ellipse>
                        <ellipse id="Oval-8-Copy-8" cx="9" cy="14" rx="9" ry="3"></ellipse>
                        <ellipse id="Oval-8-Copy-9" cx="17" cy="14" rx="9" ry="3"></ellipse>
                    </g>
                    <g id="Group-59-Copy" transform="translate(88.000000, 1.000000)" fill="#FFF2FF">
                        <ellipse id="Oval-8" cx="19" cy="3" rx="10" ry="3"></ellipse>
                        <ellipse id="Oval-8-Copy" cx="16" cy="5" rx="9" ry="3"></ellipse>
                        <path d="M13,10 C17.9705627,10 22,8.65685425 22,7 C22,5.34314575 17.9705627,4 13,4 C8.02943725,4 5,6.34314575 5,8 C5,9.65685425 8.02943725,10 13,10 Z" id="Oval-8-Copy-2"></path>
                        <path d="M15,11 C18.2232911,11 21.9104118,11.8489172 23.5,11 C23.5505387,10.9730099 28.1257803,13.8795778 28.5,14.0000004 C29.8586575,14.4372118 29.9331183,13.2260568 30,13.0000004 C31.9065348,13.0000004 29.5,10.4242413 29.5,9.99999992 C29.5,9.96305645 29.048891,9.10975737 29,8.99999992 C28.609658,8.12370468 25.2653235,5.265226 25,4.99999998 C23.8081453,3.80858297 18.9748707,5 15,5 C10.0294373,5 6,6.34314575 6,8 C6,9.65685425 10.0294373,11 15,11 Z" id="Oval-8-Copy-3"></path>
                        <ellipse id="Oval-8-Copy-4" cx="12" cy="10" rx="9" ry="3"></ellipse>
                        <ellipse id="Oval-8-Copy-6" cx="11" cy="12" rx="9" ry="3"></ellipse>
                        <ellipse id="Oval-8-Copy-8" cx="9" cy="14" rx="9" ry="3"></ellipse>
                        <ellipse id="Oval-8-Copy-9" cx="17" cy="14" rx="9" ry="3"></ellipse>
                        <ellipse id="Oval-8-Copy-10" cx="16" cy="12" rx="9" ry="3"></ellipse>
                    </g>
                    <g id="Group-59-Copy-2" transform="translate(0.000000, 1.000000)" fill="#FFF2FF">
                        <ellipse id="Oval-8" cx="19" cy="3" rx="10" ry="3"></ellipse>
                        <path d="M17,8 C22.5228475,8 30.5,4.15685424 30.5,2.49999999 C30.5,0.843145737 22.5228475,2 17,2 C11.4771525,2 7,3.34314575 7,5 C7,6.65685425 11.4771525,8 17,8 Z" id="Oval-8-Copy"></path>
                        <ellipse id="Oval-8-Copy-2" cx="13" cy="7" rx="9" ry="3"></ellipse>
                        <path d="M15,11 C18.8654436,11 25.2253326,15.6404269 26.5,14.4999998 C26.8644237,14.173955 24,8.36837305 24,8 C24,7.78528035 25.1286255,6.20194166 25,5.99999995 C24.136105,4.64368657 19.3264038,5 15,5 C10.0294373,5 6,6.34314575 6,8 C6,9.65685425 10.0294373,11 15,11 Z" id="Oval-8-Copy-3"></path>
                        <ellipse id="Oval-8-Copy-4" cx="12" cy="10" rx="9" ry="3"></ellipse>
                        <ellipse id="Oval-8-Copy-6" cx="11" cy="12" rx="9" ry="3"></ellipse>
                        <ellipse id="Oval-8-Copy-8" cx="9" cy="14" rx="9" ry="3"></ellipse>
                        <ellipse id="Oval-8-Copy-9" cx="17" cy="14" rx="9" ry="3"></ellipse>
                        <path d="M16,14 C20.9705627,14 25,12.6568542 25,11 C25,9.34314575 20.9705627,8 16,8 C11.0294373,8 7,9.34314575 7,11 C7,12.6568542 11.0294373,14 16,14 Z" id="Oval-8-Copy-10"></path>
                    </g>
                    <path d="M9.5,1.5 L117.518517,1.5" id="Line" stroke="#FFF2FF" stroke-linecap="square"></path>
                    <polygon id="Rectangle" fill="#FFF2FF" points="8.5 1 122 1 125 51 6 51"></polygon>
                    <ellipse id="Oval-8-Copy-5" fill="#FFF2FF" cx="61" cy="12" rx="9" ry="3"></ellipse>
                    <path d="M61,17 C64.8192794,17 69.6930496,16.6189948 71,15.5 C71.393967,15.1626903 70,14.3837611 70,14 C70,12.3431458 65.9705627,11 61,11 C56.0294373,11 52,12.3431458 52,14 C52,15.6568542 56.0294373,17 61,17 Z" id="Oval-8-Copy-7" fill="#FFF2FF"></path>
                </g>
                <g id="Group-3-Copy">
                    <use id="Oval-3-Copy-6" stroke="#FE00FF" mask="url(#mask-2)" stroke-width="8.976" xlink:href="#path-1"></use>
                    <use id="Oval-3-Copy-10" stroke="#FFFFFF" mask="url(#mask-4)" stroke-width="8.5272" xlink:href="#path-3"></use>
                </g>
                <g id="Group-14" transform="translate(40.000000, 96.000000)">
                    <g id="Group-10">
                        <g id="Group-4-Copy">
                            <path d="M1.26191831,14.2243706 C2.31358164,14.9001414 8.48523682,14.2243708 9.84049686,14.2243708 C13.5170831,14.2243708 16.4975451,11.3286752 16.4975451,7.7566537 C16.4975451,4.1846322 16.4676865,0 12.7911003,0 C9.11451405,0 0.621408223,4.1846321 0.621408223,7.75665361 C0.621408223,10.0119596 -0.539399174,13.0668919 1.26191831,14.2243706 Z" id="Oval-Copy-25" fill="#FF93FF"></path>
                            <path d="M10.2801256,6.46311029 C10.7700489,6.46311029 11.1672102,6.07701755 11.1672102,5.60074801 C11.1672102,5.12447848 10.7700489,4.73838574 10.2801256,4.73838574 C9.79020225,4.73838574 9.39304094,5.12447848 9.39304094,5.60074801 C9.39304094,6.07701755 9.79020225,6.46311029 10.2801256,6.46311029 Z" id="Oval-Copy-20" fill-opacity="0.695482337" fill="#FFFFFF"></path>
                        </g>
                        <ellipse id="Oval-Copy-37" fill="#FFFFFF" cx="5.94633255" cy="8.04104035" rx="0.449086585" ry="0.436314247"></ellipse>
                        <ellipse id="Oval-Copy-39" fill-opacity="0.359290082" fill="#FFFFFF" cx="11.9685866" cy="10.2026055" rx="1.34725976" ry="1.30894274"></ellipse>
                    </g>
                </g>
                <g id="Group-13" transform="translate(30.000000, 43.000000)">
                    <g id="Group-11" transform="translate(0.545874, 0.000000)">
                        <path d="M22.8427261,44.0395601 C30.5147606,43.7896237 35.8933129,31.1538592 35.8933129,19.8879117 C35.8933129,8.46482971 26.180361,0.092093335 18.3596608,0.092093335 C10.5389607,0.092093335 0.470291419,21.5197748 0.470291419,32.9428568 C0.470291419,44.3659388 22.7357185,44.0430461 22.8427261,44.0395601 Z" id="Oval-Copy-32" fill="#FFA4FF"></path>
                        <path d="M14.6336473,13.0802268 C14.9049916,13.0802268 15.1249597,12.8507097 15.1249597,12.5675859 C15.1249597,12.2844622 14.9049916,12.0549451 14.6336473,12.0549451 C14.3623029,12.0549451 14.1423348,12.2844622 14.1423348,12.5675859 C14.1423348,12.8507097 14.3623029,13.0802268 14.6336473,13.0802268 Z" id="Oval-Copy-43" fill="#FFFFFF"></path>
                        <path d="M17.4996156,22.9610834 C17.9809068,22.9610834 18.3710704,22.5653755 18.3710704,22.077245 C18.3710704,21.5891145 17.9809068,21.1934066 17.4996156,21.1934066 C17.0183245,21.1934066 16.6281609,21.5891145 16.6281609,22.077245 C16.6281609,22.5653755 17.0183245,22.9610834 17.4996156,22.9610834 Z" id="Oval-Copy-45" fill-opacity="0.359290082" fill="#FFFFFF"></path>
                        <path d="M17.4996156,32.099545 C17.9809068,32.099545 18.3710704,31.703837 18.3710704,31.2157065 C18.3710704,30.7275761 17.9809068,30.3318681 17.4996156,30.3318681 C17.0183245,30.3318681 16.6281609,30.7275761 16.6281609,31.2157065 C16.6281609,31.703837 17.0183245,32.099545 17.4996156,32.099545 Z" id="Oval-Copy-50" fill-opacity="0.695482337" fill="#FFFFFF"></path>
                    </g>
                    <path d="M29.4771943,21.8271593 C31.2860615,21.8271593 32.7524381,20.2971256 32.7524381,18.4097335 C32.7524381,16.5223413 31.2860615,14.9923077 29.4771943,14.9923077 C27.6683271,14.9923077 26.2019505,16.5223413 26.2019505,18.4097335 C26.2019505,20.2971256 27.6683271,21.8271593 29.4771943,21.8271593 Z" id="Oval-Copy-46" fill-opacity="0.566123188" fill="#FFFFFF"></path>
                </g>
                <g id="Group-7" transform="translate(73.000000, 76.000000)">
                    <path d="M14.6768509,28.3816089 C30.925438,28.3816089 24.4656908,23.2623027 24.4656908,16.9473184 C24.4656908,10.6323342 35.1263384,-4.01554735 14.6768509,-0.204117274 C-5.77263668,3.6073128 4.88801098,10.6323342 4.88801098,16.9473184 C4.88801098,23.2623027 -1.57173624,28.3816089 14.6768509,28.3816089 Z" id="Oval-Copy-54" fill="#FF93FF" transform="translate(14.676851, 13.776932) rotate(-270.000000) translate(-14.676851, -13.776932) "></path>
                    <ellipse id="Oval-Copy-28" fill-opacity="0.693359375" fill="#FFFFFF" cx="15.5235327" cy="7.84450383" rx="2.09410165" ry="2.13190923"></ellipse>
                    <ellipse id="Oval-Copy-40" fill="#FFFFFF" cx="9.3143663" cy="19.8884445" rx="0.874614642" ry="0.898870459"></ellipse>
                    <ellipse id="Oval-Copy-36" fill-opacity="0.359290082" fill="#FFFFFF" cx="7.00505093" cy="12.1020309" rx="1.06013896" ry="1.07864455"></ellipse>
                    <path d="M21.9740891,21.1468631 C22.5595876,21.1468631 23.034228,20.6639375 23.034228,20.0682186 C23.034228,19.4724996 22.5595876,18.989574 21.9740891,18.989574 C21.3885905,18.989574 20.9139501,19.4724996 20.9139501,20.0682186 C20.9139501,20.6639375 21.3885905,21.1468631 21.9740891,21.1468631 Z" id="Oval-Copy-42" fill-opacity="0.359290082" fill="#FFFFFF"></path>
                </g>
                <g id="Group-12" transform="translate(81.000000, 57.000000)">
                    <path d="M9.7029764,13.061793 C21.6551554,13.061793 16.9034773,10.9127598 16.9034773,8.26179299 C16.9034773,5.61082619 24.7452649,-0.538206978 9.70297637,1.06179299 C-5.33931218,2.66179295 2.50247544,5.61082619 2.50247544,8.26179299 C2.50247544,10.9127598 -2.24920263,13.061793 9.7029764,13.061793 Z" id="Oval-Copy-48" fill="#FFB9FF"></path>
                    <ellipse id="Oval-Copy-29" fill-opacity="0.575152853" fill="#FFFFFF" cx="13.3547423" cy="6.13523952" rx="0.534962077" ry="0.53523952"></ellipse>
                    <path d="M4.63274875,10.9664457 C5.23103783,10.9664457 5.71604696,10.4814703 5.71604696,9.88322284 C5.71604696,9.28497538 5.23103783,8.8 4.63274875,8.8 C4.03445968,8.8 3.54945055,9.28497538 3.54945055,9.88322284 C3.54945055,10.4814703 4.03445968,10.9664457 4.63274875,10.9664457 Z" id="Oval-Copy-49" fill-opacity="0.695482337" fill="#FFFFFF"></path>
                    <path d="M11.8163744,11.4832228 C12.1155189,11.4832228 12.3580235,11.2407351 12.3580235,10.9416114 C12.3580235,10.6424877 12.1155189,10.4 11.8163744,10.4 C11.5172298,10.4 11.2747253,10.6424877 11.2747253,10.9416114 C11.2747253,11.2407351 11.5172298,11.4832228 11.8163744,11.4832228 Z" id="Oval-Copy-51" fill-opacity="0.563037817" fill="#FFFFFF"></path>
                    <path d="M4.09109965,5.08322284 C4.39024419,5.08322284 4.63274875,4.84073515 4.63274875,4.54161142 C4.63274875,4.24248769 4.39024419,4 4.09109965,4 C3.79195511,4 3.54945055,4.24248769 3.54945055,4.54161142 C3.54945055,4.84073515 3.79195511,5.08322284 4.09109965,5.08322284 Z" id="Oval-Copy-52" fill-opacity="0.563037817" fill="#FFFFFF"></path>
                    <path d="M10.2713194,8.28322284 C10.570464,8.28322284 10.8129685,8.04073515 10.8129685,7.74161142 C10.8129685,7.44248769 10.570464,7.2 10.2713194,7.2 C9.97217489,7.2 9.72967033,7.44248769 9.72967033,7.74161142 C9.72967033,8.04073515 9.97217489,8.28322284 10.2713194,8.28322284 Z" id="Oval-Copy-53" fill-opacity="0.563037817" fill="#FFFFFF"></path>
                </g>
            </g>
        </g>
    </g>
</svg>