<?xml version="1.0" encoding="UTF-8" standalone="no"?>
<svg width="120px" height="120px" viewBox="0 0 120 120" version="1.1" xmlns="http://www.w3.org/2000/svg" xmlns:xlink="http://www.w3.org/1999/xlink">
    <!-- Generator: Sketch 39.1 (31720) - http://www.bohemiancoding.com/sketch -->
    <title>infectious</title>
    <desc>Created with Sketch.</desc>
    <defs>
        <circle id="path-1" cx="60" cy="60" r="60"></circle>
        <mask id="mask-2" maskContentUnits="userSpaceOnUse" maskUnits="objectBoundingBox" x="0" y="0" width="120" height="120" fill="white">
            <use xlink:href="#path-1"></use>
        </mask>
        <rect id="path-3" x="6" y="16" width="20" height="52"></rect>
        <mask id="mask-4" maskContentUnits="userSpaceOnUse" maskUnits="objectBoundingBox" x="0" y="0" width="20" height="52" fill="white">
            <use xlink:href="#path-3"></use>
        </mask>
        <rect id="path-5" x="10" y="0" width="12" height="20"></rect>
        <mask id="mask-6" maskContentUnits="userSpaceOnUse" maskUnits="objectBoundingBox" x="0" y="0" width="12" height="20" fill="white">
            <use xlink:href="#path-5"></use>
        </mask>
    </defs>
    <g id="Page-1" stroke="none" stroke-width="1" fill="none" fill-rule="evenodd">
        <g id="infectious">
            <g id="Group-5-Copy-2" stroke="#005CFF" stroke-width="8">
                <use id="Oval-3" mask="url(#mask-2)" xlink:href="#path-1"></use>
            </g>
            <g id="Group" transform="translate(44.000000, 16.000000)">
                <use id="Rectangle" stroke="#005CFF" mask="url(#mask-4)" stroke-width="8" fill-opacity="0.5" fill="#005CFF" xlink:href="#path-3"></use>
                <path d="M18,72 L22,72 L22,68 L10,68 L10,72 L14,72 L14,86.0092049 C14,87.1017876 14.8954305,88 16,88 C17.1122704,88 18,87.1086907 18,86.0092049 L18,72 Z" id="Combined-Shape" fill="#005CFF"></path>
                <use id="Rectangle-2-Copy-6" stroke="#005CFF" mask="url(#mask-6)" stroke-width="8" fill="#FFFFFF" xlink:href="#path-5"></use>
                <rect id="Rectangle-2-Copy" fill="#005CFF" x="6" y="0" width="20" height="4" rx="2"></rect>
                <rect id="Rectangle-2-Copy-7" fill="#005CFF" x="0" y="16" width="32" height="4" rx="2"></rect>
                <path d="M10,32 L12,32 C13.1045695,32 14,32.8877296 14,34 C14,35.1045695 13.1122704,36 12,36 L10,36 L10,32 Z M10,24 L16.0018986,24 C17.1054196,24 18,24.8877296 18,26 C18,27.1045695 17.1132936,28 16.0018986,28 L10,28 L10,24 Z M10,40 L16.0018986,40 C17.1054196,40 18,40.8877296 18,42 C18,43.1045695 17.1132936,44 16.0018986,44 L10,44 L10,40 Z M10,48 L12,48 C13.1045695,48 14,48.8877296 14,50 C14,51.1045695 13.1122704,52 12,52 L10,52 L10,48 Z M10,56 L16.0018986,56 C17.1054196,56 18,56.8877296 18,58 C18,59.1045695 17.1132936,60 16.0018986,60 L10,60 L10,56 Z" id="Combined-Shape" fill="#FFFFFF"></path>
            </g>
        </g>
    </g>
</svg>