<?xml version="1.0" encoding="UTF-8" standalone="no"?>
<svg width="137px" height="137px" viewBox="0 0 137 137" version="1.1" xmlns="http://www.w3.org/2000/svg" xmlns:xlink="http://www.w3.org/1999/xlink">
    <!-- Generator: Sketch 39.1 (31720) - http://www.bohemiancoding.com/sketch -->
    <title>P4 Medicine</title>
    <desc>Created with Sketch.</desc>
    <defs>
        <circle id="path-1" cx="66.5" cy="66.5" r="66.5"></circle>
        <mask id="mask-2" maskContentUnits="userSpaceOnUse" maskUnits="objectBoundingBox" x="0" y="0" width="133" height="133" fill="white">
            <use xlink:href="#path-1"></use>
        </mask>
    </defs>
    <g id="Page-1" stroke="none" stroke-width="1" fill="none" fill-rule="evenodd">
        <g id="P4-Medicine">
            <g id="Group" transform="translate(2.000000, 2.000000)">
                <use id="Oval-3-Copy-8" stroke="#009E9D" mask="url(#mask-2)" stroke-width="8" xlink:href="#path-1"></use>
                <ellipse id="Oval-7-Copy-23" fill="#4DBCBB" cx="84.2333333" cy="39.9" rx="4.43333333" ry="4.43333333"></ellipse>
                <rect id="Rectangle-13-Copy-11" fill="#4DBCBB" x="48.7666667" y="37.6833333" width="35.4666667" height="4.43333333"></rect>
                <ellipse id="Oval-7-Copy-24" fill="#4DBCBB" cx="79.8" cy="48.7666667" rx="4.43333333" ry="4.43333333"></ellipse>
                <ellipse id="Oval-7-Copy-25" fill="#4DBCBB" cx="79.8" cy="31.0333333" rx="4.43333333" ry="4.43333333"></ellipse>
                <rect id="Rectangle-13-Copy-12" fill="#4DBCBB" x="53.2" y="46.55" width="26.6" height="4.43333333"></rect>
                <ellipse id="Oval-7-Copy-26" fill="#4DBCBB" cx="75.3666667" cy="57.6333333" rx="4.43333333" ry="4.43333333"></ellipse>
                <ellipse id="Oval-7-Copy-27" fill="#4DBCBB" cx="75.3666667" cy="22.1666667" rx="4.43333333" ry="4.43333333"></ellipse>
                <rect id="Rectangle-13-Copy-15" fill="#4DBCBB" x="57.6333333" y="19.95" width="17.7333333" height="4.43333333"></rect>
                <ellipse id="Oval-7-Copy-28" fill="#4DBCBB" cx="57.6333333" cy="75.3666667" rx="4.43333333" ry="4.43333333"></ellipse>
                <ellipse id="Oval-7-Copy-29" fill="#4DBCBB" cx="57.6333333" cy="110.833333" rx="4.43333333" ry="4.43333333"></ellipse>
                <rect id="Rectangle-13-Copy-16" fill="#4DBCBB" x="58" y="73" width="17.7333333" height="4.43333333"></rect>
                <path d="M60,55.4166667 L77.7333333,55.4166667 L77.7333333,59.85 L60.0140752,59.85 C60.0153879,59.85 60,55.4166667 60,55.4166667 Z" id="Rectangle-13-Copy-21" fill="#4DBCBB"></path>
                <rect id="Rectangle-13-Copy-17" fill="#4DBCBB" x="57.6333333" y="108.616667" width="17.7333333" height="4.43333333"></rect>
                <ellipse id="Oval-7-Copy-30" fill="#4DBCBB" cx="53.2" cy="84.2333333" rx="4.43333333" ry="4.43333333"></ellipse>
                <circle id="Oval-7-Copy-31" fill="#4DBCBB" cx="53.2" cy="101.966667" r="4.43333333"></circle>
                <rect id="Rectangle-13-Copy-18" fill="#4DBCBB" x="53.2" y="82.0166667" width="26.6" height="4.43333333"></rect>
                <rect id="Rectangle-13-Copy-19" fill="#4DBCBB" x="53" y="100" width="26.6" height="4.43333333"></rect>
                <rect id="Rectangle-13-Copy-22" fill="#4DBCBB" x="53" y="28.8166667" width="26.6" height="4.43333333"></rect>
                <rect id="Rectangle-13-Copy-20" fill="#4DBCBB" x="48.7666667" y="90.8833333" width="35.4666667" height="4.43333333"></rect>
                <ellipse id="Oval-7-Copy-32" fill="#009E9D" cx="48.7666667" cy="93.1" rx="4.43333333" ry="4.43333333"></ellipse>
                <circle id="Oval-7-Copy-33" fill="#009E9D" cx="48.7666667" cy="39.9" r="4.43333333"></circle>
                <ellipse id="Oval-7-Copy-34" fill="#009E9D" cx="53.2" cy="48.7666667" rx="4.43333333" ry="4.43333333"></ellipse>
                <ellipse id="Oval-7-Copy-35" fill="#51BDBC" cx="53.2" cy="31.0333333" rx="4.43333333" ry="4.43333333"></ellipse>
                <circle id="Oval-7-Copy-36" fill="#B8E4E3" cx="57.6333333" cy="57.6333333" r="4.43333333"></circle>
                <circle id="Oval-7-Copy-37" fill="#009E9D" cx="57.6333333" cy="22.1666667" r="4.43333333"></circle>
                <circle id="Oval-7-Copy-38" fill="#009E9D" cx="66.5" cy="66.5" r="4.43333333"></circle>
                <path d="M75.3666667,79.8 C77.8151291,79.8 79.8,77.8151291 79.8,75.3666667 C79.8,72.9182043 77.8151291,70.9333333 75.3666667,70.9333333 C72.9182043,70.9333333 70.9333333,72.9182043 70.9333333,75.3666667 C70.9333333,77.8151291 72.9182043,79.8 75.3666667,79.8 Z" id="Oval-7-Copy-39" fill="#009E9D"></path>
                <circle id="Oval-7-Copy-40" fill="#B3E2E2" cx="75.3666667" cy="110.833333" r="4.43333333"></circle>
                <circle id="Oval-7-Copy-41" fill="#009E9D" cx="79.8" cy="84.2333333" r="4.43333333"></circle>
                <ellipse id="Oval-7-Copy-42" fill="#009E9D" cx="79.8" cy="101.966667" rx="4.43333333" ry="4.43333333"></ellipse>
                <circle id="Oval-7-Copy-43" fill="#B4E3E3" cx="84.2333333" cy="93.1" r="4.43333333"></circle>
            </g>
        </g>
    </g>
</svg>