<?xml version="1.0" encoding="UTF-8" standalone="no"?>
<svg width="137px" height="137px" viewBox="0 0 137 137" version="1.1" xmlns="http://www.w3.org/2000/svg" xmlns:xlink="http://www.w3.org/1999/xlink">
    <!-- Generator: Sketch 39.1 (31720) - http://www.bohemiancoding.com/sketch -->
    <title>Proteomics</title>
    <desc>Created with Sketch.</desc>
    <defs>
        <circle id="path-1" cx="66.5" cy="66.5" r="66.5"></circle>
        <mask id="mask-2" maskContentUnits="userSpaceOnUse" maskUnits="objectBoundingBox" x="0" y="0" width="133" height="133" fill="white">
            <use xlink:href="#path-1"></use>
        </mask>
        <polygon id="path-3" points="12.3867999 22.0401549 -1.22444277e-11 22.0401549 -1.22444277e-11 0.182725286 24.7735998 0.182725286 24.7735998 22.0401549"></polygon>
    </defs>
    <g id="Page-1" stroke="none" stroke-width="1" fill="none" fill-rule="evenodd">
        <g id="Proteomics">
            <g id="PROTEONOMICS" transform="translate(1.000000, 0.000000)">
                <g id="PROTEONOMICS-Copy">
                    <use id="BORDER" stroke="#00DAE5" mask="url(#mask-2)" stroke-width="8" xlink:href="#path-1"></use>
                    <g id="right-squiggle" transform="translate(80.131787, 86.490484) rotate(147.000000) translate(-80.131787, -86.490484) translate(33.445740, 58.990484)">
                        <path d="M43.4990673,14.2938324 C41.0254168,14.2263972 40.910247,14.8786096 41.9172829,16.8129577 C43.7144301,20.266606 45.683771,23.6287351 47.6079853,27.0133426 C47.7956169,27.3436951 48.1308997,27.6339075 48.4638074,27.8257768 C52.9107572,30.3907249 57.3391022,32.9917989 61.840679,35.4551927 C63.5820118,36.4077156 66.5215585,37.4107762 68.5700689,37.171943 C70.2425242,36.9772638 69.3859266,36.2571905 68.8107603,34.6640327 C67.5365275,31.1369281 65.6835657,27.9209087 63.6200131,24.8293235 C63.0935361,24.0401704 62.3964488,23.2582426 61.5984204,22.7837874 C57.6834895,20.4552642 53.7238278,18.2026056 49.7467488,15.9844675 C47.9183296,14.9645092 44.9842685,13.0705212 43.138432,12.9420731 L41.9172828,14.2938324" id="Fill-10" fill="#00DAE5" transform="translate(55.435625, 25.074855) scale(-1, 1) rotate(-116.000000) translate(-55.435625, -25.074855) "></path>
                        <path d="M19.6212039,26.1719616 C21.4183512,29.6256099 23.3876921,32.987739 25.3119063,36.3723465 C25.499538,36.7026989 25.8348208,36.9929114 26.1677284,37.1847807 C30.6146783,39.7497287 35.0430233,42.3508028 39.5446001,44.8141966 C41.2859329,45.7667195 43.2117305,46.3916998 45.2602409,46.1528666 C46.9326962,45.9581875 47.0898476,45.6161944 46.5146813,44.0230365 C45.2404485,40.4959319 43.3874868,37.2799126 41.3239342,34.1883273 C40.7974571,33.3991743 40.1003699,32.6172465 39.3023415,32.1427913 C35.3874106,29.8142681 28.2479308,22.0265004 24.2708518,19.8083622" id="Fill-10-Copy-3" fill="#00DAE5" transform="translate(33.218973, 33.006136) scale(-1, 1) rotate(-116.000000) translate(-33.218973, -33.006136) "></path>
                        <path d="M63.0449509,0.101504901 C61.2038646,1.95798137 59.4516436,4.62133996 57.5634515,6.4268386 C55.9567068,7.96339901 55.4717937,9.79900267 55.8799124,11.9123753 C56.0865448,12.98291 56.2900103,14.1040211 56.7697774,15.0601566 C57.9446525,17.4015247 59.2834085,19.6581973 60.5493285,21.9530029 C64.1147262,28.4171536 68.9531691,34.1314886 71.5455738,41.1688389 C71.7969369,41.8508181 72.2090141,41.8568391 72.6931355,41.3823839 C74.6371421,39.4781408 76.6005453,37.5939677 78.5200094,35.6648378 C79.7887003,34.3899904 80.2185906,32.7819807 79.9403099,31.0250515 C79.7641578,29.9127712 79.5654424,28.7599495 79.1121971,27.7468151 C78.3410864,26.0228007 77.4223245,24.3577922 76.4576444,22.7341279 C74.0758305,18.7253429 71.7209342,14.6952838 69.1859274,10.7868489 C67.1872938,7.70529861 65.4617949,4.5350389 64.5359078,0.951738255 C64.4662387,0.681997242 64.2728689,-0.0687432901 64.0642573,-0.543198466" id="Fill-1" fill="#A5F1F5" transform="translate(67.882002, 20.585003) scale(-1, 1) rotate(-116.000000) translate(-67.882002, -20.585003) "></path>
                        <path d="M54.2220941,31.8480312 C49.8578764,23.8962909 44.3318465,16.6393746 40.5570456,8.33600758 C40.2949946,7.75999813 39.8904385,7.69737968 39.417005,8.00244392 C39.0251161,8.25532612 38.6431233,8.54192595 38.3125907,8.87107421 C36.820246,10.357861 35.3817365,11.9012452 33.8593073,13.3551172 C32.3491495,14.7977499 31.7862544,16.5687281 32.233562,18.5371953 C32.6262426,20.2644208 33.0988845,22.0586803 33.9618318,23.5743679 C36.5031722,28.037538 39.2467906,32.3826964 41.9294486,36.7623753 C44.1901331,40.4524484 46.7766001,43.9659054 47.7175294,48.3411689 C47.9031819,49.2029754 48.2796328,49.230672 49.0107629,48.4989192 C50.9357689,46.5713949 52.8196067,44.6017235 54.7640092,42.695072 C55.9052373,41.5763693 56.4578403,40.2670015 56.4024217,39.326922 C56.326419,36.1787393 55.3906357,33.9770585 54.2220941,31.8480312 Z" id="Fill-3" fill="#A5F1F5" transform="translate(44.245268, 28.420781) scale(-1, 1) rotate(-116.000000) translate(-44.245268, -28.420781) "></path>
                        <path d="M34.3684996,38.3242944 C30.0042819,30.3725541 24.478252,23.1156377 20.7034511,14.8122707 C20.4414001,14.2362613 20.036844,14.1736428 19.5634105,14.4787071 C19.1715216,14.7315893 18.7895288,15.0181891 18.4589962,15.3473374 C16.9666515,16.8341241 15.528142,18.3775084 14.0057128,19.8313803 C12.4955549,21.2740131 11.9326599,23.0449913 12.3799675,25.0134584 C12.7726481,26.740684 13.2452899,28.5349434 14.1082373,30.050631 C16.6495777,34.5138012 19.3931961,38.8589596 22.075854,43.2386385 C24.3365386,46.9287116 26.9230056,50.4421686 27.8639349,54.8174321 C28.0495873,55.6792385 28.4260382,55.7069352 29.1571684,54.9751824 C31.0821744,53.047658 32.9660122,51.0779867 34.9104147,49.1713352 C36.0516428,48.0526325 36.6042458,46.7432647 36.5488272,45.8031851 C36.4728245,42.6550024 35.5370412,40.4533217 34.3684996,38.3242944 Z" id="Fill-3-Copy-2" fill="#A5F1F5" transform="translate(24.391674, 34.897045) scale(-1, 1) rotate(-116.000000) translate(-24.391674, -34.897045) "></path>
                    </g>
                    <g id="left-squiggle" transform="translate(49.474922, 51.970611) rotate(15.000000) translate(-49.474922, -51.970611) translate(26.474922, 8.470611)">
                        <g id="Group-9" transform="translate(22.322944, 58.231473) rotate(-41.000000) translate(-22.322944, -58.231473) translate(9.822944, 46.731473)">
                            <mask id="mask-4" fill="white">
                                <use xlink:href="#path-3"></use>
                            </mask>
                            <g id="Clip-8"></g>
                        </g>
                        <path d="M11.5542063,24.5473891 C9.25211118,24.4846307 9.14492879,25.0916101 10.0821235,26.8918051 C11.754633,30.1059321 13.5873939,33.234887 15.3781579,36.3847614 C15.5527767,36.6922028 15.8648066,36.9622881 16.174626,37.1408507 C20.313166,39.5279116 24.4343914,41.948593 28.6237697,44.2411427 C30.2443356,45.1276052 32.9800155,46.0611003 34.8864553,45.838831 C36.4429206,45.6576534 35.6457307,44.9875195 35.110454,43.5048521 C33.9245932,40.2223633 32.2001402,37.2293849 30.2797014,34.3522108 C29.7897372,33.617788 29.1409951,32.8900893 28.3983125,32.4485391 C24.7548943,30.2815063 21.0698476,28.1850766 17.3685915,26.1207733 C15.6669789,25.1715524 12.9364041,23.4089183 11.2185821,23.2893785 L10.0821235,24.547389" id="Fill-10" fill="#A5F1F5" transform="translate(22.662926, 34.580714) rotate(-41.000000) translate(-22.662926, -34.580714) "></path>
                        <path d="M8.25241019,50.1657988 C9.92491965,53.3799258 11.7576806,56.5088806 13.5484445,59.658755 C13.7230634,59.9661965 14.0350932,60.2362818 14.3449127,60.4148444 C18.4834526,62.8019052 22.604678,65.2225866 26.7940564,67.5151363 C28.4146223,68.4015988 30.2068598,68.9832348 32.1132996,68.7609654 C33.6697649,68.5797879 33.8160173,68.2615131 33.2807406,66.7788457 C32.0948799,63.4963569 30.3704268,60.5033786 28.4499881,57.6262044 C27.9600239,56.8917816 27.3112818,56.164083 26.5685991,55.7225327 C22.925181,53.5554999 16.2808465,46.3078383 12.5795904,44.243535" id="Fill-10-Copy-3" fill="#A5F1F5" transform="translate(20.907131, 56.526001) rotate(-41.000000) translate(-20.907131, -56.526001) "></path>
                        <path d="M19.1866792,3.21225077 C17.473278,4.93997478 15.8425791,7.4186211 14.085339,9.09890274 C12.5900271,10.5288979 12.1387443,12.2371967 12.5185586,14.2040003 C12.7108604,15.20029 12.900215,16.2436486 13.3467087,17.1334731 C14.4401025,19.31246 15.6860116,21.4126252 16.8641361,23.5482789 C20.1822622,29.5641205 24.685144,34.8821484 27.0977573,41.4314364 C27.3316876,42.0661182 27.7151859,42.0717216 28.165732,41.6301714 C29.9749156,39.8579935 31.8021506,38.1044937 33.5884939,36.309155 C34.7691972,35.1227223 35.1692732,33.6262331 34.9102921,31.9911525 C34.7463567,30.9560123 34.5614229,29.8831424 34.1396116,28.940272 C33.4219797,27.3358235 32.5669369,25.7862885 31.6691604,24.2752304 C29.4525327,20.5444673 27.2609559,16.7939053 24.9017597,13.1565326 C23.0417377,10.2886975 21.4359075,7.33830528 20.5742336,4.00351777 C20.5093962,3.75248415 20.3294373,3.05380982 20.1352936,2.6122596" id="Fill-1" fill="#00DAE5" transform="translate(23.688266, 22.275154) rotate(-41.000000) translate(-23.688266, -22.275154) "></path>
                        <path d="M31.6450053,48.667622 C27.5834598,41.2673598 22.4406774,34.5137333 18.9276707,26.7862309 C18.6837938,26.2501695 18.307295,26.1918938 17.8666956,26.4758009 C17.5019853,26.7111449 17.146485,26.9778682 16.8388759,27.284189 C15.4500299,28.6678624 14.1112855,30.1042081 12.6944416,31.4572495 C11.2890179,32.7998311 10.7651614,34.4479864 11.1814468,36.2799342 C11.5468938,37.8873713 11.9867565,39.5571932 12.7898557,40.9677631 C15.1549462,45.1213984 17.7082861,49.1652065 20.2048933,53.2411409 C22.3087923,56.6752959 24.7158797,59.9450836 25.5915526,64.0169088 C25.7643294,64.8189463 26.1146723,64.8447221 26.7950963,64.1637187 C28.5865971,62.3698742 30.3397848,60.5368057 32.1493369,58.7623865 C33.2114173,57.7212693 33.7256955,56.5027103 33.6741203,55.6278282 C33.6033886,52.6979818 32.7325049,50.6489945 31.6450053,48.667622 Z" id="Fill-3" fill="#00DAE5" transform="translate(22.360103, 45.478063) rotate(-41.000000) translate(-22.360103, -45.478063) "></path>
                        <path d="M30.6238426,68.1314455 C26.562297,60.7311833 21.4195146,53.9775569 17.906508,46.2500544 C17.662631,45.713993 17.2861322,45.6557173 16.8455328,45.9396244 C16.4808226,46.1749685 16.1253222,46.4416917 15.8177131,46.7480125 C14.4288672,48.1316859 13.0901228,49.5680316 11.6732789,50.921073 C10.2678552,52.2636546 9.7439987,53.91181 10.1602841,55.7437577 C10.5257311,57.3511948 10.9655937,59.0210167 11.768693,60.4315866 C14.1337834,64.5852219 16.6871233,68.62903 19.1837305,72.7049644 C21.2876295,76.1391194 23.6947169,79.4089071 24.5703898,83.4807324 C24.7431667,84.2827699 25.0935095,84.3085457 25.7739335,83.6275422 C27.5654343,81.8336977 29.3186221,80.0006293 31.1281742,78.22621 C32.1902545,77.1850929 32.7045328,75.9665338 32.6529576,75.0916517 C32.5822259,72.1618054 31.7113421,70.1128181 30.6238426,68.1314455 Z" id="Fill-3-Copy-2" fill="#00DAE5" transform="translate(21.338941, 64.941886) rotate(-41.000000) translate(-21.338941, -64.941886) "></path>
                    </g>
                </g>
            </g>
        </g>
    </g>
</svg>