<svg xmlns="http://www.w3.org/2000/svg" viewBox="0 0 1080 480"><defs><style>.cls-1{fill:none;}.cls-2{fill:#fff;}</style></defs><title>Gist_h_white</title><g id="Bkg"><rect class="cls-1" width="1080" height="480"/></g><g id="Logo"><path class="cls-2" d="M663.39,191.47l-27.74,13.95c-2-3-3.72-6-5.81-8.76-12.15-15.91-28.74-22.44-48.26-22.08-47.83.88-76.2,54-53.2,96.9,9,16.75,22.75,27.74,41.44,31.76,32.72,7,60.17-11.29,67.1-38.36.4-1.57.7-3.18,1.15-5.24H578.64V232.25h93.24c-.4,8.41-.28,16.79-1.29,25-2.25,18.29-9.3,34.61-21.69,48.44A82.7,82.7,0,0,1,598.82,333c-26.92,4.21-51.61-1.56-73.39-18.14-19.49-14.83-31.53-34.54-35.53-58.66-5.19-31.35,2.86-59.21,25-82.14,23-23.81,51.38-33.36,84.19-28.17,27.41,4.34,48.52,18.46,62.68,42.55C662.32,189.34,662.78,190.3,663.39,191.47Z"/><path class="cls-2" d="M830.17,241.46c-3.49-4.18-6.26-8.29-9.81-11.57-6-5.53-13.21-6.32-20.74-3.59-4.12,1.49-7.1,4.32-7.68,8.92a10.43,10.43,0,0,0,5.3,10.81,74.52,74.52,0,0,0,11.19,5.21c8.41,3.28,17.14,5.82,25.3,9.61,13.43,6.24,21.28,16.84,21.34,32.07s-6.63,27-19.88,34.45C813.88,339.39,781,337,764.29,313c-2.39-3.43-4.14-7.31-6.33-11.24l24.41-12.67c2.4,3.59,4.42,7.2,7,10.33a24.9,24.9,0,0,0,29,6.94,11.57,11.57,0,0,0,7.39-11c.12-4.94-2-8.85-6.57-10.74-6.42-2.66-13.12-4.63-19.57-7.22-6.84-2.74-13.95-5.16-20.21-8.93-22.38-13.47-21-45-1.69-59.36,9.59-7.13,20.44-9.85,32.29-9.17,13.64.78,25.49,5.61,34.81,15.7,3.49,3.78,6.17,8.31,9.46,12.82Z"/><path class="cls-2" d="M917.55,202.88h33.88v25.57H917.87c-.09,1.37-.2,2.32-.2,3.27q0,26.67,0,53.33c0,1.2.06,2.4.17,3.59,1.11,12.83,7.86,18.65,20.76,17.83a38,38,0,0,0,6.78-1,58.44,58.44,0,0,0,6.32-2.36c0,8.47.07,16.74-.11,25,0,.88-1.33,2.13-2.32,2.53a51.9,51.9,0,0,1-29.52,2.79c-20.31-3.69-31.53-17.25-32-39.54-.45-20.38-.14-40.79-.17-61.18,0-1.28,0-2.56,0-4.1H868.74V203h18.73V165.12h30.09Z"/><path class="cls-2" d="M701.76,331V203.16h30.16V331Z"/><path class="cls-2" d="M698.14,165.2a18.63,18.63,0,0,1,18.75-18.58,18.85,18.85,0,0,1,18.6,18.84,18.68,18.68,0,0,1-37.35-.26Z"/><path class="cls-2" d="M277.73,237.9V90.56a143.54,143.54,0,0,0-73.67,19.74Z"/><path class="cls-2" d="M203.09,110.87a143.54,143.54,0,0,0-53.93,53.93l127.59,73.67Z"/><path class="cls-2" d="M148.6,165.77a143.54,143.54,0,0,0-19.74,73.67H276.19Z"/><path class="cls-2" d="M128.86,240.56a143.54,143.54,0,0,0,19.74,73.67l127.59-73.67Z"/><path class="cls-2" d="M149.17,315.21a143.55,143.55,0,0,0,53.93,53.93l73.67-127.59Z"/><path class="cls-2" d="M277.73,389.44V242.1L204.07,369.7A143.54,143.54,0,0,0,277.73,389.44Z"/><path class="cls-2" d="M278.86,389.44a143.55,143.55,0,0,0,73.67-19.74L278.86,242.1Z"/><path class="cls-2" d="M353.5,369.13a143.55,143.55,0,0,0,53.93-53.93L279.84,241.54Z"/><path class="cls-2" d="M280.4,240.56,408,314.23a143.55,143.55,0,0,0,19.74-73.67Z"/><path class="cls-2" d="M407.43,164.79a143.54,143.54,0,0,0-53.93-53.93L279.84,238.46Z"/><path class="cls-2" d="M278.86,90.56V237.9L352.53,110.3A143.54,143.54,0,0,0,278.86,90.56Z"/></g></svg>