<svg xmlns="http://www.w3.org/2000/svg" viewBox="0 0 420 420"><defs><style>.cls-1{fill:none;}</style></defs><title>Gist_s_bw</title><g id="Bkg"><rect class="cls-1" width="420" height="420"/></g><g id="Logo"><path d="M209.44,207.9V60.56A143.54,143.54,0,0,0,135.77,80.3Z"/><path d="M134.79,80.87a143.54,143.54,0,0,0-53.93,53.93l127.59,73.67Z"/><path d="M80.3,135.77a143.54,143.54,0,0,0-19.74,73.67H207.9Z"/><path d="M60.56,210.56A143.54,143.54,0,0,0,80.3,284.23L207.9,210.56Z"/><path d="M80.87,285.21a143.55,143.55,0,0,0,53.93,53.93l73.67-127.59Z"/><path d="M209.44,359.44V212.1L135.77,339.7A143.54,143.54,0,0,0,209.44,359.44Z"/><path d="M210.56,359.44a143.55,143.55,0,0,0,73.67-19.74L210.56,212.1Z"/><path d="M285.21,339.13a143.55,143.55,0,0,0,53.93-53.93L211.54,211.54Z"/><path d="M212.1,210.56,339.7,284.23a143.55,143.55,0,0,0,19.74-73.67Z"/><path d="M339.13,134.79a143.54,143.54,0,0,0-53.93-53.93L211.54,208.46Z"/><path d="M210.56,60.56V207.9L284.23,80.3A143.54,143.54,0,0,0,210.56,60.56Z"/></g></svg>