<svg id="Layer_1" data-name="Layer 1" xmlns="http://www.w3.org/2000/svg" viewBox="0 0 288 144"><defs><style>.cls-1{fill:#081769;}.cls-2{fill:#003b94;}.cls-3{fill:#0099bf;}.cls-4{fill:#00b5ab;}.cls-5{fill:#00d18c;}.cls-6{fill:#21eb63;}.cls-7{fill:#b0fc38;}.cls-8{fill:#005cb5;}.cls-9{fill:#007ac4;}</style></defs><title>Gist 1 H Color</title><path d="M192.78,62a16.22,16.22,0,0,0-15-9c-10.06,0-18,8.43-18,18.83s7.82,18.77,18.09,18.77c8.77,0,15.09-6,16.12-14.35H176.73V70.54h23.66v2.31c0,13.26-9,23.53-22.57,23.53a24.58,24.58,0,0,1,.07-49.16,22.59,22.59,0,0,1,20.26,12Z"/><path d="M212.09,56.74A3.94,3.94,0,1,1,216,52.79,3.95,3.95,0,0,1,212.09,56.74ZM215,62.59v33h-5.85v-33Z"/><path d="M227.93,85.43a7.65,7.65,0,0,0,7.34,5.85c2.79,0,5.51-1.7,5.51-4.62,0-2.24-1.5-3.67-4.69-4.76l-3.67-1.22c-5.92-2-8.5-5.17-8.5-9.38,0-5.58,4.62-9.45,10.74-9.45a11.57,11.57,0,0,1,11.29,8l-5.1,2c-1.16-3.2-3.4-5-6.32-5-2.72,0-4.83,1.63-4.83,4,0,2,1.5,3.47,4.83,4.62l3.4,1.16c6,2,8.63,5.3,8.63,9.65,0,5.85-5,10.06-11.42,10.06-6.12,0-10.88-3.54-12.37-9Z"/><path d="M261.59,52.66v9.93h9.25v5.24h-9.25V85.3c0,3.88,1.7,5.64,5.51,5.64a7,7,0,0,0,3.74-1v5.44a11,11,0,0,1-5.1,1c-6.25,0-10-3.88-10-10.27V67.82h-5.1V62.59h5.1V52.66Z"/><path class="cls-1" d="M126,72a54,54,0,0,1-15.82,38.18L72,72Z"/><path class="cls-2" d="M110.18,110.18A54,54,0,0,1,67.29,125.8L72,72Z"/><path class="cls-3" d="M21.26,53.53a54,54,0,0,1,9.38-16.24L72,72Z"/><path class="cls-4" d="M30.63,37.29a54,54,0,0,1,22.9-16L72,72Z"/><path class="cls-5" d="M53.53,21.26a54,54,0,0,1,23.18-3.05L72,72Z"/><path class="cls-6" d="M76.71,18.21a54,54,0,0,1,18.12,4.85L72,72Z"/><path class="cls-7" d="M72,72l48.93-22.82A54,54,0,0,0,94.82,23.06L72,72h0Z"/><path class="cls-8" d="M23.07,94.82a54,54,0,0,0,44.23,31L72,72h0Z"/><path class="cls-9" d="M72,72h0L21.26,53.53a54,54,0,0,0,0,36.94h0q.81,2.23,1.8,4.35L72,72h0Z"/></svg>