<svg id="Layer_1" data-name="Layer 1" xmlns="http://www.w3.org/2000/svg" viewBox="0 0 180 252"><defs><style>.cls-1{fill:#081769;}.cls-2{fill:#003b94;}.cls-3{fill:#0099bf;}.cls-4{fill:#00b5ab;}.cls-5{fill:#00d18c;}.cls-6{fill:#21eb63;}.cls-7{fill:#b0fc38;}.cls-8{fill:#005cb5;}.cls-9{fill:#007ac4;}</style></defs><title>Gist 1 V Color</title><path d="M71.16,196.77a16.22,16.22,0,0,0-15-9c-10.06,0-18,8.43-18,18.83S46,225.4,56.27,225.4c8.77,0,15.09-6,16.11-14.35H55.12v-5.71H78.78v2.31c0,13.26-9,23.53-22.57,23.53A24.58,24.58,0,0,1,56.27,182a22.59,22.59,0,0,1,20.26,12Z"/><path d="M90.48,191.54a3.94,3.94,0,1,1,3.94-3.94A3.95,3.95,0,0,1,90.48,191.54Zm2.92,5.85v33H87.55v-33Z"/><path d="M106.32,220.23a7.65,7.65,0,0,0,7.34,5.85c2.79,0,5.51-1.7,5.51-4.62,0-2.24-1.5-3.67-4.69-4.76l-3.67-1.22c-5.92-2-8.5-5.17-8.5-9.38,0-5.58,4.62-9.45,10.74-9.45a11.57,11.57,0,0,1,11.29,8l-5.1,2c-1.16-3.2-3.4-5-6.32-5-2.72,0-4.83,1.63-4.83,4,0,2,1.5,3.47,4.83,4.62l3.4,1.16c6,2,8.64,5.3,8.64,9.65,0,5.85-5,10.06-11.42,10.06-6.12,0-10.88-3.54-12.37-9Z"/><path d="M140,187.46v9.93h9.25v5.24H140v17.47c0,3.88,1.7,5.64,5.51,5.64a7,7,0,0,0,3.74-1v5.44a11,11,0,0,1-5.1,1c-6.25,0-10-3.88-10-10.27V202.62H129v-5.24h5.1v-9.93Z"/><path class="cls-1" d="M162,90a72,72,0,0,1-21.09,50.91L90,90Z"/><path class="cls-2" d="M140.91,140.91a72,72,0,0,1-57.19,20.81L90,90Z"/><path class="cls-3" d="M22.34,65.37a72,72,0,0,1,12.5-21.66L90,90Z"/><path class="cls-4" d="M34.84,43.72A72,72,0,0,1,65.37,22.34L90,90Z"/><path class="cls-5" d="M65.37,22.34a72,72,0,0,1,30.9-4.07L90,90Z"/><path class="cls-6" d="M96.27,18.27a72,72,0,0,1,24.15,6.47L90,90Z"/><path class="cls-7" d="M90,90l65.24-30.42a72,72,0,0,0-34.81-34.83L90,90h0Z"/><path class="cls-8" d="M24.75,120.42a72,72,0,0,0,59,41.3L90,90h0Z"/><path class="cls-9" d="M90,90h0L22.34,65.37a72,72,0,0,0,0,49.25h0q1.08,3,2.4,5.8L90,90h0Z"/></svg>
