<?xml version="1.0" encoding="utf-8"?>
<!-- Generator: Adobe Illustrator 20.0.0, SVG Export Plug-In . SVG Version: 6.00 Build 0)  -->
<svg version="1.1" id="Layer_1" xmlns="http://www.w3.org/2000/svg" xmlns:xlink="http://www.w3.org/1999/xlink" x="0px" y="0px"
	 width="120.6px" height="110.7px" viewBox="0 0 120.6 110.7" style="enable-background:new 0 0 120.6 110.7;" xml:space="preserve"
	>
<style type="text/css">
	.st0{fill:#231F20;}
</style>
<g id="logo">
	<path class="st0" d="M55.7,24h11.2l2.2,6h8.2L65.5,0h-8.2L45.6,30h8L55.7,24z M61.3,9.3l3.2,8.7h-6.3L61.3,9.3z"/>
	<path class="st0" d="M46.9,59.1c3.8-1.4,6.1-4.3,6.1-9C53,43.5,48.4,40,41.8,40H28.4v30h8V60h2.4l6.4,10h8.9L46.9,59.1z M41,54
		h-4.6v-8H41c2.9,0,4.2,1.8,4.2,4S43.8,54,41,54z"/>
	<path class="st0" d="M91.6,59.1c3.8-1.4,6.1-4.3,6.1-9c0-6.7-4.6-10.2-11.2-10.2H72.4v30h8V60h3.1l6.4,10h8.9L91.6,59.1z M85.7,54
		h-5.3v-8h5.3c2.9,0,4.2,1.8,4.2,4S88.5,54,85.7,54z"/>
	<path class="st0" d="M11.7,80L0,110h8l2.2-6h11.2l2.2,6h8.2L19.9,80H11.7z M12.6,98l3.1-8.7l3.2,8.7H12.6z"/>
	<polygon class="st0" points="62.6,92 56.1,80 47.4,80 58.4,99.4 58.4,110 66.4,110 66.4,99.4 77.5,80 69,80 	"/>
	<path class="st0" d="M112.5,92l-6-1.4c-1.6-0.3-2.6-1.1-2.6-2.5c0-1.7,1.6-2.9,3.9-2.9c2.7,0,4.1,1.8,4.7,2.8h7.9
		c-0.9-5-5.1-9.2-12.6-9.2c-6.8,0-11.8,4.1-11.8,10.1c0,5.2,3.4,7.6,7.9,8.6l5.9,1.3c2,0.5,2.9,1.1,2.9,2.6c0,1.9-1.7,2.9-4.2,2.9
		c-2.5,0-4.3-1.2-5-3.2h-8.4c1.1,6,6.1,9.7,13.5,9.7c6.7,0,12-3.6,12-9.9C120.6,96.1,117.7,93.3,112.5,92z"/>
</g>
</svg>
