<svg id="Layer_1" data-name="Layer 1" xmlns="http://www.w3.org/2000/svg" xmlns:xlink="http://www.w3.org/1999/xlink" viewBox="0 0 111.8 145.28"><defs><style>.cls-1{fill:none;}.cls-2{clip-path:url(#clip-path);}.cls-3{clip-path:url(#clip-path-2);}.cls-4{fill:#8000b4;}.cls-5{fill:#ff6e00;}.cls-6{fill:#00c828;}.cls-7{fill:#00c8ff;}.cls-8{fill:#fff;}</style><clipPath id="clip-path" transform="translate(54.52 87.81)"><circle class="cls-1" cx="16" cy="16.17" r="15"/></clipPath><clipPath id="clip-path-2" transform="translate(54.52 87.81)"><rect class="cls-1" x="1" y="1.17" width="30" height="30"/></clipPath></defs><title>logo-light</title><circle cx="70.52" cy="103.81" r="14.5"/><g class="cls-2"><g class="cls-3"><path class="cls-4" d="M2.15,24a19.36,19.36,0,0,1,0-38.72A19.36,19.36,0,1,1,2.15,24Zm0-36.92a17.56,17.56,0,1,0,0,35.12,17.56,17.56,0,1,0,0-35.12Z" transform="translate(54.52 87.81)"/><path class="cls-5" d="M1.38,24a56,56,0,0,1-55.9-55.9,56,56,0,0,1,55.9-55.9,56,56,0,0,1,55.9,55.9A56,56,0,0,1,1.38,24Zm0-110a54.16,54.16,0,0,0-54.1,54.1,54.16,54.16,0,0,0,54.1,54.1,54.16,54.16,0,0,0,54.1-54.1A54.16,54.16,0,0,0,1.38-86Z" transform="translate(54.52 87.81)"/><path class="cls-6" d="M3.2,57.47a17.65,17.65,0,0,1,0-35.3,17.65,17.65,0,0,1,0,35.3ZM3.2,24a15.85,15.85,0,1,0,0,31.7A15.85,15.85,0,1,0,3.2,24Z" transform="translate(54.52 87.81)"/><path class="cls-7" d="M23.73,17.5A14.54,14.54,0,0,1,9.18,3a14.55,14.55,0,0,1,29.1,0A14.54,14.54,0,0,1,23.73,17.5Zm0-27.2A12.74,12.74,0,0,0,11,3a12.75,12.75,0,0,0,25.5,0A12.74,12.74,0,0,0,23.73-9.71Z" transform="translate(54.52 87.81)"/></g></g><path class="cls-8" d="M16,32A16,16,0,1,1,32,16,16,16,0,0,1,16,32ZM16,2A14,14,0,1,0,30,16,14,14,0,0,0,16,2Z" transform="translate(54.52 87.81)"/></svg>
