<?xml version="1.0" standalone="no"?>
<!DOCTYPE svg PUBLIC "-//W3C//DTD SVG 1.1//EN" "http://www.w3.org/Graphics/SVG/1.1/DTD/svg11.dtd">
<svg xmlns="http://www.w3.org/2000/svg">
<metadata>Copyright (C) 2019 by original authors @ fontello.com</metadata>
<defs>
<font id="fontello" horiz-adv-x="1000" >
<font-face font-family="fontello" font-weight="400" font-stretch="normal" units-per-em="1000" ascent="850" descent="-150" />
<missing-glyph horiz-adv-x="1000" />
<glyph glyph-name="pie-chart" unicode="&#xe800;" d="M917 350c0 216-165 394-375 415v2h-84v-2c-210-21-375-199-375-415s165-394 375-415v-2h84v2c210 21 375 199 375 415z m-190 244l-185-185v272c71-9 135-41 185-87z m-560-244c0 170 127 310 291 331v-661c-164 20-291 160-291 330z m375-330v271l238 239c34-52 53-114 53-180 0-170-127-310-291-330z" horiz-adv-x="1000" />

<glyph glyph-name="check-off" unicode="&#xe801;" d="M750 767h-500c-92 0-167-75-167-167v-500c0-92 75-167 167-167h500c92 0 167 75 167 167v500c0 92-75 167-167 167z m83-667c0-46-37-83-83-83h-500c-46 0-83 37-83 83v500c0 46 37 83 83 83h500c46 0 83-37 83-83v-500z" horiz-adv-x="1000" />

<glyph glyph-name="check-on" unicode="&#xe802;" d="M736 451l-59 59-236-236-118 118-59-59 177-177 295 295z m14 316h-500c-92 0-167-75-167-167v-500c0-92 75-167 167-167h500c92 0 167 75 167 167v500c0 92-75 167-167 167z m83-667c0-46-37-83-83-83h-500c-46 0-83 37-83 83v500c0 46 37 83 83 83h500c46 0 83-37 83-83v-500z" horiz-adv-x="1000" />

<glyph glyph-name="close-big" unicode="&#xe803;" d="M530 350l235-236-29-29-236 236-236-236-29 29 236 236-236 236 29 29 236-235 236 235 29-29-235-236z" horiz-adv-x="1000" />

<glyph glyph-name="close-filterpill" unicode="&#xe804;" d="M530 350l196-196-30-30-196 197-196-197-30 30 197 196-197 196 30 30 196-196 196 196 30-30-196-196z" horiz-adv-x="1000" />

<glyph glyph-name="expand" unicode="&#xe805;" d="M458 392h-208v-84h208v-208h84v208h208v84h-208v208h-84v-208z" horiz-adv-x="1000" />

<glyph glyph-name="filter" unicode="&#xe806;" d="M583 442l292 325h-750l292-325v-509h166v509z" horiz-adv-x="1000" />

<glyph glyph-name="circle-check-on" unicode="&#xe807;" d="M500 710c-199 0-360-161-360-360s161-360 360-360 360 161 360 360-161 360-360 360z m-61-531l-138 138 43 43 96-97 210 207 42-43-253-248z" horiz-adv-x="1000" />

<glyph glyph-name="gallery" unicode="&#xe808;" d="M125 725h333v-333h-333v333z m0-417h333v-333h-333v333z m417 417h333v-333h-333v333z m0-417h333v-333h-333v333z" horiz-adv-x="1000" />

<glyph glyph-name="menu" unicode="&#xe809;" d="M125 642h750v-84h-750v84z m0-250h750v-84h-750v84z m0-250h750v-84h-750v84z" horiz-adv-x="1000" />

<glyph glyph-name="back" unicode="&#xe80d;" d="M667 725v-750l-417 375 417 375z" horiz-adv-x="1000" />

<glyph glyph-name="globe" unicode="&#xe80e;" d="M500 808c-254 0-458-204-458-458s204-458 458-458 458 204 458 458-204 458-458 458z m338-291h-100c-21 66-59 129-105 183 88-33 159-100 205-183z m-296 158c46-46 83-100 108-158h-108v158z m0-242h129c4-29 8-54 8-83 0-33-4-67-12-96h-125v179z m-184-262h100v-146c-41 42-79 92-100 146z m-37 179c0 29 4 54 8 83h129v-179h-129c-4 29-8 63-8 96z m137 325v-158h-108c25 58 63 112 108 158z m-91 25c-46-54-84-117-104-183h-100c45 83 116 150 204 183z m-242-350c0 29 4 58 8 83h109c-4-29-9-54-9-83 0-33 5-67 9-96h-104c-9 29-13 63-13 96z m46-179h96c21-63 54-117 100-171-84 33-154 92-196 171z m371 0h100c-25-54-59-104-100-146v146z m91-171c42 50 75 108 100 171h96c-41-79-112-138-196-171z m121 254c4 34 9 63 9 96 0 29-5 54-9 83h109c4-25 8-54 8-83 0-33-4-67-13-96h-104z" horiz-adv-x="1000" />

<glyph glyph-name="scatterplot" unicode="&#xe80f;" d="M875 58v-83h-667-83v83 667h83v-667h667z m-583 167c0-46 37-83 83-83s83 37 83 83-37 83-83 83-83-37-83-83z m166 333c0-45 38-83 84-83s83 38 83 83-37 84-83 84-84-38-84-84z m167-250c0-45 38-83 83-83s84 38 84 83-38 84-84 84-83-38-83-84z" horiz-adv-x="1000" />

<glyph glyph-name="facebook" unicode="&#xe810;" d="M379 600v-121h-87v-146h87v-400h179v400h121c0 0 13 71 17 146h-138v100c0 17 21 34 38 34h96v154h-134c-183 0-179-146-179-167" horiz-adv-x="1000" />

<glyph glyph-name="twitter" unicode="&#xe811;" d="M929 642c-33-13-66-25-104-29 38 20 67 58 79 100-33-21-75-38-116-46-34 37-80 58-134 58-100 0-183-83-183-183 0-13 0-29 4-42-150 8-283 79-375 192-12-25-21-59-21-92 0-62 34-117 79-150-29 0-58 8-83 21v-4c0-88 63-163 146-179-17-5-33-9-46-9-12 0-25 0-33 4 25-70 91-125 171-125-63-45-142-75-230-75-16 0-29 0-41 5 79-50 175-84 279-84 333 0 517 275 517 517 0 8 0 17 0 25 33 25 66 58 91 96" horiz-adv-x="1000" />

<glyph glyph-name="instagram" unicode="&#xe812;" d="M821 413h-71c4-21 8-42 8-63 0-142-116-258-258-258s-258 116-258 258c0 21 4 42 8 63h-71v-355c0-16 13-33 34-33h575c16 0 33 13 33 33 0 0 0 355 0 355z m0 225c0 16-13 33-33 33h-96c-17 0-34-13-34-33v-96c0-17 13-34 34-34h96c16 0 33 13 33 34v96z m-321-130c-87 0-158-70-158-158s71-158 158-158 158 71 158 158-70 158-158 158m321-575h-642c-54 0-96 42-96 96v642c0 54 42 96 96 96h642c54 0 96-42 96-96v-642c0-54-42-96-96-96" horiz-adv-x="1000" />

<glyph glyph-name="tile-blank" unicode="&#xe813;" d="M917 350c0 229-188 417-417 417s-417-188-417-417 188-417 417-417 417 188 417 417z m-25 0c0-217-175-392-392-392s-392 175-392 392 175 392 392 392 392-175 392-392z" horiz-adv-x="1000" />

<glyph glyph-name="tile-null" unicode="&#xe814;" d="M917 350c0 229-188 417-417 417s-417-188-417-417 188-417 417-417 417 188 417 417z m-25 0c0-217-175-392-392-392s-392 175-392 392 175 392 392 392 392-175 392-392z m-204 171l-359-358-16 16 358 359 17-17z" horiz-adv-x="1000" />

<glyph glyph-name="tile-deceased" unicode="&#xe815;" d="M500-67c-229 0-417 188-417 417s188 417 417 417 417-188 417-417-188-417-417-417z m0 809c-217 0-392-175-392-392s175-392 392-392 392 175 392 392-175 392-392 392z m-125-517h250v225c0 71-58 125-125 125s-125-58-125-125v-225z m313-25h-375v-25h379v25z" horiz-adv-x="1000" />

<glyph glyph-name="tile-female" unicode="&#xe816;" d="M663 450c0 92-75 163-163 163s-162-71-162-163c0-87 66-158 150-162v-75h-88v-25h88v-88h25v88h87v25h-87v75c83 8 150 79 150 162z m-300 0c0 75 62 138 137 138 75 0 138-63 138-138 0-75-63-137-138-137-75 0-137 62-137 137z m554-100c0 229-188 417-417 417s-417-188-417-417 188-417 417-417 417 188 417 417z m-25 0c0-217-175-392-392-392s-392 175-392 392 175 392 392 392 392-175 392-392z" horiz-adv-x="1000" />

<glyph glyph-name="tile-male" unicode="&#xe817;" d="M550 563v-25h121l-113-113c-29 25-66 42-104 42-46 0-83-17-116-50-63-63-63-167 0-234 33-33 75-50 116-50s84 17 117 50c29 30 50 71 50 117 0 38-13 75-42 108l113 113v-121h25v163h-167z m0-359c-25-25-62-41-100-41s-71 12-100 41c-25 25-42 63-42 100 0 38 13 71 42 100 25 25 63 42 100 42s71-13 100-42c25-25 42-62 42-100 0-41-17-75-42-100z m-50-271c-229 0-417 188-417 417 0 229 188 417 417 417s417-188 417-417c0-229-188-417-417-417z m0 809c-217 0-392-175-392-392s175-392 392-392 392 175 392 392-175 392-392 392z" horiz-adv-x="1000" />

<glyph glyph-name="word-cloud" unicode="&#xe819;" d="M904 167c-12-29-50-46-91-46-46 0-92 21-92 62 0 46 46 63 92 63 41 0 79-17 91-46v-33z m96-121v292c0 100-67 162-179 162-92 0-163-58-175-133h96c12 29 37 50 75 50 58 0 83-34 83-79v-38c-17 13-62 25-104 25-96 0-171-58-171-142 0-91 75-145 167-145 50 0 96 16 108 33v-25h100z m-712 487l83-225h-167l84 225z m-50 130l-238-617h104l63 171h233l63-171h104l-229 617h-100z" horiz-adv-x="1000" />

<glyph glyph-name="line-graph" unicode="&#xe81a;" d="M875 58v-83h-750v750h83v-667h667z m-25 371l-17-54-291 79-209-216-41 41 237 238 0 0 321-88z" horiz-adv-x="1000" />

<glyph glyph-name="pie-set" unicode="&#xe81b;" d="M125 558c0 92 75 167 167 167 91 0 166-75 166-167 0-91-75-166-166-166-92 0-167 75-167 166z m167-583c91 0 166 75 166 167 0 91-75 166-166 166-92 0-167-75-167-166 0-92 75-167 167-167z m416 417c92 0 167 75 167 166 0 92-75 167-167 167-91 0-166-75-166-167 0-91 75-166 166-166z m0-417c92 0 167 75 167 167 0 91-75 166-167 166-91 0-166-75-166-166 0-92 75-167 166-167z" horiz-adv-x="1000" />

<glyph glyph-name="bar-chart" unicode="&#xe81c;" d="M875 58v-83h-750v750h83v-667h667z m-417 42h84v458h-84v-458z m-166 0h83v292h-83v-292z m333 0h83v167h-83v-167z" horiz-adv-x="1000" />

<glyph glyph-name="map" unicode="&#xe81f;" d="M500 767c-229 0-417-188-417-417s188-417 417-417 417 188 417 417-188 417-417 417l0 0z m0-750l83 83 42 42v83h-83v42l-42 41h-125v-125l83-83v-79c-162 21-291 162-291 329l41-42h84v84h83l125 125v83h-83l-42 42v16c38 17 79 25 125 25s88-8 125-25v-58l-42-42v-83l42-42 129 130c34-38 54-84 67-130h-71l-83-83v-83l41-42h84l12-12c-54-117-171-196-304-196l0 0z" horiz-adv-x="1000" />

<glyph glyph-name="regional-map" unicode="&#xe828;" d="M608 627l-63 23a226 226 0 0 1-450 0h0l-4 0 0 0-84-34h0l-7-3v-763l45 16 84 30 191 68h0l273-100a45 45 0 0 1 28 0l274 100v766z m-329-590l-115-42-82-29v591l18 7a650 650 0 0 1 179-264z m41 336c-56 57-144 164-144 250a144 144 0 1 0 288 0c0-86-88-193-144-250z m247-410l-206 74v263c39 37 147 150 177 266l29-10z m246 59l-163-57v585l145 57 18 6z" horiz-adv-x="896" />

<glyph glyph-name="circle-check-off" unicode="&#xe829;" d="M500 670c176 0 320-144 320-320s-144-320-320-320-320 144-320 320 144 320 320 320m0 40c-199 0-360-161-360-360s161-360 360-360 360 161 360 360-161 360-360 360l0 0z" horiz-adv-x="1000" />

<glyph glyph-name="object-detail" unicode="&#xe82a;" d="M767-29h-559c-20 0-33 16-37 33 0 0 0 0 0 0v688c4 16 17 33 37 33 0 0 0 0 0 0h555c20 0 33-17 37-33 0 0 0 0 0 0v-684c0-21-12-37-33-37 0 0 0 0 0 0z m-521 71h483v612h-483v-612z m71 483h237v-71h-237v71z m-9-154h330v-71h-325l-5 71z m0-154h246v-71h-246v71z" horiz-adv-x="1000" />

<glyph glyph-name="treemap" unicode="&#xe82d;" d="M123 727h330v-754h-330v869z m377 0h377v-424h-377v539z m0-471h377v-283h-377v398z" horiz-adv-x="1000" />

<glyph glyph-name="accessibility" unicode="&#xe833;" d="M492 28a320 320 0 1 0 321 320 321 321 0 0 0-321-320z m0 597a278 278 0 1 1 278-277 278 278 0 0 1-278 277z m0-128a46 46 0 1 0 46 46 46 46 0 0 0-48-46z m194-119l-120 93a50 50 0 0 1-30 10h-91a50 50 0 0 1-31-10l-118-93a19 19 0 0 1 0-30 26 26 0 0 1 33 0l94 72s13 10 13-3 0-76 0-76a424 424 0 0 0-8-53c-4-20-20-103-29-146a25 25 0 0 1 23-29h0a29 29 0 0 1 34 21l28 146s0 13 8 13 7-13 7-13l28-146a29 29 0 0 1 34-21h0a25 25 0 0 1 22 29c-8 41-25 125-29 145a425 425 0 0 0-7 53s0 64-3 76 14 4 14 4l95-72a26 26 0 0 1 32 0 19 19 0 0 1 0 30z" horiz-adv-x="1000" />

<glyph glyph-name="bubble-chart" unicode="&#xe854;" d="M37 505a251 251 0 1 1 137 327 250 250 0 0 1-137-327z m446-264a156 156 0 1 1 86 203 156 156 0 0 1-86-203z m314 210a99 99 0 1 1 55 129 99 99 0 0 1-55-129z m-62-435h82v-164h-82z m-184 0h82v-164h-82z m-183 0h81v-164h-81z m-184 0h81v-164h-81z m-184-3h82v-163h-82z m919 0h82v-163h-82z" horiz-adv-x="1001" />

<glyph glyph-name="asterisk" unicode="&#xe866;" d="M859 279h-230l162-162-58-58-162 162v-229h-83v229l-162-162-59 58 163 162h-230v83h230l-163 162 59 59 162-163v230h83v-230l162 163 58-59-162-162h230v-83z" horiz-adv-x="1000" />

<glyph glyph-name="article" unicode="&#xe869;" d="M182 850v-773a43 43 0 0 0-46-45 43 43 0 0 0-45 45v364h-91v-364a136 136 0 0 1 136-136h637a136 136 0 0 1 136 136v773z m636-773a43 43 0 0 0-45-45h-509a136 136 0 0 1 9 45v682h545z m-454 500h363v-91h-363z m0-181h363v-91h-363z m0-182h363v-91h-363z" horiz-adv-x="1000" />

<glyph glyph-name="extend" unicode="&#xe86a;" d="M667 417l-100 103 228 227-102 103h307v-308l-103 103z m-334 0l100 103-228 227 102 103h-307v-308l103 103z m0-134l100-102-228-228 102-103h-307v308l103-102z m338 0l-104-102 228-228-102-103h307v308l-103-102z" horiz-adv-x="1000" />

<glyph glyph-name="area-chart" unicode="&#xe871;" d="M833 58v-83h-750v750h84v-667z m-74 81v174l-118 46-125-62-141 193-132-66v-285z" horiz-adv-x="1000" />

<glyph glyph-name="table" unicode="&#xe873;" d="M154 671v-642h692v642z m631-279h-260v99h260z m-259-51h259v-101h-260z m-51-101h-260v99h260z m0 253v-101h-260v99z m-260-306h260v-97h-260z m310-97v97h260v-97z" horiz-adv-x="1000" />

<glyph glyph-name="link-ext" unicode="&#xe874;" d="M620 671l72-71-20-20-161-160-27-29 58-57 28 27 161 161 19 20 71-72v201h-201z m-441-80v-562h562v321h-81v-241h-401v401h241v81z" horiz-adv-x="1000" />

<glyph glyph-name="legend" unicode="&#xe875;" d="M384 620h463v-77h-463z m0-232h463v-77h-463z m0-231h463v-77h-463z m-154 347a77 77 0 1 1-77 78 77 77 0 0 1 77-78z m0-231a77 77 0 1 1-77 77 77 77 0 0 1 77-77z m0-232a77 77 0 1 1-77 77 77 77 0 0 1 77-77z" horiz-adv-x="1000" />

<glyph glyph-name="search" unicode="&#xe876;" d="M840 64l-202 203a266 266 0 1 1-55-54l202-203z m-415 171a189 189 0 1 0 190 189 190 190 0 0 0-190-189z" horiz-adv-x="1000" />

<glyph glyph-name="sort-ascending" unicode="&#xe877;" d="M672 539h-344v95h344z m86-142h-516v-94h516z m-602-236v-95h688v95z" horiz-adv-x="1000" />

<glyph glyph-name="sort-descending" unicode="&#xe878;" d="M242 398h516v-95h-516z m86-332h344v95h-344z m-172 568v-95h688v95z" horiz-adv-x="1000" />

<glyph glyph-name="sort-left" unicode="&#xe879;" d="M216 670h95v-640h-95z m237-560h95v480h-95z m237 400v-320h94v320z" horiz-adv-x="1000" />

<glyph glyph-name="sort-right" unicode="&#xe87a;" d="M784 670v-640h-95v640z m-236-80v-480h-95v480z m-237-80v-320h-95v320z" horiz-adv-x="1000" />

<glyph glyph-name="pound" unicode="&#xe87b;" d="M700 482l48 166 0 5h-81l-50-173h-159l49 167 0 4h-83l-49-169h-121l-15-61 0-3h117l-37-135h-111l-16-65h109l-48-166 0-4h84l48 172h157l-48-167 0-4h84l47 169h120l15 61 0 4h-115l38 135h112l15 60 0 4z m-103-64l-37-135h-157l37 135z" horiz-adv-x="1000" />

<glyph glyph-name="percent" unicode="&#xe87c;" d="M468 520a132 132 0 1 1-264 0 132 132 0 0 1 264 0z m-192 0a60 60 0 0 0 60 60 61 61 0 0 0 61-60 60 60 0 0 0-61-60 60 60 0 0 0-60 60z m446 122l-352-584h-92l351 584z m-57-330a132 132 0 1 1 131-132 131 131 0 0 1-132 132z m0-192a61 61 0 0 0-61 60 60 60 0 0 0 61 60 60 60 0 0 0 60-60 60 60 0 0 0-61-60z" horiz-adv-x="1000" />

<glyph glyph-name="bars-h" unicode="&#xe87d;" d="M548 233v-75h-245v75z m-245 155v-75h394v75z m0 153v-74h147v74z m-53-441v570h-70v-640h640v70z" horiz-adv-x="1000" />

<glyph glyph-name="bars-v" unicode="&#xe87e;" d="M383 153h-75v245h75z m155 395h-75v-395h75z m153-248h-74v-147h74z m-441-200v570h-70v-640h640v70z" horiz-adv-x="1000" />

<glyph glyph-name="grouped-gallery" unicode="&#xe900;" d="M292 558l173 0 0-173-173 0 0 173z m0-243l173 0 0-173-173 0 0 173z m243 243l173 0 0-173-173 0 0 173z m0-243l173 0 0-173-173 0 0 173z m-327 327l0-584 584 0 0 584-584 0z m-83 83l750 0 0-750-750 0 0 750z" horiz-adv-x="1000" />
</font>
</defs>
</svg>
