<?xml version="1.0" encoding="UTF-8"?>
<svg width="85px" height="61px" viewBox="0 0 85 61" version="1.1" xmlns="http://www.w3.org/2000/svg" xmlns:xlink="http://www.w3.org/1999/xlink">
    <!-- Generator: Sketch 52.2 (67145) - http://www.bohemiancoding.com/sketch -->
    <title>api</title>
    <desc>Created with Sketch.</desc>
    <g id="Symbols" stroke="none" stroke-width="1" fill="none" fill-rule="evenodd">
        <g id="Icon-/-API-(Black)" transform="translate(2.000000, -9.000000)" fill-rule="nonzero">
            <g id="api" transform="translate(-2.000000, 0.000000)">
                <rect id="Rectangle" x="2" y="0" width="80" height="80"></rect>
                <path d="M84.0558793,52.3605544 C82.8308145,61.989885 74.6137305,69.1916012 64.9081481,69.1433333 L20.9796099,69.1433331 C11.1631644,69.1571008 2.76056684,62.1055871 1.07072924,52.4356729 C-0.609659553,42.8198284 4.83256595,33.388506 13.9786848,30.022386 C14.7340415,18.8354011 24.0425413,9.75 34.9066088,9.75000001 C41.5694093,9.74845688 47.8345428,12.9099795 51.791756,18.2640741 L56.0518519,18.2640741 C63.0489906,18.2640741 69.0827574,24.033289 69.8854241,31.3605523 C79.2012248,33.8080307 85.2737144,42.7880512 84.0558793,52.3605544 Z M64.7321136,65.1174075 C72.6078073,65.1256544 79.1875693,59.1213966 79.8982106,51.2778255 C80.6088519,43.4342544 75.2153671,36.3451994 67.4647132,34.9375086 C66.8660794,34.824443 66.3514662,34.4450248 66.0664533,33.9065882 L66.0374074,33.7896296 L66.0374074,33.6593651 C66.0374074,33.6015079 66.0374074,33.6015079 66.0571424,33.6795775 C66.0241477,33.6015381 65.998577,33.5205644 65.9782133,33.4239783 C65.9693188,33.3673523 65.9693188,33.3096848 65.9751852,33.2918519 L65.9751852,32.96 C65.9751852,27.2365625 61.3244012,22.2277778 56.0311111,22.2277778 L50.7412658,22.2277759 C50.0261029,22.2250399 49.3666784,21.8411284 49.0212319,21.236602 C45.8464478,16.5545803 40.5536588,13.7549936 34.8962963,13.7655556 C25.6736948,13.7655556 17.8796296,21.883972 17.8796296,31.4977778 L17.8796296,31.5426875 C17.8796296,31.586783 17.8796296,31.586783 17.8787249,31.5802315 C17.8849353,31.6530314 17.8849353,31.7262279 17.8611667,31.8720676 C17.837295,31.9306868 17.8094616,31.9875782 17.777872,32.0423513 C17.7766415,32.0879552 17.7711285,32.1436711 17.7580451,32.223218 L17.6842919,32.403573 L17.5887533,32.5801565 L17.4875919,32.7286238 L17.35011,32.8878878 L17.2376482,32.9984729 L17.0574397,33.1440672 L16.9221738,33.2354586 L16.7198575,33.3359544 L16.4992593,33.407037 L16.4549469,33.3971064 C8.71075473,35.6474904 3.80172293,43.2521005 4.93934433,51.2359942 C6.07696572,59.2198879 12.9146555,65.150713 20.9792593,65.1485185 L64.7293732,65.1485185 L64.7321136,65.1174075 Z M65.970553,44.2101271 L65.9996075,44.2101271 C66.8447169,44.2101271 67.5298134,44.9208397 67.5298134,45.7975481 C67.5298134,46.6742566 66.8447169,47.3849692 65.9996075,47.3849692 L59.6269779,47.3849692 C58.9174823,52.2179186 54.9063968,55.7851534 50.1939365,55.774188 L46.8817187,55.774188 C46.4742938,55.7796424 46.0820176,55.6141488 45.7939007,55.315259 C45.5057838,55.0163693 45.3462551,54.6094257 45.3515128,54.186767 L45.3515128,37.4083293 C45.3463324,36.9891777 45.5032194,36.5853403 45.7871195,36.2870491 C46.0710197,35.9887579 46.4582716,35.8208738 46.862349,35.8209083 L50.1939365,35.8209083 C54.9113356,35.8121117 58.9295499,39.3747134 59.6560325,44.2101271 L65.970553,44.2101271 Z M50.1067729,52.589299 C51.8478167,52.6083574 53.522771,51.8985939 54.7530318,50.6204423 C55.9832926,49.3422907 56.6649938,47.6036602 56.6440449,45.7975481 C56.6285961,42.0417136 53.7172004,38.9901846 50.0970881,38.9354686 L48.2569671,38.9354686 L48.2569671,52.589299 L50.1067729,52.589299 Z M40.9158527,43.1250545 L37.3711986,43.1250545 L37.3711986,48.3394312 L40.9545921,48.3394312 C41.7997015,48.3394312 42.484798,49.0501438 42.484798,49.9268523 C42.484798,50.8035607 41.7997015,51.5142733 40.9545921,51.5142733 L37.409938,51.5142733 L37.409938,54.1164382 C37.4151957,54.5390969 37.255667,54.9460405 36.9675501,55.2449303 C36.6794332,55.54382 36.287157,55.7093136 35.8797321,55.7038592 L32.5094052,55.7038592 C27.8061521,55.6985732 23.8054371,52.1448224 23.0763638,47.3246874 L16.7327887,47.3246874 C15.9321775,47.2586649 15.3149232,46.5654094 15.3149232,45.7322428 C15.3149232,44.8990763 15.9321775,44.2058208 16.7327887,44.1397983 L23.0763638,44.1397983 C23.7873947,39.3010517 27.8106135,35.7346345 32.5287749,35.7606265 L35.8409927,35.7606265 C36.2484176,35.7551721 36.6406938,35.9206657 36.9288107,36.2195554 C37.2169276,36.5184452 37.3764563,36.9253888 37.3711986,37.3480475 L37.3711986,39.9502124 L40.9158527,39.9502124 C41.7609621,39.9502124 42.4460586,40.660925 42.4460586,41.5376334 C42.4460586,42.4143419 41.7609621,43.1250545 40.9158527,43.1250545 Z M34.4270049,52.589299 L34.4270049,38.9957504 L32.5868839,38.9957504 C29.0663807,39.1361912 26.2821879,42.1376888 26.2821879,45.7925247 C26.2821879,49.4473605 29.0663807,52.4488581 32.5868839,52.589299 L34.4270049,52.589299 Z" id="Combined-Shape" fill="#333333"></path>
            </g>
        </g>
    </g>
</svg>