<?xml version="1.0" encoding="UTF-8"?>
<svg width="61px" height="65px" viewBox="0 0 61 65" version="1.1" xmlns="http://www.w3.org/2000/svg" xmlns:xlink="http://www.w3.org/1999/xlink">
    <!-- Generator: Sketch 52.2 (67145) - http://www.bohemiancoding.com/sketch -->
    <title>database</title>
    <desc>Created with Sketch.</desc>
    <g id="Symbols" stroke="none" stroke-width="1" fill="none" fill-rule="evenodd">
        <g id="Icon-/-Database-(Black)" transform="translate(-9.000000, -6.000000)" fill-rule="nonzero">
            <g id="database">
                <rect id="Rectangle" x="0" y="0" width="80" height="80"></rect>
                <path d="M69.9963188,18.9690476 C69.9963188,10.55 54.283476,6 39.4981594,6 C24.7128427,6 9,10.55 9,18.9690476 L9,58.0309524 C9,66.45 24.7128427,71 39.4981594,71 C54.283476,71 69.9963188,66.4603175 69.9963188,58.0309524 L69.9963188,19.7428571 C70.0012271,19.6535242 70.0012271,19.5639361 69.9963188,19.4746032 C69.9871354,19.2992063 69.9963188,19.134127 69.9963188,18.9690476 Z M66.9408362,45.5124922 C66.9408362,47.5300759 64.1916865,49.7695937 59.7014087,51.4643639 C54.4596967,53.4819475 47.4676927,54.4907393 40.0083333,54.4907393 C35.2197337,54.5211472 30.4402344,54.0277791 25.7402466,53.0179033 C16.9887868,51.0003197 13.0666667,47.8024496 13.0666667,45.4721406 L13.0666667,39.015873 C15.7058503,41.1040721 19.7562642,42.8089302 24.9796485,43.9892166 C29.9289316,45.0668487 34.9631945,45.6007655 40.0083333,45.5831077 C50.5192489,45.5831077 61.4975198,43.323414 66.95,39.0562247 L66.9408362,45.5124922 Z M66.9408362,32.6882188 C66.9408362,34.7937297 64.1916865,37.1413744 59.7014087,38.899476 C54.4596967,41.0049869 47.4676927,42.1103801 40.0083333,42.1103801 C35.2196354,42.1333488 30.440587,41.6150018 25.7402466,40.5628296 C16.9887868,38.4573187 13.0666667,35.1306114 13.0666667,32.6882188 L13.0666667,25.6031746 C18.5191468,30.0668577 29.4974178,32.4145024 40.0083333,32.4145024 C50.5192489,32.4145024 61.4975198,30.0563302 66.95,25.6031746 L66.9408362,32.6882188 Z M20.3152579,13.2395141 C25.55697,11.1644941 32.5489739,10.1269841 40.0083333,10.1269841 C56.6956718,10.1269841 66.95,15.5427862 66.95,19.4645739 C66.95,21.5395939 64.2008503,23.8532411 59.7105726,25.5858828 C54.4688605,27.6609027 47.4768566,28.6984127 40.0174972,28.6984127 C23.3209949,28.6361621 13.0666667,23.2307351 13.0666667,19.3608229 C13.0666667,17.3273034 15.8524717,14.9721557 20.3152579,13.2395141 Z M59.7172763,63.8039404 C54.4737808,65.8164489 47.4793978,66.8730159 40.0175003,66.8730159 C23.324484,66.8730159 13.0666667,61.6203687 13.0666667,57.8167276 L13.0666667,51.3968254 C15.6975814,53.4797717 19.7585403,55.1803414 24.9837019,56.3576589 C29.928298,57.432904 34.9585281,57.9621486 39.9991664,57.9374781 C50.5136583,57.9374781 61.4956646,55.6935311 66.95,51.427013 L66.95,57.8871654 C66.95,59.8392986 64.1632471,62.1335583 59.6989424,63.8039404 L59.7172763,63.8039404 Z" id="Shape" fill="#333333"></path>
            </g>
        </g>
    </g>
</svg>