<?xml version="1.0" encoding="UTF-8"?>
<svg viewBox="0 0 24 24" version="1.1" xmlns="http://www.w3.org/2000/svg" xmlns:xlink="http://www.w3.org/1999/xlink">
    <path d="M12 22a10 10 0 1 1 0-20 10 10 0 0 1 0 20zm.3-10.86c-1.78-.45-2.35-.93-2.35-1.67 0-.85.8-1.44 2.12-1.44 1.4 0 1.92.66 1.97 1.64h1.73a3.1 3.1 0 0 0-2.52-2.97V5h-2.36v1.68c-1.52.33-2.75 1.3-2.75 2.8 0 1.8 1.5 2.7 3.7 3.22 1.96.47 2.35 1.15 2.35 1.87 0 .54-.38 1.4-2.12 1.4-1.62 0-2.25-.72-2.34-1.64H8c.1 1.7 1.38 2.66 2.9 2.98V19h2.35v-1.67c1.53-.29 2.75-1.17 2.75-2.76 0-2.21-1.91-2.97-3.7-3.43z"></path>
</svg>
