<?xml version="1.0" encoding="UTF-8"?>
<svg width="80px" height="68px" viewBox="0 0 80 68" version="1.1" xmlns="http://www.w3.org/2000/svg" xmlns:xlink="http://www.w3.org/1999/xlink">
    <!-- Generator: Sketch 52.2 (67145) - http://www.bohemiancoding.com/sketch -->
    <title>Group 24</title>
    <desc>Created with Sketch.</desc>
    <g id="Symbols" stroke="none" stroke-width="1" fill="none" fill-rule="evenodd">
        <g id="Icon-/-Spreadsheet-(Black)" transform="translate(0.000000, -4.000000)" fill-rule="nonzero">
            <g id="Group-24">
                <rect id="Rectangle" x="0" y="0" width="80" height="80"></rect>
                <path d="M22.8031915,47.8506616 L22.8031915,29.7963138 L3.75,29.7963138 L3.75,47.8506616 L22.8031915,47.8506616 Z M26.3031915,47.8506616 L76.25,47.8506616 L76.25,29.7963138 L26.3031915,29.7963138 L26.3031915,47.8506616 Z M26.3031915,51.6006616 L26.3031915,67.6398305 L76.25,67.6398305 L76.25,51.6006616 L26.3031915,51.6006616 Z M22.8031915,51.6006616 L3.75,51.6006616 L3.75,67.6398305 L22.8031915,67.6398305 L22.8031915,51.6006616 Z M22.8031915,26.0463138 L22.8031915,8.36016949 L3.75,8.36016949 L3.75,26.0463138 L22.5531915,26.0463138 L22.8031915,26.0463138 Z M26.3031915,26.0463138 L76.25,26.0463138 L76.25,8.36016949 L26.3031915,8.36016949 L26.3031915,26.0463138 Z M0.25,4.25 L79.75,4.25 L79.75,71.75 L0.25,71.75 L0.25,4.25 Z" id="Combined-Shape" fill="#333333"></path>
            </g>
        </g>
    </g>
</svg>