<?xml version="1.0" encoding="UTF-8"?>
<svg width="282px" height="95px" viewBox="0 0 282 95" version="1.1" xmlns="http://www.w3.org/2000/svg" xmlns:xlink="http://www.w3.org/1999/xlink">
    <!-- Generator: Sketch 52.2 (67145) - http://www.bohemiancoding.com/sketch -->
    <title>no-table-small</title>
    <desc>Created with Sketch.</desc>
    <g id="Page-1" stroke="none" stroke-width="1" fill="none" fill-rule="evenodd">
        <g id="no-table-small" transform="translate(0.000000, -4.000000)">
            <g id="Group-5" transform="translate(0.000000, 29.000000)">
                <g id="Group-4">
                    <g transform="translate(21.000000, 0.000000)">
                        <rect id="Background" stroke="#C9C9C9" fill-rule="nonzero" x="0.5" y="0.5" width="82" height="23"></rect>
                        <path d="M8.624,11.8 C8.624,9.364 10.508,7.456 12.92,7.456 C13.808,7.456 14.636,7.72 15.38,8.212 L15.38,9.4 C14.564,8.788 13.76,8.488 12.896,8.488 C11.12,8.488 9.728,9.94 9.728,11.8 C9.728,13.636 11.12,15.1 12.896,15.1 C13.748,15.1 14.588,14.8 15.404,14.212 L15.404,15.4 C14.612,15.892 13.784,16.132 12.908,16.132 C10.508,16.132 8.624,14.224 8.624,11.8 Z M19.4085714,10.036 C21.1605714,10.036 22.4565714,11.392 22.4565714,13.084 C22.4565714,14.776 21.1605714,16.132 19.4085714,16.132 C17.6565714,16.132 16.3605714,14.776 16.3605714,13.084 C16.3605714,11.392 17.6565714,10.036 19.4085714,10.036 Z M19.4085714,10.984 C18.2685714,10.984 17.4045714,11.92 17.4045714,13.084 C17.4045714,14.248 18.2685714,15.184 19.4085714,15.184 C20.5485714,15.184 21.4125714,14.248 21.4125714,13.084 C21.4125714,11.92 20.5485714,10.984 19.4085714,10.984 Z M27.8411428,13.216 L27.8411428,10.168 L28.8731428,10.168 L28.8731428,16 L27.8411428,16 L27.8411428,15.16 C27.4811428,15.736 26.8691428,16.132 25.9931428,16.132 C24.5171428,16.132 23.6651428,15.136 23.6651428,13.588 L23.6651428,10.168 L24.6971428,10.168 L24.6971428,13.468 C24.6971428,14.512 25.2251428,15.172 26.2091428,15.172 C27.1931428,15.172 27.8411428,14.404 27.8411428,13.216 Z M31.6537143,12.952 L31.6537143,16 L30.6217143,16 L30.6217143,10.168 L31.6537143,10.168 L31.6537143,11.008 C32.0137143,10.432 32.6377143,10.036 33.5137143,10.036 C35.0017143,10.036 35.8657143,11.032 35.8657143,12.58 L35.8657143,16 L34.8337143,16 L34.8337143,12.7 C34.8337143,11.656 34.2937143,10.996 33.2977143,10.996 C32.3017143,10.996 31.6537143,11.764 31.6537143,12.952 Z M37.6982857,8.416 L38.7302857,8.416 L38.7302857,10.168 L40.3622857,10.168 L40.3622857,11.092 L38.7302857,11.092 L38.7302857,14.176 C38.7302857,14.86 39.0302857,15.172 39.7022857,15.172 C39.9302857,15.172 40.1822857,15.112 40.3622857,14.992 L40.3622857,15.952 C40.1582857,16.06 39.8582857,16.132 39.4622857,16.132 C38.3582857,16.132 37.6982857,15.448 37.6982857,14.32 L37.6982857,11.092 L36.7982857,11.092 L36.7982857,10.168 L37.6982857,10.168 L37.6982857,8.416 Z M44.6068571,10.096 L44.6068571,11.128 C44.6068571,11.128 44.4988571,11.104 44.3188571,11.104 C43.2388571,11.104 42.5788571,11.968 42.5788571,13.228 L42.5788571,16 L41.5588571,16 L41.5588571,10.168 L42.5668571,10.168 L42.5668571,11.2 C42.8308571,10.528 43.5868571,10.072 44.3548571,10.072 C44.4988571,10.072 44.6068571,10.096 44.6068571,10.096 Z M50.9274285,10.168 L48.1194285,16.888 C47.5914285,18.148 47.0754285,18.64 46.1994285,18.64 C45.9474285,18.64 45.7314285,18.592 45.5634285,18.52 L45.5634285,17.608 C45.6954285,17.656 45.8994285,17.704 46.1154285,17.704 C46.5834285,17.704 46.8594285,17.428 47.1714285,16.684 L47.5194285,15.844 L45.2034285,10.168 L46.3074285,10.168 L48.0594285,14.668 L49.8594285,10.168 L50.9274285,10.168 Z" id="Cell-Value" fill="#757575"></path>
                    </g>
                    <g transform="translate(103.000000, 0.000000)">
                        <rect id="Background" stroke="#C9C9C9" fill-rule="nonzero" x="0.5" y="0.5" width="89" height="23"></rect>
                        <path d="M15.08,16 L15.08,7.6 L17.696,7.6 C19.244,7.6 20.312,8.44 20.312,9.82 C20.312,10.612 19.964,11.224 19.304,11.536 C20.276,11.86 20.816,12.604 20.816,13.612 C20.816,15.112 19.688,16 17.948,16 L15.08,16 Z M16.148,15.052 L17.936,15.052 C19.028,15.052 19.736,14.512 19.736,13.576 C19.736,12.676 19.004,12.112 17.912,12.112 L16.148,12.112 L16.148,15.052 Z M16.148,11.188 L17.684,11.188 C18.62,11.188 19.256,10.696 19.256,9.868 C19.256,9.028 18.62,8.548 17.672,8.548 L16.148,8.548 L16.148,11.188 Z M24.8325714,16.132 C23.1045714,16.132 21.8565714,14.86 21.8565714,13.084 C21.8565714,11.344 23.1045714,10.036 24.7605714,10.036 C26.4045714,10.036 27.5925714,11.38 27.5925714,13.036 C27.5925714,13.264 27.5805714,13.408 27.5805714,13.408 L22.8885714,13.408 C22.9605714,14.44 23.8365714,15.208 24.8445714,15.208 C25.7205714,15.208 26.1645714,14.788 26.5365714,14.212 L27.3765714,14.644 C26.8965714,15.52 26.0085714,16.132 24.8325714,16.132 Z M22.9125714,12.556 L26.5485714,12.556 C26.4405714,11.632 25.6965714,10.936 24.7365714,10.936 C23.7885714,10.936 23.0085714,11.764 22.9125714,12.556 Z M31.4771428,16.132 C29.7491428,16.132 28.5011428,14.86 28.5011428,13.084 C28.5011428,11.344 29.7491428,10.036 31.4051428,10.036 C33.0491428,10.036 34.2371428,11.38 34.2371428,13.036 C34.2371428,13.264 34.2251428,13.408 34.2251428,13.408 L29.5331428,13.408 C29.6051428,14.44 30.4811428,15.208 31.4891428,15.208 C32.3651428,15.208 32.8091428,14.788 33.1811428,14.212 L34.0211428,14.644 C33.5411428,15.52 32.6531428,16.132 31.4771428,16.132 Z M29.5571428,12.556 L33.1931428,12.556 C33.0851428,11.632 32.3411428,10.936 31.3811428,10.936 C30.4331428,10.936 29.6531428,11.764 29.5571428,12.556 Z M38.5537143,10.096 L38.5537143,11.128 C38.5537143,11.128 38.4457143,11.104 38.2657143,11.104 C37.1857143,11.104 36.5257143,11.968 36.5257143,13.228 L36.5257143,16 L35.5057143,16 L35.5057143,10.168 L36.5137143,10.168 L36.5137143,11.2 C36.7777143,10.528 37.5337143,10.072 38.3017143,10.072 C38.4457143,10.072 38.5537143,10.096 38.5537143,10.096 Z M41.9068571,13.984 L42.9028571,13.624 C43.2148571,14.5 43.8628571,15.124 44.8228571,15.124 C45.6748571,15.124 46.3948571,14.62 46.3948571,13.744 C46.3948571,13.072 45.9868571,12.64 45.1468571,12.328 L44.1628571,11.956 C42.9148571,11.488 42.2428571,10.792 42.2428571,9.7 C42.2428571,8.32 43.3348571,7.456 44.7028571,7.456 C45.8908571,7.456 46.8268571,8.164 47.2468571,9.34 L46.2748571,9.748 C46.0108571,9.028 45.4948571,8.464 44.6908571,8.464 C43.9228571,8.464 43.3228571,8.932 43.3228571,9.64 C43.3228571,10.24 43.7428571,10.648 44.5948571,10.972 L45.5668571,11.344 C46.8508571,11.836 47.4868571,12.568 47.4868571,13.672 C47.4868571,15.196 46.2868571,16.132 44.7868571,16.132 C43.3708571,16.132 42.3148571,15.328 41.9068571,13.984 Z M51.4314285,16.132 C49.7034285,16.132 48.4554285,14.86 48.4554285,13.084 C48.4554285,11.344 49.7034285,10.036 51.3594285,10.036 C53.0034285,10.036 54.1914285,11.38 54.1914285,13.036 C54.1914285,13.264 54.1794285,13.408 54.1794285,13.408 L49.4874285,13.408 C49.5594285,14.44 50.4354285,15.208 51.4434285,15.208 C52.3194285,15.208 52.7634285,14.788 53.1354285,14.212 L53.9754285,14.644 C53.4954285,15.52 52.6074285,16.132 51.4314285,16.132 Z M49.5114285,12.556 L53.1474285,12.556 C53.0394285,11.632 52.2954285,10.936 51.3354285,10.936 C50.3874285,10.936 49.6074285,11.764 49.5114285,12.556 Z M58.508,10.096 L58.508,11.128 C58.508,11.128 58.4,11.104 58.22,11.104 C57.14,11.104 56.48,11.968 56.48,13.228 L56.48,16 L55.46,16 L55.46,10.168 L56.468,10.168 L56.468,11.2 C56.732,10.528 57.488,10.072 58.256,10.072 C58.4,10.072 58.508,10.096 58.508,10.096 Z M62.3805714,16 L61.5405714,16 L59.1045714,10.168 L60.2085714,10.168 L61.9725714,14.584 L63.7365714,10.168 L64.8165714,10.168 L62.3805714,16 Z M67.0331428,8.44 C67.0331428,8.824 66.7211428,9.136 66.3371428,9.136 C65.9531428,9.136 65.6411428,8.824 65.6411428,8.44 C65.6411428,8.056 65.9531428,7.744 66.3371428,7.744 C66.7211428,7.744 67.0331428,8.056 67.0331428,8.44 Z M65.8211428,10.168 L66.8531428,10.168 L66.8531428,16 L65.8211428,16 L65.8211428,10.168 Z M69.6337142,12.952 L69.6337142,16 L68.6017142,16 L68.6017142,10.168 L69.6337142,10.168 L69.6337142,11.008 C69.9937142,10.432 70.6177142,10.036 71.4937142,10.036 C72.9817142,10.036 73.8457142,11.032 73.8457142,12.58 L73.8457142,16 L72.8137142,16 L72.8137142,12.7 C72.8137142,11.656 72.2737142,10.996 71.2777142,10.996 C70.2817142,10.996 69.6337142,11.764 69.6337142,12.952 Z M79.9502857,14.884 C79.5422857,15.52 78.7622857,15.94 77.9342857,15.94 C76.3382857,15.94 75.0902857,14.668 75.0902857,13 C75.0902857,11.332 76.3382857,10.036 77.9342857,10.036 C78.7622857,10.036 79.5302857,10.408 79.9502857,11.044 L79.9502857,10.168 L80.9702857,10.168 L80.9702857,15.664 C80.9702857,17.476 79.8302857,18.64 78.0782857,18.64 C76.8662857,18.64 75.8822857,18.1 75.3422857,17.128 L76.1582857,16.552 C76.5662857,17.296 77.2622857,17.704 78.0782857,17.704 C79.2182857,17.704 79.9502857,16.924 79.9502857,15.688 L79.9502857,14.884 Z M80.0102857,13 C80.0102857,11.872 79.1702857,10.984 78.0662857,10.984 C76.9622857,10.984 76.1342857,11.872 76.1342857,13 C76.1342857,14.128 76.9622857,15.016 78.0662857,15.016 C79.1702857,15.016 80.0102857,14.128 80.0102857,13 Z" id="Cell-Value" fill="#757575"></path>
                    </g>
                    <g transform="translate(192.000000, 0.000000)">
                        <rect id="Background" stroke="#C9C9C9" fill-rule="nonzero" x="0.5" y="0.5" width="89" height="23"></rect>
                        <path d="M14.696,16 L14.012,16 L11.168,7.6 L12.272,7.6 L14.384,14.008 L16.592,7.6 L17.252,7.6 L19.46,14.008 L21.584,7.6 L22.664,7.6 L19.808,16 L19.124,16 L16.904,9.604 L14.696,16 Z M24.8325714,8.44 C24.8325714,8.824 24.5205714,9.136 24.1365714,9.136 C23.7525714,9.136 23.4405714,8.824 23.4405714,8.44 C23.4405714,8.056 23.7525714,7.744 24.1365714,7.744 C24.5205714,7.744 24.8325714,8.056 24.8325714,8.44 Z M23.6205714,10.168 L24.6525714,10.168 L24.6525714,16 L23.6205714,16 L23.6205714,10.168 Z M27.4331428,12.952 L27.4331428,16 L26.4011428,16 L26.4011428,10.168 L27.4331428,10.168 L27.4331428,11.008 C27.7931428,10.432 28.4171428,10.036 29.2931428,10.036 C30.7811428,10.036 31.6451428,11.032 31.6451428,12.58 L31.6451428,16 L30.6131428,16 L30.6131428,12.7 C30.6131428,11.656 30.0731428,10.996 29.0771428,10.996 C28.0811428,10.996 27.4331428,11.764 27.4331428,12.952 Z M35.8657143,16.132 C34.1377143,16.132 32.8897143,14.86 32.8897143,13.084 C32.8897143,11.344 34.1377143,10.036 35.7937143,10.036 C37.4377143,10.036 38.6257143,11.38 38.6257143,13.036 C38.6257143,13.264 38.6137143,13.408 38.6137143,13.408 L33.9217143,13.408 C33.9937143,14.44 34.8697143,15.208 35.8777143,15.208 C36.7537143,15.208 37.1977143,14.788 37.5697143,14.212 L38.4097143,14.644 C37.9297143,15.52 37.0417143,16.132 35.8657143,16.132 Z M33.9457143,12.556 L37.5817143,12.556 C37.4737143,11.632 36.7297143,10.936 35.7697143,10.936 C34.8217143,10.936 34.0417143,11.764 33.9457143,12.556 Z M42.1468571,13.984 L43.1428571,13.624 C43.4548571,14.5 44.1028571,15.124 45.0628571,15.124 C45.9148571,15.124 46.6348571,14.62 46.6348571,13.744 C46.6348571,13.072 46.2268571,12.64 45.3868571,12.328 L44.4028571,11.956 C43.1548571,11.488 42.4828571,10.792 42.4828571,9.7 C42.4828571,8.32 43.5748571,7.456 44.9428571,7.456 C46.1308571,7.456 47.0668571,8.164 47.4868571,9.34 L46.5148571,9.748 C46.2508571,9.028 45.7348571,8.464 44.9308571,8.464 C44.1628571,8.464 43.5628571,8.932 43.5628571,9.64 C43.5628571,10.24 43.9828571,10.648 44.8348571,10.972 L45.8068571,11.344 C47.0908571,11.836 47.7268571,12.568 47.7268571,13.672 C47.7268571,15.196 46.5268571,16.132 45.0268571,16.132 C43.6108571,16.132 42.5548571,15.328 42.1468571,13.984 Z M51.6714285,16.132 C49.9434285,16.132 48.6954285,14.86 48.6954285,13.084 C48.6954285,11.344 49.9434285,10.036 51.5994285,10.036 C53.2434285,10.036 54.4314285,11.38 54.4314285,13.036 C54.4314285,13.264 54.4194285,13.408 54.4194285,13.408 L49.7274285,13.408 C49.7994285,14.44 50.6754285,15.208 51.6834285,15.208 C52.5594285,15.208 53.0034285,14.788 53.3754285,14.212 L54.2154285,14.644 C53.7354285,15.52 52.8474285,16.132 51.6714285,16.132 Z M49.7514285,12.556 L53.3874285,12.556 C53.2794285,11.632 52.5354285,10.936 51.5754285,10.936 C50.6274285,10.936 49.8474285,11.764 49.7514285,12.556 Z M58.748,10.096 L58.748,11.128 C58.748,11.128 58.64,11.104 58.46,11.104 C57.38,11.104 56.72,11.968 56.72,13.228 L56.72,16 L55.7,16 L55.7,10.168 L56.708,10.168 L56.708,11.2 C56.972,10.528 57.728,10.072 58.496,10.072 C58.64,10.072 58.748,10.096 58.748,10.096 Z M62.6205714,16 L61.7805714,16 L59.3445714,10.168 L60.4485714,10.168 L62.2125714,14.584 L63.9765714,10.168 L65.0565714,10.168 L62.6205714,16 Z M67.2731428,8.44 C67.2731428,8.824 66.9611428,9.136 66.5771428,9.136 C66.1931428,9.136 65.8811428,8.824 65.8811428,8.44 C65.8811428,8.056 66.1931428,7.744 66.5771428,7.744 C66.9611428,7.744 67.2731428,8.056 67.2731428,8.44 Z M66.0611428,10.168 L67.0931428,10.168 L67.0931428,16 L66.0611428,16 L66.0611428,10.168 Z M69.8737142,12.952 L69.8737142,16 L68.8417142,16 L68.8417142,10.168 L69.8737142,10.168 L69.8737142,11.008 C70.2337142,10.432 70.8577142,10.036 71.7337142,10.036 C73.2217142,10.036 74.0857142,11.032 74.0857142,12.58 L74.0857142,16 L73.0537142,16 L73.0537142,12.7 C73.0537142,11.656 72.5137142,10.996 71.5177142,10.996 C70.5217142,10.996 69.8737142,11.764 69.8737142,12.952 Z M80.1902857,14.884 C79.7822857,15.52 79.0022857,15.94 78.1742857,15.94 C76.5782857,15.94 75.3302857,14.668 75.3302857,13 C75.3302857,11.332 76.5782857,10.036 78.1742857,10.036 C79.0022857,10.036 79.7702857,10.408 80.1902857,11.044 L80.1902857,10.168 L81.2102857,10.168 L81.2102857,15.664 C81.2102857,17.476 80.0702857,18.64 78.3182857,18.64 C77.1062857,18.64 76.1222857,18.1 75.5822857,17.128 L76.3982857,16.552 C76.8062857,17.296 77.5022857,17.704 78.3182857,17.704 C79.4582857,17.704 80.1902857,16.924 80.1902857,15.688 L80.1902857,14.884 Z M80.2502857,13 C80.2502857,11.872 79.4102857,10.984 78.3062857,10.984 C77.2022857,10.984 76.3742857,11.872 76.3742857,13 C76.3742857,14.128 77.2022857,15.016 78.3062857,15.016 C79.4102857,15.016 80.2502857,14.128 80.2502857,13 Z" id="Cell-Value" fill="#757575"></path>
                    </g>
                    <g>
                        <rect id="Background" stroke="#C9C9C9" fill="#F1F1F3" fill-rule="nonzero" x="0.5" y="0.5" width="21" height="23"></rect>
                        <polygon id="1" fill="#808080" points="12.152 16 10.736 16 10.736 9.076 9.284 9.076 9.284 7.756 12.152 7.756"></polygon>
                    </g>
                </g>
                <g id="Group-4" transform="translate(0.000000, 23.000000)">
                    <g transform="translate(21.000000, 0.000000)">
                        <rect id="Background" stroke="#C9C9C9" fill-rule="nonzero" x="0.5" y="0.5" width="82" height="23"></rect>
                        <path d="M11.612,7.6 L12.452,7.6 L15.908,16 L14.78,16 L13.796,13.564 L10.232,13.564 L9.248,16 L8.144,16 L11.612,7.6 Z M12.008,9.1 L10.616,12.592 L13.412,12.592 L12.008,9.1 Z M18.1365714,16 L17.1045714,16 L17.1045714,11.092 L16.2045714,11.092 L16.2045714,10.168 L17.1045714,10.168 L17.1045714,9.664 C17.1045714,8.176 17.9565714,7.456 19.1085714,7.456 C19.5285714,7.456 19.8045714,7.528 19.9845714,7.6 L19.9845714,8.524 C19.8045714,8.452 19.5765714,8.404 19.2765714,8.404 C18.6285714,8.404 18.1365714,8.728 18.1365714,9.64 L18.1365714,10.168 L19.7685714,10.168 L19.7685714,11.092 L18.1365714,11.092 L18.1365714,16 Z M24.9611428,14.884 C24.5531428,15.52 23.7731428,15.94 22.9451428,15.94 C21.3491428,15.94 20.1011428,14.668 20.1011428,13 C20.1011428,11.332 21.3491428,10.036 22.9451428,10.036 C23.7731428,10.036 24.5411428,10.408 24.9611428,11.044 L24.9611428,10.168 L25.9811428,10.168 L25.9811428,15.664 C25.9811428,17.476 24.8411428,18.64 23.0891428,18.64 C21.8771428,18.64 20.8931428,18.1 20.3531428,17.128 L21.1691428,16.552 C21.5771428,17.296 22.2731428,17.704 23.0891428,17.704 C24.2291428,17.704 24.9611428,16.924 24.9611428,15.688 L24.9611428,14.884 Z M25.0211428,13 C25.0211428,11.872 24.1811428,10.984 23.0771428,10.984 C21.9731428,10.984 21.1451428,11.872 21.1451428,13 C21.1451428,14.128 21.9731428,15.016 23.0771428,15.016 C24.1811428,15.016 25.0211428,14.128 25.0211428,13 Z M28.7617143,12.952 L28.7617143,16 L27.7297143,16 L27.7297143,7.6 L28.7617143,7.6 L28.7617143,11.008 C29.1217143,10.432 29.7457143,10.036 30.6217143,10.036 C32.1097143,10.036 32.9737143,11.032 32.9737143,12.58 L32.9737143,16 L31.9417143,16 L31.9417143,12.7 C31.9417143,11.656 31.4017143,10.996 30.4057143,10.996 C29.4097143,10.996 28.7617143,11.764 28.7617143,12.952 Z M39.2102857,10.168 L40.2302857,10.168 L40.2302857,16 L39.2102857,16 L39.2102857,15.064 C38.7902857,15.712 37.9982857,16.132 37.1462857,16.132 C35.4902857,16.132 34.2182857,14.812 34.2182857,13.084 C34.2182857,11.368 35.4902857,10.036 37.1462857,10.036 C37.9982857,10.036 38.7782857,10.408 39.2102857,11.056 L39.2102857,10.168 Z M39.2702857,13.084 C39.2702857,11.908 38.4062857,10.984 37.2662857,10.984 C36.1262857,10.984 35.2622857,11.908 35.2622857,13.084 C35.2622857,14.26 36.1262857,15.184 37.2662857,15.184 C38.4062857,15.184 39.2702857,14.26 39.2702857,13.084 Z M43.0108571,12.952 L43.0108571,16 L41.9788571,16 L41.9788571,10.168 L43.0108571,10.168 L43.0108571,11.008 C43.3708571,10.432 43.9948571,10.036 44.8708571,10.036 C46.3588571,10.036 47.2228571,11.032 47.2228571,12.58 L47.2228571,16 L46.1908571,16 L46.1908571,12.7 C46.1908571,11.656 45.6508571,10.996 44.6548571,10.996 C43.6588571,10.996 43.0108571,11.764 43.0108571,12.952 Z M50.0994285,8.44 C50.0994285,8.824 49.7874285,9.136 49.4034285,9.136 C49.0194285,9.136 48.7074285,8.824 48.7074285,8.44 C48.7074285,8.056 49.0194285,7.744 49.4034285,7.744 C49.7874285,7.744 50.0994285,8.056 50.0994285,8.44 Z M48.8874285,10.168 L49.9194285,10.168 L49.9194285,16 L48.8874285,16 L48.8874285,10.168 Z M51.116,14.548 L52.028,14.2 C52.208,14.824 52.712,15.232 53.324,15.232 C53.816,15.232 54.296,14.932 54.296,14.416 C54.296,14.02 54.032,13.768 53.468,13.576 L52.82,13.36 C51.776,13.012 51.32,12.448 51.32,11.704 C51.32,10.72 52.136,10.036 53.216,10.036 C54.164,10.036 54.896,10.576 55.208,11.452 L54.308,11.812 C54.104,11.248 53.708,10.924 53.192,10.924 C52.712,10.924 52.34,11.212 52.34,11.632 C52.34,11.98 52.604,12.244 53.192,12.448 L53.792,12.652 C54.848,13.012 55.316,13.588 55.316,14.356 C55.316,15.388 54.44,16.132 53.3,16.132 C52.22,16.132 51.38,15.508 51.116,14.548 Z M56.7645714,8.416 L57.7965714,8.416 L57.7965714,10.168 L59.4285714,10.168 L59.4285714,11.092 L57.7965714,11.092 L57.7965714,14.176 C57.7965714,14.86 58.0965714,15.172 58.7685714,15.172 C58.9965714,15.172 59.2485714,15.112 59.4285714,14.992 L59.4285714,15.952 C59.2245714,16.06 58.9245714,16.132 58.5285714,16.132 C57.4245714,16.132 56.7645714,15.448 56.7645714,14.32 L56.7645714,11.092 L55.8645714,11.092 L55.8645714,10.168 L56.7645714,10.168 L56.7645714,8.416 Z M65.1371428,10.168 L66.1571428,10.168 L66.1571428,16 L65.1371428,16 L65.1371428,15.064 C64.7171428,15.712 63.9251428,16.132 63.0731428,16.132 C61.4171428,16.132 60.1451428,14.812 60.1451428,13.084 C60.1451428,11.368 61.4171428,10.036 63.0731428,10.036 C63.9251428,10.036 64.7051428,10.408 65.1371428,11.056 L65.1371428,10.168 Z M65.1971428,13.084 C65.1971428,11.908 64.3331428,10.984 63.1931428,10.984 C62.0531428,10.984 61.1891428,11.908 61.1891428,13.084 C61.1891428,14.26 62.0531428,15.184 63.1931428,15.184 C64.3331428,15.184 65.1971428,14.26 65.1971428,13.084 Z M68.9377142,12.952 L68.9377142,16 L67.9057142,16 L67.9057142,10.168 L68.9377142,10.168 L68.9377142,11.008 C69.2977142,10.432 69.9217142,10.036 70.7977142,10.036 C72.2857142,10.036 73.1497142,11.032 73.1497142,12.58 L73.1497142,16 L72.1177142,16 L72.1177142,12.7 C72.1177142,11.656 71.5777142,10.996 70.5817142,10.996 C69.5857142,10.996 68.9377142,11.764 68.9377142,12.952 Z" id="Cell-Value" fill="#757575"></path>
                    </g>
                    <g transform="translate(103.000000, 0.000000)">
                        <rect id="Background" stroke="#C9C9C9" fill-rule="nonzero" x="0.5" y="0.5" width="89" height="23"></rect>
                        <path d="M77.996,16.132 C75.752,16.132 74.672,14.104 74.672,11.884 C74.672,9.652 75.752,7.624 77.996,7.624 C80.24,7.624 81.32,9.652 81.32,11.884 C81.32,14.104 80.24,16.132 77.996,16.132 Z M77.996,15.136 C79.556,15.136 80.252,13.564 80.252,11.884 C80.252,10.204 79.556,8.62 77.996,8.62 C76.436,8.62 75.74,10.204 75.74,11.884 C75.74,13.564 76.436,15.136 77.996,15.136 Z" id="Cell-Value" fill="#757575"></path>
                    </g>
                    <g transform="translate(192.000000, 0.000000)">
                        <rect id="Background" stroke="#C9C9C9" fill-rule="nonzero" x="0.5" y="0.5" width="89" height="23"></rect>
                        <path d="M77.996,16.132 C75.752,16.132 74.672,14.104 74.672,11.884 C74.672,9.652 75.752,7.624 77.996,7.624 C80.24,7.624 81.32,9.652 81.32,11.884 C81.32,14.104 80.24,16.132 77.996,16.132 Z M77.996,15.136 C79.556,15.136 80.252,13.564 80.252,11.884 C80.252,10.204 79.556,8.62 77.996,8.62 C76.436,8.62 75.74,10.204 75.74,11.884 C75.74,13.564 76.436,15.136 77.996,15.136 Z" id="Cell-Value" fill="#757575"></path>
                    </g>
                    <g>
                        <rect id="Background" stroke="#C9C9C9" fill="#F1F1F3" fill-rule="nonzero" x="0.5" y="0.5" width="21" height="23"></rect>
                        <path d="M10.988,7.612 C12.596,7.612 13.784,8.692 13.784,10.204 C13.784,11.2 13.304,11.968 12.152,12.988 L10.184,14.716 L13.868,14.716 L13.868,16 L8.156,16 L8.156,14.86 L11.372,11.968 C12.068,11.332 12.356,10.828 12.356,10.288 C12.356,9.52 11.756,8.944 10.988,8.944 C10.136,8.944 9.596,9.652 9.584,10.564 L8.192,10.564 C8.192,8.812 9.308,7.612 10.988,7.612 Z" id="1" fill="#808080"></path>
                    </g>
                </g>
                <g id="Group-4" transform="translate(0.000000, 46.000000)">
                    <g transform="translate(21.000000, 0.000000)">
                        <rect id="Background" stroke="#C9C9C9" fill-rule="nonzero" x="0.5" y="0.5" width="82" height="23"></rect>
                        <path d="M11.612,7.6 L12.452,7.6 L15.908,16 L14.78,16 L13.796,13.564 L10.232,13.564 L9.248,16 L8.144,16 L11.612,7.6 Z M12.008,9.1 L10.616,12.592 L13.412,12.592 L12.008,9.1 Z M16.8405714,7.6 L17.8725714,7.6 L17.8725714,16 L16.8405714,16 L16.8405714,7.6 Z M20.6411428,16 L19.6211428,16 L19.6211428,7.6 L20.6411428,7.6 L20.6411428,11.092 C21.0611428,10.456 21.8531428,10.036 22.7051428,10.036 C24.3611428,10.036 25.6331428,11.356 25.6331428,13.084 C25.6331428,14.8 24.3611428,16.132 22.7051428,16.132 C21.8531428,16.132 21.0731428,15.76 20.6411428,15.124 L20.6411428,16 Z M24.5891428,13.084 C24.5891428,11.908 23.7251428,10.984 22.5851428,10.984 C21.4451428,10.984 20.5811428,11.908 20.5811428,13.084 C20.5811428,14.26 21.4451428,15.184 22.5851428,15.184 C23.7251428,15.184 24.5891428,14.26 24.5891428,13.084 Z M31.5937143,10.168 L32.6137143,10.168 L32.6137143,16 L31.5937143,16 L31.5937143,15.064 C31.1737143,15.712 30.3817143,16.132 29.5297143,16.132 C27.8737143,16.132 26.6017143,14.812 26.6017143,13.084 C26.6017143,11.368 27.8737143,10.036 29.5297143,10.036 C30.3817143,10.036 31.1617143,10.408 31.5937143,11.056 L31.5937143,10.168 Z M31.6537143,13.084 C31.6537143,11.908 30.7897143,10.984 29.6497143,10.984 C28.5097143,10.984 27.6457143,11.908 27.6457143,13.084 C27.6457143,14.26 28.5097143,15.184 29.6497143,15.184 C30.7897143,15.184 31.6537143,14.26 31.6537143,13.084 Z M35.3942857,12.952 L35.3942857,16 L34.3622857,16 L34.3622857,10.168 L35.3942857,10.168 L35.3942857,11.008 C35.7542857,10.432 36.3782857,10.036 37.2542857,10.036 C38.7422857,10.036 39.6062857,11.032 39.6062857,12.58 L39.6062857,16 L38.5742857,16 L38.5742857,12.7 C38.5742857,11.656 38.0342857,10.996 37.0382857,10.996 C36.0422857,10.996 35.3942857,11.764 35.3942857,12.952 Z M42.4828571,8.44 C42.4828571,8.824 42.1708571,9.136 41.7868571,9.136 C41.4028571,9.136 41.0908571,8.824 41.0908571,8.44 C41.0908571,8.056 41.4028571,7.744 41.7868571,7.744 C42.1708571,7.744 42.4828571,8.056 42.4828571,8.44 Z M41.2708571,10.168 L42.3028571,10.168 L42.3028571,16 L41.2708571,16 L41.2708571,10.168 Z M48.6234285,10.168 L49.6434285,10.168 L49.6434285,16 L48.6234285,16 L48.6234285,15.064 C48.2034285,15.712 47.4114285,16.132 46.5594285,16.132 C44.9034285,16.132 43.6314285,14.812 43.6314285,13.084 C43.6314285,11.368 44.9034285,10.036 46.5594285,10.036 C47.4114285,10.036 48.1914285,10.408 48.6234285,11.056 L48.6234285,10.168 Z M48.6834285,13.084 C48.6834285,11.908 47.8194285,10.984 46.6794285,10.984 C45.5394285,10.984 44.6754285,11.908 44.6754285,13.084 C44.6754285,14.26 45.5394285,15.184 46.6794285,15.184 C47.8194285,15.184 48.6834285,14.26 48.6834285,13.084 Z" id="Cell-Value" fill="#757575"></path>
                    </g>
                    <g transform="translate(103.000000, 0.000000)">
                        <rect id="Background" stroke="#C9C9C9" fill-rule="nonzero" x="0.5" y="0.5" width="89" height="23"></rect>
                        <path d="M71.252,7.624 C72.776,7.624 73.916,8.668 73.916,10.132 C73.916,11.092 73.46,11.86 72.416,12.844 L70.088,15.016 L74.024,15.016 L74.024,16 L68.528,16 L68.528,15.136 L71.816,12.052 C72.548,11.356 72.848,10.792 72.848,10.18 C72.848,9.292 72.14,8.62 71.252,8.62 C70.268,8.62 69.632,9.46 69.62,10.456 L68.588,10.456 C68.588,8.8 69.656,7.624 71.252,7.624 Z M74.8485714,10.54 C74.8485714,8.908 76.1565714,7.624 77.8245714,7.624 C79.5405714,7.624 80.8125714,8.884 80.8125714,10.552 C80.8125714,11.248 80.5605714,12.016 79.8885714,13.024 L77.9205714,16 L76.6485714,16 L78.6165714,13.084 C78.3765714,13.228 78.0645714,13.324 77.6325714,13.324 C76.0365714,13.324 74.8485714,12.076 74.8485714,10.54 Z M75.9165714,10.492 C75.9165714,11.572 76.7685714,12.376 77.8245714,12.376 C78.9045714,12.376 79.7445714,11.572 79.7445714,10.504 C79.7445714,9.46 78.9165714,8.62 77.8365714,8.62 C76.7685714,8.62 75.9165714,9.46 75.9165714,10.492 Z" id="Cell-Value" fill="#757575"></path>
                    </g>
                    <g transform="translate(192.000000, 0.000000)">
                        <rect id="Background" stroke="#C9C9C9" fill-rule="nonzero" x="0.5" y="0.5" width="89" height="23"></rect>
                        <path d="M68,16 L66.944,16 L66.944,8.764 L65.456,8.764 L65.456,7.756 L68,7.756 L68,16 Z M72.2685714,11.2 C73.0245714,11.2 73.7205714,10.588 73.7205714,9.904 C73.7205714,9.16 73.0845714,8.608 72.2565714,8.608 C71.3685714,8.608 70.7445714,9.268 70.7205714,10.168 L69.6885714,10.168 C69.7125714,8.632 70.7925714,7.624 72.2805714,7.624 C73.7325714,7.624 74.7645714,8.56 74.7645714,9.808 C74.7645714,10.588 74.3445714,11.26 73.6125714,11.608 C74.5245714,11.908 75.1125714,12.7 75.1125714,13.636 C75.1125714,15.1 73.9125714,16.132 72.3045714,16.132 C70.6245714,16.132 69.5085714,15.052 69.4845714,13.432 L70.5285714,13.432 C70.6005714,14.416 71.2845714,15.136 72.3045714,15.136 C73.2885714,15.136 74.0445714,14.524 74.0445714,13.624 C74.0445714,12.748 73.2645714,12.136 72.2685714,12.136 L71.8125714,12.136 L71.8125714,11.2 L72.2685714,11.2 Z M78.6731428,7.624 C80.1971428,7.624 81.3371428,8.668 81.3371428,10.132 C81.3371428,11.092 80.8811428,11.86 79.8371428,12.844 L77.5091428,15.016 L81.4451428,15.016 L81.4451428,16 L75.9491428,16 L75.9491428,15.136 L79.2371428,12.052 C79.9691428,11.356 80.2691428,10.792 80.2691428,10.18 C80.2691428,9.292 79.5611428,8.62 78.6731428,8.62 C77.6891428,8.62 77.0531428,9.46 77.0411428,10.456 L76.0091428,10.456 C76.0091428,8.8 77.0771428,7.624 78.6731428,7.624 Z" id="Cell-Value" fill="#757575"></path>
                    </g>
                    <g>
                        <rect id="Background" stroke="#C9C9C9" fill="#F1F1F3" fill-rule="nonzero" x="0.5" y="0.5" width="21" height="23"></rect>
                        <path d="M10.97,11.128 C11.63,11.128 12.194,10.6 12.194,10 C12.194,9.376 11.69,8.908 10.982,8.908 C10.214,8.908 9.698,9.472 9.674,10.252 L8.306,10.252 C8.33,8.644 9.446,7.612 11.006,7.612 C12.518,7.612 13.61,8.572 13.598,9.844 C13.598,10.612 13.214,11.236 12.53,11.608 C13.418,11.932 13.958,12.676 13.958,13.6 C13.958,15.1 12.722,16.144 11.042,16.144 C9.29,16.144 8.15,15.064 8.126,13.336 L9.506,13.336 C9.566,14.188 10.202,14.836 11.078,14.836 C11.918,14.836 12.53,14.332 12.53,13.528 C12.53,12.772 11.858,12.268 10.97,12.268 L10.562,12.268 L10.562,11.128 L10.97,11.128 Z" id="1" fill="#808080"></path>
                    </g>
                </g>
            </g>
            <g id="Icon-/-No" transform="translate(170.000000, 5.000000)">
                <g id="Group-6">
                    <circle id="Oval" fill="#FB3703" fill-rule="nonzero" cx="7.5" cy="7.5" r="7.5"></circle>
                    <polygon id="+" fill="#FFFFFF" transform="translate(7.656854, 7.656854) rotate(-315.000000) translate(-7.656854, -7.656854) " points="3.65685425 8.46708879 3.65685425 6.81250457 6.82207164 6.81250457 6.82207164 3.65685425 8.49163686 3.65685425 8.49163686 6.81250457 11.6568542 6.81250457 11.6568542 8.46708879 8.49163686 8.46708879 8.49163686 11.6568542 6.82207164 11.6568542 6.82207164 8.46708879"></polygon>
                </g>
            </g>
            <path d="M8.848,4.8 L11.184,4.8 L11.184,16 L8.784,16 L3.52,8.608 L3.52,16 L1.184,16 L1.184,4.8 L3.632,4.8 L8.848,12.224 L8.848,4.8 Z M12.928,12.048 C12.928,9.696 14.768,7.888 17.216,7.888 C19.664,7.888 21.504,9.696 21.504,12.048 C21.504,14.4 19.664,16.208 17.216,16.208 C14.768,16.208 12.928,14.4 12.928,12.048 Z M15.232,12.048 C15.232,13.184 16.128,14.08 17.216,14.08 C18.304,14.08 19.2,13.184 19.2,12.048 C19.2,10.912 18.304,10.016 17.216,10.016 C16.128,10.016 15.232,10.912 15.232,12.048 Z" id="No" fill="#2A2A2A"></path>
            <g id="Icon-/-No" transform="translate(259.000000, 5.000000)">
                <g id="Group-6">
                    <circle id="Oval" fill="#FB3703" fill-rule="nonzero" cx="7.5" cy="7.5" r="7.5"></circle>
                    <polygon id="+" fill="#FFFFFF" transform="translate(7.656854, 7.656854) rotate(-315.000000) translate(-7.656854, -7.656854) " points="3.65685425 8.46708879 3.65685425 6.81250457 6.82207164 6.81250457 6.82207164 3.65685425 8.49163686 3.65685425 8.49163686 6.81250457 11.6568542 6.81250457 11.6568542 8.46708879 8.49163686 8.46708879 8.49163686 11.6568542 6.82207164 11.6568542 6.82207164 8.46708879"></polygon>
                </g>
            </g>
        </g>
    </g>
</svg>