<?xml version="1.0" encoding="UTF-8"?>
<svg width="406px" height="108px" viewBox="0 0 406 108" version="1.1" xmlns="http://www.w3.org/2000/svg" xmlns:xlink="http://www.w3.org/1999/xlink">
    <!-- Generator: Sketch 52.2 (67145) - http://www.bohemiancoding.com/sketch -->
    <title>no-table</title>
    <desc>Created with Sketch.</desc>
    <g id="Page-1" stroke="none" stroke-width="1" fill="none" fill-rule="evenodd">
        <g id="no-table">
            <g id="Group-5" transform="translate(0.000000, 26.000000)">
                <g id="Group-4">
                    <g transform="translate(25.000000, 0.000000)">
                        <rect id="Background" stroke="#C9C9C9" fill-rule="nonzero" x="0.5" y="0.5" width="118" height="27"></rect>
                        <path d="M10.728,14.1 C10.728,11.258 12.926,9.032 15.74,9.032 C16.776,9.032 17.742,9.34 18.61,9.914 L18.61,11.3 C17.658,10.586 16.72,10.236 15.712,10.236 C13.64,10.236 12.016,11.93 12.016,14.1 C12.016,16.242 13.64,17.95 15.712,17.95 C16.706,17.95 17.686,17.6 18.638,16.914 L18.638,18.3 C17.714,18.874 16.748,19.154 15.726,19.154 C12.926,19.154 10.728,16.928 10.728,14.1 Z M23.31,12.042 C25.354,12.042 26.866,13.624 26.866,15.598 C26.866,17.572 25.354,19.154 23.31,19.154 C21.266,19.154 19.754,17.572 19.754,15.598 C19.754,13.624 21.266,12.042 23.31,12.042 Z M23.31,13.148 C21.98,13.148 20.972,14.24 20.972,15.598 C20.972,16.956 21.98,18.048 23.31,18.048 C24.64,18.048 25.648,16.956 25.648,15.598 C25.648,14.24 24.64,13.148 23.31,13.148 Z M33.148,15.752 L33.148,12.196 L34.352,12.196 L34.352,19 L33.148,19 L33.148,18.02 C32.728,18.692 32.014,19.154 30.992,19.154 C29.27,19.154 28.276,17.992 28.276,16.186 L28.276,12.196 L29.48,12.196 L29.48,16.046 C29.48,17.264 30.096,18.034 31.244,18.034 C32.392,18.034 33.148,17.138 33.148,15.752 Z M37.596,15.444 L37.596,19 L36.392,19 L36.392,12.196 L37.596,12.196 L37.596,13.176 C38.016,12.504 38.744,12.042 39.766,12.042 C41.502,12.042 42.51,13.204 42.51,15.01 L42.51,19 L41.306,19 L41.306,15.15 C41.306,13.932 40.676,13.162 39.514,13.162 C38.352,13.162 37.596,14.058 37.596,15.444 Z M44.648,10.152 L45.852,10.152 L45.852,12.196 L47.756,12.196 L47.756,13.274 L45.852,13.274 L45.852,16.872 C45.852,17.67 46.202,18.034 46.986,18.034 C47.252,18.034 47.546,17.964 47.756,17.824 L47.756,18.944 C47.518,19.07 47.168,19.154 46.706,19.154 C45.418,19.154 44.648,18.356 44.648,17.04 L44.648,13.274 L43.598,13.274 L43.598,12.196 L44.648,12.196 L44.648,10.152 Z M52.708,12.112 L52.708,13.316 C52.708,13.316 52.582,13.288 52.372,13.288 C51.112,13.288 50.342,14.296 50.342,15.766 L50.342,19 L49.152,19 L49.152,12.196 L50.328,12.196 L50.328,13.4 C50.636,12.616 51.518,12.084 52.414,12.084 C52.582,12.084 52.708,12.112 52.708,12.112 Z M60.082,12.196 L56.806,20.036 C56.19,21.506 55.588,22.08 54.566,22.08 C54.272,22.08 54.02,22.024 53.824,21.94 L53.824,20.876 C53.978,20.932 54.216,20.988 54.468,20.988 C55.014,20.988 55.336,20.666 55.7,19.798 L56.106,18.818 L53.404,12.196 L54.692,12.196 L56.736,17.446 L58.836,12.196 L60.082,12.196 Z" id="Cell-Value" fill="#757575"></path>
                    </g>
                    <g transform="translate(143.000000, 0.000000)">
                        <rect id="Background" stroke="#C9C9C9" fill-rule="nonzero" x="0.5" y="0.5" width="131" height="27"></rect>
                        <path d="M43.26,19 L43.26,9.2 L46.312,9.2 C48.118,9.2 49.364,10.18 49.364,11.79 C49.364,12.714 48.958,13.428 48.188,13.792 C49.322,14.17 49.952,15.038 49.952,16.214 C49.952,17.964 48.636,19 46.606,19 L43.26,19 Z M44.506,17.894 L46.592,17.894 C47.866,17.894 48.692,17.264 48.692,16.172 C48.692,15.122 47.838,14.464 46.564,14.464 L44.506,14.464 L44.506,17.894 Z M44.506,13.386 L46.298,13.386 C47.39,13.386 48.132,12.812 48.132,11.846 C48.132,10.866 47.39,10.306 46.284,10.306 L44.506,10.306 L44.506,13.386 Z M54.638,19.154 C52.622,19.154 51.166,17.67 51.166,15.598 C51.166,13.568 52.622,12.042 54.554,12.042 C56.472,12.042 57.858,13.61 57.858,15.542 C57.858,15.808 57.844,15.976 57.844,15.976 L52.37,15.976 C52.454,17.18 53.476,18.076 54.652,18.076 C55.674,18.076 56.192,17.586 56.626,16.914 L57.606,17.418 C57.046,18.44 56.01,19.154 54.638,19.154 Z M52.398,14.982 L56.64,14.982 C56.514,13.904 55.646,13.092 54.526,13.092 C53.42,13.092 52.51,14.058 52.398,14.982 Z M62.39,19.154 C60.374,19.154 58.918,17.67 58.918,15.598 C58.918,13.568 60.374,12.042 62.306,12.042 C64.224,12.042 65.61,13.61 65.61,15.542 C65.61,15.808 65.596,15.976 65.596,15.976 L60.122,15.976 C60.206,17.18 61.228,18.076 62.404,18.076 C63.426,18.076 63.944,17.586 64.378,16.914 L65.358,17.418 C64.798,18.44 63.762,19.154 62.39,19.154 Z M60.15,14.982 L64.392,14.982 C64.266,13.904 63.398,13.092 62.278,13.092 C61.172,13.092 60.262,14.058 60.15,14.982 Z M70.646,12.112 L70.646,13.316 C70.646,13.316 70.52,13.288 70.31,13.288 C69.05,13.288 68.28,14.296 68.28,15.766 L68.28,19 L67.09,19 L67.09,12.196 L68.266,12.196 L68.266,13.4 C68.574,12.616 69.456,12.084 70.352,12.084 C70.52,12.084 70.646,12.112 70.646,12.112 Z M74.558,16.648 L75.72,16.228 C76.084,17.25 76.84,17.978 77.96,17.978 C78.954,17.978 79.794,17.39 79.794,16.368 C79.794,15.584 79.318,15.08 78.338,14.716 L77.19,14.282 C75.734,13.736 74.95,12.924 74.95,11.65 C74.95,10.04 76.224,9.032 77.82,9.032 C79.206,9.032 80.298,9.858 80.788,11.23 L79.654,11.706 C79.346,10.866 78.744,10.208 77.806,10.208 C76.91,10.208 76.21,10.754 76.21,11.58 C76.21,12.28 76.7,12.756 77.694,13.134 L78.828,13.568 C80.326,14.142 81.068,14.996 81.068,16.284 C81.068,18.062 79.668,19.154 77.918,19.154 C76.266,19.154 75.034,18.216 74.558,16.648 Z M85.67,19.154 C83.654,19.154 82.198,17.67 82.198,15.598 C82.198,13.568 83.654,12.042 85.586,12.042 C87.504,12.042 88.89,13.61 88.89,15.542 C88.89,15.808 88.876,15.976 88.876,15.976 L83.402,15.976 C83.486,17.18 84.508,18.076 85.684,18.076 C86.706,18.076 87.224,17.586 87.658,16.914 L88.638,17.418 C88.078,18.44 87.042,19.154 85.67,19.154 Z M83.43,14.982 L87.672,14.982 C87.546,13.904 86.678,13.092 85.558,13.092 C84.452,13.092 83.542,14.058 83.43,14.982 Z M93.926,12.112 L93.926,13.316 C93.926,13.316 93.8,13.288 93.59,13.288 C92.33,13.288 91.56,14.296 91.56,15.766 L91.56,19 L90.37,19 L90.37,12.196 L91.546,12.196 L91.546,13.4 C91.854,12.616 92.736,12.084 93.632,12.084 C93.8,12.084 93.926,12.112 93.926,12.112 Z M98.444,19 L97.464,19 L94.622,12.196 L95.91,12.196 L97.968,17.348 L100.026,12.196 L101.286,12.196 L98.444,19 Z M103.872,10.18 C103.872,10.628 103.508,10.992 103.06,10.992 C102.612,10.992 102.248,10.628 102.248,10.18 C102.248,9.732 102.612,9.368 103.06,9.368 C103.508,9.368 103.872,9.732 103.872,10.18 Z M102.458,12.196 L103.662,12.196 L103.662,19 L102.458,19 L102.458,12.196 Z M106.906,15.444 L106.906,19 L105.702,19 L105.702,12.196 L106.906,12.196 L106.906,13.176 C107.326,12.504 108.054,12.042 109.076,12.042 C110.812,12.042 111.82,13.204 111.82,15.01 L111.82,19 L110.616,19 L110.616,15.15 C110.616,13.932 109.986,13.162 108.824,13.162 C107.662,13.162 106.906,14.058 106.906,15.444 Z M118.942,17.698 C118.466,18.44 117.556,18.93 116.59,18.93 C114.728,18.93 113.272,17.446 113.272,15.5 C113.272,13.554 114.728,12.042 116.59,12.042 C117.556,12.042 118.452,12.476 118.942,13.218 L118.942,12.196 L120.132,12.196 L120.132,18.608 C120.132,20.722 118.802,22.08 116.758,22.08 C115.344,22.08 114.196,21.45 113.566,20.316 L114.518,19.644 C114.994,20.512 115.806,20.988 116.758,20.988 C118.088,20.988 118.942,20.078 118.942,18.636 L118.942,17.698 Z M119.012,15.5 C119.012,14.184 118.032,13.148 116.744,13.148 C115.456,13.148 114.49,14.184 114.49,15.5 C114.49,16.816 115.456,17.852 116.744,17.852 C118.032,17.852 119.012,16.816 119.012,15.5 Z" id="Cell-Value" fill="#757575"></path>
                    </g>
                    <g transform="translate(274.000000, 0.000000)">
                        <rect id="Background" stroke="#C9C9C9" fill-rule="nonzero" x="0.5" y="0.5" width="131" height="27"></rect>
                        <path d="M43.312,19 L42.514,19 L39.196,9.2 L40.484,9.2 L42.948,16.676 L45.524,9.2 L46.294,9.2 L48.87,16.676 L51.348,9.2 L52.608,9.2 L49.276,19 L48.478,19 L45.888,11.538 L43.312,19 Z M55.138,10.18 C55.138,10.628 54.774,10.992 54.326,10.992 C53.878,10.992 53.514,10.628 53.514,10.18 C53.514,9.732 53.878,9.368 54.326,9.368 C54.774,9.368 55.138,9.732 55.138,10.18 Z M53.724,12.196 L54.928,12.196 L54.928,19 L53.724,19 L53.724,12.196 Z M58.172,15.444 L58.172,19 L56.968,19 L56.968,12.196 L58.172,12.196 L58.172,13.176 C58.592,12.504 59.32,12.042 60.342,12.042 C62.078,12.042 63.086,13.204 63.086,15.01 L63.086,19 L61.882,19 L61.882,15.15 C61.882,13.932 61.252,13.162 60.09,13.162 C58.928,13.162 58.172,14.058 58.172,15.444 Z M68.01,19.154 C65.994,19.154 64.538,17.67 64.538,15.598 C64.538,13.568 65.994,12.042 67.926,12.042 C69.844,12.042 71.23,13.61 71.23,15.542 C71.23,15.808 71.216,15.976 71.216,15.976 L65.742,15.976 C65.826,17.18 66.848,18.076 68.024,18.076 C69.046,18.076 69.564,17.586 69.998,16.914 L70.978,17.418 C70.418,18.44 69.382,19.154 68.01,19.154 Z M65.77,14.982 L70.012,14.982 C69.886,13.904 69.018,13.092 67.898,13.092 C66.792,13.092 65.882,14.058 65.77,14.982 Z M75.338,16.648 L76.5,16.228 C76.864,17.25 77.62,17.978 78.74,17.978 C79.734,17.978 80.574,17.39 80.574,16.368 C80.574,15.584 80.098,15.08 79.118,14.716 L77.97,14.282 C76.514,13.736 75.73,12.924 75.73,11.65 C75.73,10.04 77.004,9.032 78.6,9.032 C79.986,9.032 81.078,9.858 81.568,11.23 L80.434,11.706 C80.126,10.866 79.524,10.208 78.586,10.208 C77.69,10.208 76.99,10.754 76.99,11.58 C76.99,12.28 77.48,12.756 78.474,13.134 L79.608,13.568 C81.106,14.142 81.848,14.996 81.848,16.284 C81.848,18.062 80.448,19.154 78.698,19.154 C77.046,19.154 75.814,18.216 75.338,16.648 Z M86.45,19.154 C84.434,19.154 82.978,17.67 82.978,15.598 C82.978,13.568 84.434,12.042 86.366,12.042 C88.284,12.042 89.67,13.61 89.67,15.542 C89.67,15.808 89.656,15.976 89.656,15.976 L84.182,15.976 C84.266,17.18 85.288,18.076 86.464,18.076 C87.486,18.076 88.004,17.586 88.438,16.914 L89.418,17.418 C88.858,18.44 87.822,19.154 86.45,19.154 Z M84.21,14.982 L88.452,14.982 C88.326,13.904 87.458,13.092 86.338,13.092 C85.232,13.092 84.322,14.058 84.21,14.982 Z M94.706,12.112 L94.706,13.316 C94.706,13.316 94.58,13.288 94.37,13.288 C93.11,13.288 92.34,14.296 92.34,15.766 L92.34,19 L91.15,19 L91.15,12.196 L92.326,12.196 L92.326,13.4 C92.634,12.616 93.516,12.084 94.412,12.084 C94.58,12.084 94.706,12.112 94.706,12.112 Z M99.224,19 L98.244,19 L95.402,12.196 L96.69,12.196 L98.748,17.348 L100.806,12.196 L102.066,12.196 L99.224,19 Z M104.652,10.18 C104.652,10.628 104.288,10.992 103.84,10.992 C103.392,10.992 103.028,10.628 103.028,10.18 C103.028,9.732 103.392,9.368 103.84,9.368 C104.288,9.368 104.652,9.732 104.652,10.18 Z M103.238,12.196 L104.442,12.196 L104.442,19 L103.238,19 L103.238,12.196 Z M107.686,15.444 L107.686,19 L106.482,19 L106.482,12.196 L107.686,12.196 L107.686,13.176 C108.106,12.504 108.834,12.042 109.856,12.042 C111.592,12.042 112.6,13.204 112.6,15.01 L112.6,19 L111.396,19 L111.396,15.15 C111.396,13.932 110.766,13.162 109.604,13.162 C108.442,13.162 107.686,14.058 107.686,15.444 Z M119.722,17.698 C119.246,18.44 118.336,18.93 117.37,18.93 C115.508,18.93 114.052,17.446 114.052,15.5 C114.052,13.554 115.508,12.042 117.37,12.042 C118.336,12.042 119.232,12.476 119.722,13.218 L119.722,12.196 L120.912,12.196 L120.912,18.608 C120.912,20.722 119.582,22.08 117.538,22.08 C116.124,22.08 114.976,21.45 114.346,20.316 L115.298,19.644 C115.774,20.512 116.586,20.988 117.538,20.988 C118.868,20.988 119.722,20.078 119.722,18.636 L119.722,17.698 Z M119.792,15.5 C119.792,14.184 118.812,13.148 117.524,13.148 C116.236,13.148 115.27,14.184 115.27,15.5 C115.27,16.816 116.236,17.852 117.524,17.852 C118.812,17.852 119.792,16.816 119.792,15.5 Z" id="Cell-Value" fill="#757575"></path>
                    </g>
                    <g>
                        <rect id="Background" stroke="#C9C9C9" fill="#F1F1F3" fill-rule="nonzero" x="0.5" y="0.5" width="25" height="27"></rect>
                        <polygon id="1" fill="#808080" points="14.344 19 12.692 19 12.692 10.922 10.998 10.922 10.998 9.382 14.344 9.382"></polygon>
                    </g>
                </g>
                <g id="Group-4" transform="translate(0.000000, 27.000000)">
                    <g transform="translate(25.000000, 0.000000)">
                        <rect id="Background" stroke="#C9C9C9" fill-rule="nonzero" x="0.5" y="0.5" width="118" height="27"></rect>
                        <path d="M14.214,9.2 L15.194,9.2 L19.226,19 L17.91,19 L16.762,16.158 L12.604,16.158 L11.456,19 L10.168,19 L14.214,9.2 Z M14.676,10.95 L13.052,15.024 L16.314,15.024 L14.676,10.95 Z M21.826,19 L20.622,19 L20.622,13.274 L19.572,13.274 L19.572,12.196 L20.622,12.196 L20.622,11.608 C20.622,9.872 21.616,9.032 22.96,9.032 C23.45,9.032 23.772,9.116 23.982,9.2 L23.982,10.278 C23.772,10.194 23.506,10.138 23.156,10.138 C22.4,10.138 21.826,10.516 21.826,11.58 L21.826,12.196 L23.73,12.196 L23.73,13.274 L21.826,13.274 L21.826,19 Z M29.788,17.698 C29.312,18.44 28.402,18.93 27.436,18.93 C25.574,18.93 24.118,17.446 24.118,15.5 C24.118,13.554 25.574,12.042 27.436,12.042 C28.402,12.042 29.298,12.476 29.788,13.218 L29.788,12.196 L30.978,12.196 L30.978,18.608 C30.978,20.722 29.648,22.08 27.604,22.08 C26.19,22.08 25.042,21.45 24.412,20.316 L25.364,19.644 C25.84,20.512 26.652,20.988 27.604,20.988 C28.934,20.988 29.788,20.078 29.788,18.636 L29.788,17.698 Z M29.858,15.5 C29.858,14.184 28.878,13.148 27.59,13.148 C26.302,13.148 25.336,14.184 25.336,15.5 C25.336,16.816 26.302,17.852 27.59,17.852 C28.878,17.852 29.858,16.816 29.858,15.5 Z M34.222,15.444 L34.222,19 L33.018,19 L33.018,9.2 L34.222,9.2 L34.222,13.176 C34.642,12.504 35.37,12.042 36.392,12.042 C38.128,12.042 39.136,13.204 39.136,15.01 L39.136,19 L37.932,19 L37.932,15.15 C37.932,13.932 37.302,13.162 36.14,13.162 C34.978,13.162 34.222,14.058 34.222,15.444 Z M46.412,12.196 L47.602,12.196 L47.602,19 L46.412,19 L46.412,17.908 C45.922,18.664 44.998,19.154 44.004,19.154 C42.072,19.154 40.588,17.614 40.588,15.598 C40.588,13.596 42.072,12.042 44.004,12.042 C44.998,12.042 45.908,12.476 46.412,13.232 L46.412,12.196 Z M46.482,15.598 C46.482,14.226 45.474,13.148 44.144,13.148 C42.814,13.148 41.806,14.226 41.806,15.598 C41.806,16.97 42.814,18.048 44.144,18.048 C45.474,18.048 46.482,16.97 46.482,15.598 Z M50.846,15.444 L50.846,19 L49.642,19 L49.642,12.196 L50.846,12.196 L50.846,13.176 C51.266,12.504 51.994,12.042 53.016,12.042 C54.752,12.042 55.76,13.204 55.76,15.01 L55.76,19 L54.556,19 L54.556,15.15 C54.556,13.932 53.926,13.162 52.764,13.162 C51.602,13.162 50.846,14.058 50.846,15.444 Z M59.116,10.18 C59.116,10.628 58.752,10.992 58.304,10.992 C57.856,10.992 57.492,10.628 57.492,10.18 C57.492,9.732 57.856,9.368 58.304,9.368 C58.752,9.368 59.116,9.732 59.116,10.18 Z M57.702,12.196 L58.906,12.196 L58.906,19 L57.702,19 L57.702,12.196 Z M60.302,17.306 L61.366,16.9 C61.576,17.628 62.164,18.104 62.878,18.104 C63.452,18.104 64.012,17.754 64.012,17.152 C64.012,16.69 63.704,16.396 63.046,16.172 L62.29,15.92 C61.072,15.514 60.54,14.856 60.54,13.988 C60.54,12.84 61.492,12.042 62.752,12.042 C63.858,12.042 64.712,12.672 65.076,13.694 L64.026,14.114 C63.788,13.456 63.326,13.078 62.724,13.078 C62.164,13.078 61.73,13.414 61.73,13.904 C61.73,14.31 62.038,14.618 62.724,14.856 L63.424,15.094 C64.656,15.514 65.202,16.186 65.202,17.082 C65.202,18.286 64.18,19.154 62.85,19.154 C61.59,19.154 60.61,18.426 60.302,17.306 Z M66.892,10.152 L68.096,10.152 L68.096,12.196 L70,12.196 L70,13.274 L68.096,13.274 L68.096,16.872 C68.096,17.67 68.446,18.034 69.23,18.034 C69.496,18.034 69.79,17.964 70,17.824 L70,18.944 C69.762,19.07 69.412,19.154 68.95,19.154 C67.662,19.154 66.892,18.356 66.892,17.04 L66.892,13.274 L65.842,13.274 L65.842,12.196 L66.892,12.196 L66.892,10.152 Z M76.66,12.196 L77.85,12.196 L77.85,19 L76.66,19 L76.66,17.908 C76.17,18.664 75.246,19.154 74.252,19.154 C72.32,19.154 70.836,17.614 70.836,15.598 C70.836,13.596 72.32,12.042 74.252,12.042 C75.246,12.042 76.156,12.476 76.66,13.232 L76.66,12.196 Z M76.73,15.598 C76.73,14.226 75.722,13.148 74.392,13.148 C73.062,13.148 72.054,14.226 72.054,15.598 C72.054,16.97 73.062,18.048 74.392,18.048 C75.722,18.048 76.73,16.97 76.73,15.598 Z M81.094,15.444 L81.094,19 L79.89,19 L79.89,12.196 L81.094,12.196 L81.094,13.176 C81.514,12.504 82.242,12.042 83.264,12.042 C85,12.042 86.008,13.204 86.008,15.01 L86.008,19 L84.804,19 L84.804,15.15 C84.804,13.932 84.174,13.162 83.012,13.162 C81.85,13.162 81.094,14.058 81.094,15.444 Z" id="Cell-Value" fill="#757575"></path>
                    </g>
                    <g transform="translate(143.000000, 0.000000)">
                        <rect id="Background" stroke="#C9C9C9" fill-rule="nonzero" x="0.5" y="0.5" width="131" height="27"></rect>
                        <path d="M116.662,19.154 C114.044,19.154 112.784,16.788 112.784,14.198 C112.784,11.594 114.044,9.228 116.662,9.228 C119.28,9.228 120.54,11.594 120.54,14.198 C120.54,16.788 119.28,19.154 116.662,19.154 Z M116.662,17.992 C118.482,17.992 119.294,16.158 119.294,14.198 C119.294,12.238 118.482,10.39 116.662,10.39 C114.842,10.39 114.03,12.238 114.03,14.198 C114.03,16.158 114.842,17.992 116.662,17.992 Z" id="Cell-Value" fill="#757575"></path>
                    </g>
                    <g transform="translate(274.000000, 0.000000)">
                        <rect id="Background" stroke="#C9C9C9" fill-rule="nonzero" x="0.5" y="0.5" width="131" height="27"></rect>
                        <path d="M116.662,19.154 C114.044,19.154 112.784,16.788 112.784,14.198 C112.784,11.594 114.044,9.228 116.662,9.228 C119.28,9.228 120.54,11.594 120.54,14.198 C120.54,16.788 119.28,19.154 116.662,19.154 Z M116.662,17.992 C118.482,17.992 119.294,16.158 119.294,14.198 C119.294,12.238 118.482,10.39 116.662,10.39 C114.842,10.39 114.03,12.238 114.03,14.198 C114.03,16.158 114.842,17.992 116.662,17.992 Z" id="Cell-Value" fill="#757575"></path>
                    </g>
                    <g>
                        <rect id="Background" stroke="#C9C9C9" fill="#F1F1F3" fill-rule="nonzero" x="0.5" y="0.5" width="25" height="27"></rect>
                        <path d="M12.986,9.214 C14.862,9.214 16.248,10.474 16.248,12.238 C16.248,13.4 15.688,14.296 14.344,15.486 L12.048,17.502 L16.346,17.502 L16.346,19 L9.682,19 L9.682,17.67 L13.434,14.296 C14.246,13.554 14.582,12.966 14.582,12.336 C14.582,11.44 13.882,10.768 12.986,10.768 C11.992,10.768 11.362,11.594 11.348,12.658 L9.724,12.658 C9.724,10.614 11.026,9.214 12.986,9.214 Z" id="1" fill="#808080"></path>
                    </g>
                </g>
                <g id="Group-4" transform="translate(0.000000, 54.000000)">
                    <g transform="translate(25.000000, 0.000000)">
                        <rect id="Background" stroke="#C9C9C9" fill-rule="nonzero" x="0.5" y="0.5" width="118" height="27"></rect>
                        <path d="M14.214,9.2 L15.194,9.2 L19.226,19 L17.91,19 L16.762,16.158 L12.604,16.158 L11.456,19 L10.168,19 L14.214,9.2 Z M14.676,10.95 L13.052,15.024 L16.314,15.024 L14.676,10.95 Z M20.314,9.2 L21.518,9.2 L21.518,19 L20.314,19 L20.314,9.2 Z M24.748,19 L23.558,19 L23.558,9.2 L24.748,9.2 L24.748,13.274 C25.238,12.532 26.162,12.042 27.156,12.042 C29.088,12.042 30.572,13.582 30.572,15.598 C30.572,17.6 29.088,19.154 27.156,19.154 C26.162,19.154 25.252,18.72 24.748,17.978 L24.748,19 Z M29.354,15.598 C29.354,14.226 28.346,13.148 27.016,13.148 C25.686,13.148 24.678,14.226 24.678,15.598 C24.678,16.97 25.686,18.048 27.016,18.048 C28.346,18.048 29.354,16.97 29.354,15.598 Z M37.526,12.196 L38.716,12.196 L38.716,19 L37.526,19 L37.526,17.908 C37.036,18.664 36.112,19.154 35.118,19.154 C33.186,19.154 31.702,17.614 31.702,15.598 C31.702,13.596 33.186,12.042 35.118,12.042 C36.112,12.042 37.022,12.476 37.526,13.232 L37.526,12.196 Z M37.596,15.598 C37.596,14.226 36.588,13.148 35.258,13.148 C33.928,13.148 32.92,14.226 32.92,15.598 C32.92,16.97 33.928,18.048 35.258,18.048 C36.588,18.048 37.596,16.97 37.596,15.598 Z M41.96,15.444 L41.96,19 L40.756,19 L40.756,12.196 L41.96,12.196 L41.96,13.176 C42.38,12.504 43.108,12.042 44.13,12.042 C45.866,12.042 46.874,13.204 46.874,15.01 L46.874,19 L45.67,19 L45.67,15.15 C45.67,13.932 45.04,13.162 43.878,13.162 C42.716,13.162 41.96,14.058 41.96,15.444 Z M50.23,10.18 C50.23,10.628 49.866,10.992 49.418,10.992 C48.97,10.992 48.606,10.628 48.606,10.18 C48.606,9.732 48.97,9.368 49.418,9.368 C49.866,9.368 50.23,9.732 50.23,10.18 Z M48.816,12.196 L50.02,12.196 L50.02,19 L48.816,19 L48.816,12.196 Z M57.394,12.196 L58.584,12.196 L58.584,19 L57.394,19 L57.394,17.908 C56.904,18.664 55.98,19.154 54.986,19.154 C53.054,19.154 51.57,17.614 51.57,15.598 C51.57,13.596 53.054,12.042 54.986,12.042 C55.98,12.042 56.89,12.476 57.394,13.232 L57.394,12.196 Z M57.464,15.598 C57.464,14.226 56.456,13.148 55.126,13.148 C53.796,13.148 52.788,14.226 52.788,15.598 C52.788,16.97 53.796,18.048 55.126,18.048 C56.456,18.048 57.464,16.97 57.464,15.598 Z" id="Cell-Value" fill="#757575"></path>
                    </g>
                    <g transform="translate(143.000000, 0.000000)">
                        <rect id="Background" stroke="#C9C9C9" fill-rule="nonzero" x="0.5" y="0.5" width="131" height="27"></rect>
                        <path d="M109.794,9.228 C111.572,9.228 112.902,10.446 112.902,12.154 C112.902,13.274 112.37,14.17 111.152,15.318 L108.436,17.852 L113.028,17.852 L113.028,19 L106.616,19 L106.616,17.992 L110.452,14.394 C111.306,13.582 111.656,12.924 111.656,12.21 C111.656,11.174 110.83,10.39 109.794,10.39 C108.646,10.39 107.904,11.37 107.89,12.532 L106.686,12.532 C106.686,10.6 107.932,9.228 109.794,9.228 Z M113.99,12.63 C113.99,10.726 115.516,9.228 117.462,9.228 C119.464,9.228 120.948,10.698 120.948,12.644 C120.948,13.456 120.654,14.352 119.87,15.528 L117.574,19 L116.09,19 L118.386,15.598 C118.106,15.766 117.742,15.878 117.238,15.878 C115.376,15.878 113.99,14.422 113.99,12.63 Z M115.236,12.574 C115.236,13.834 116.23,14.772 117.462,14.772 C118.722,14.772 119.702,13.834 119.702,12.588 C119.702,11.37 118.736,10.39 117.476,10.39 C116.23,10.39 115.236,11.37 115.236,12.574 Z" id="Cell-Value" fill="#757575"></path>
                    </g>
                    <g transform="translate(274.000000, 0.000000)">
                        <rect id="Background" stroke="#C9C9C9" fill-rule="nonzero" x="0.5" y="0.5" width="131" height="27"></rect>
                        <path d="M105.5,19 L104.268,19 L104.268,10.558 L102.532,10.558 L102.532,9.382 L105.5,9.382 L105.5,19 Z M110.48,13.4 C111.362,13.4 112.174,12.686 112.174,11.888 C112.174,11.02 111.432,10.376 110.466,10.376 C109.43,10.376 108.702,11.146 108.674,12.196 L107.47,12.196 C107.498,10.404 108.758,9.228 110.494,9.228 C112.188,9.228 113.392,10.32 113.392,11.776 C113.392,12.686 112.902,13.47 112.048,13.876 C113.112,14.226 113.798,15.15 113.798,16.242 C113.798,17.95 112.398,19.154 110.522,19.154 C108.562,19.154 107.26,17.894 107.232,16.004 L108.45,16.004 C108.534,17.152 109.332,17.992 110.522,17.992 C111.67,17.992 112.552,17.278 112.552,16.228 C112.552,15.206 111.642,14.492 110.48,14.492 L109.948,14.492 L109.948,13.4 L110.48,13.4 Z M117.952,9.228 C119.73,9.228 121.06,10.446 121.06,12.154 C121.06,13.274 120.528,14.17 119.31,15.318 L116.594,17.852 L121.186,17.852 L121.186,19 L114.774,19 L114.774,17.992 L118.61,14.394 C119.464,13.582 119.814,12.924 119.814,12.21 C119.814,11.174 118.988,10.39 117.952,10.39 C116.804,10.39 116.062,11.37 116.048,12.532 L114.844,12.532 C114.844,10.6 116.09,9.228 117.952,9.228 Z" id="Cell-Value" fill="#757575"></path>
                    </g>
                    <g>
                        <rect id="Background" stroke="#C9C9C9" fill="#F1F1F3" fill-rule="nonzero" x="0.5" y="0.5" width="25" height="27"></rect>
                        <path d="M12.965,13.316 C13.735,13.316 14.393,12.7 14.393,12 C14.393,11.272 13.805,10.726 12.979,10.726 C12.083,10.726 11.481,11.384 11.453,12.294 L9.857,12.294 C9.885,10.418 11.187,9.214 13.007,9.214 C14.771,9.214 16.045,10.334 16.031,11.818 C16.031,12.714 15.583,13.442 14.785,13.876 C15.821,14.254 16.451,15.122 16.451,16.2 C16.451,17.95 15.009,19.168 13.049,19.168 C11.005,19.168 9.675,17.908 9.647,15.892 L11.257,15.892 C11.327,16.886 12.069,17.642 13.091,17.642 C14.071,17.642 14.785,17.054 14.785,16.116 C14.785,15.234 14.001,14.646 12.965,14.646 L12.489,14.646 L12.489,13.316 L12.965,13.316 Z" id="1" fill="#808080"></path>
                    </g>
                </g>
            </g>
            <g id="Group-6" transform="translate(250.000000, 2.000000)">
                <circle id="Oval" fill="#FB3703" fill-rule="nonzero" cx="7.5" cy="7.5" r="7.5"></circle>
                <polygon id="+" fill="#FFFFFF" transform="translate(7.656854, 7.656854) rotate(-315.000000) translate(-7.656854, -7.656854) " points="3.65685425 8.46708879 3.65685425 6.81250457 6.82207164 6.81250457 6.82207164 3.65685425 8.49163686 3.65685425 8.49163686 6.81250457 11.6568542 6.81250457 11.6568542 8.46708879 8.49163686 8.46708879 8.49163686 11.6568542 6.82207164 11.6568542 6.82207164 8.46708879"></polygon>
            </g>
            <path d="M12.954,0.4 L15.582,0.4 L15.582,13 L12.882,13 L6.96,4.684 L6.96,13 L4.332,13 L4.332,0.4 L7.086,0.4 L12.954,8.752 L12.954,0.4 Z M17.544,8.554 C17.544,5.908 19.614,3.874 22.368,3.874 C25.122,3.874 27.192,5.908 27.192,8.554 C27.192,11.2 25.122,13.234 22.368,13.234 C19.614,13.234 17.544,11.2 17.544,8.554 Z M20.136,8.554 C20.136,9.832 21.144,10.84 22.368,10.84 C23.592,10.84 24.6,9.832 24.6,8.554 C24.6,7.276 23.592,6.268 22.368,6.268 C21.144,6.268 20.136,7.276 20.136,8.554 Z" id="No" fill="#2A2A2A"></path>
            <g id="Group-6" transform="translate(379.000000, 2.000000)">
                <circle id="Oval" fill="#FB3703" fill-rule="nonzero" cx="7.5" cy="7.5" r="7.5"></circle>
                <polygon id="+" fill="#FFFFFF" transform="translate(7.656854, 7.656854) rotate(-315.000000) translate(-7.656854, -7.656854) " points="3.65685425 8.46708879 3.65685425 6.81250457 6.82207164 6.81250457 6.82207164 3.65685425 8.49163686 3.65685425 8.49163686 6.81250457 11.6568542 6.81250457 11.6568542 8.46708879 8.49163686 8.46708879 8.49163686 11.6568542 6.82207164 11.6568542 6.82207164 8.46708879"></polygon>
            </g>
        </g>
    </g>
</svg>