<?xml version="1.0" encoding="UTF-8"?>
<svg width="406px" height="162px" viewBox="0 0 406 162" version="1.1" xmlns="http://www.w3.org/2000/svg" xmlns:xlink="http://www.w3.org/1999/xlink">
    <!-- Generator: Sketch 52.2 (67145) - http://www.bohemiancoding.com/sketch -->
    <title>yes-table</title>
    <desc>Created with Sketch.</desc>
    <g id="Page-1" stroke="none" stroke-width="1" fill="none" fill-rule="evenodd">
        <g id="yes-table">
            <g id="Group-8" transform="translate(0.000000, 26.000000)">
                <g id="Group-5">
                    <g id="Group-4">
                        <g transform="translate(25.000000, 0.000000)">
                            <rect id="Background" stroke="#C9C9C9" fill-rule="nonzero" x="0.5" y="0.5" width="118" height="27"></rect>
                            <path d="M10.728,14.1 C10.728,11.258 12.926,9.032 15.74,9.032 C16.776,9.032 17.742,9.34 18.61,9.914 L18.61,11.3 C17.658,10.586 16.72,10.236 15.712,10.236 C13.64,10.236 12.016,11.93 12.016,14.1 C12.016,16.242 13.64,17.95 15.712,17.95 C16.706,17.95 17.686,17.6 18.638,16.914 L18.638,18.3 C17.714,18.874 16.748,19.154 15.726,19.154 C12.926,19.154 10.728,16.928 10.728,14.1 Z M23.31,12.042 C25.354,12.042 26.866,13.624 26.866,15.598 C26.866,17.572 25.354,19.154 23.31,19.154 C21.266,19.154 19.754,17.572 19.754,15.598 C19.754,13.624 21.266,12.042 23.31,12.042 Z M23.31,13.148 C21.98,13.148 20.972,14.24 20.972,15.598 C20.972,16.956 21.98,18.048 23.31,18.048 C24.64,18.048 25.648,16.956 25.648,15.598 C25.648,14.24 24.64,13.148 23.31,13.148 Z M33.148,15.752 L33.148,12.196 L34.352,12.196 L34.352,19 L33.148,19 L33.148,18.02 C32.728,18.692 32.014,19.154 30.992,19.154 C29.27,19.154 28.276,17.992 28.276,16.186 L28.276,12.196 L29.48,12.196 L29.48,16.046 C29.48,17.264 30.096,18.034 31.244,18.034 C32.392,18.034 33.148,17.138 33.148,15.752 Z M37.596,15.444 L37.596,19 L36.392,19 L36.392,12.196 L37.596,12.196 L37.596,13.176 C38.016,12.504 38.744,12.042 39.766,12.042 C41.502,12.042 42.51,13.204 42.51,15.01 L42.51,19 L41.306,19 L41.306,15.15 C41.306,13.932 40.676,13.162 39.514,13.162 C38.352,13.162 37.596,14.058 37.596,15.444 Z M44.648,10.152 L45.852,10.152 L45.852,12.196 L47.756,12.196 L47.756,13.274 L45.852,13.274 L45.852,16.872 C45.852,17.67 46.202,18.034 46.986,18.034 C47.252,18.034 47.546,17.964 47.756,17.824 L47.756,18.944 C47.518,19.07 47.168,19.154 46.706,19.154 C45.418,19.154 44.648,18.356 44.648,17.04 L44.648,13.274 L43.598,13.274 L43.598,12.196 L44.648,12.196 L44.648,10.152 Z M52.708,12.112 L52.708,13.316 C52.708,13.316 52.582,13.288 52.372,13.288 C51.112,13.288 50.342,14.296 50.342,15.766 L50.342,19 L49.152,19 L49.152,12.196 L50.328,12.196 L50.328,13.4 C50.636,12.616 51.518,12.084 52.414,12.084 C52.582,12.084 52.708,12.112 52.708,12.112 Z M60.082,12.196 L56.806,20.036 C56.19,21.506 55.588,22.08 54.566,22.08 C54.272,22.08 54.02,22.024 53.824,21.94 L53.824,20.876 C53.978,20.932 54.216,20.988 54.468,20.988 C55.014,20.988 55.336,20.666 55.7,19.798 L56.106,18.818 L53.404,12.196 L54.692,12.196 L56.736,17.446 L58.836,12.196 L60.082,12.196 Z" id="Cell-Value" fill="#757575"></path>
                        </g>
                        <g transform="translate(143.000000, 0.000000)">
                            <rect id="Background" stroke="#C9C9C9" fill-rule="nonzero" x="0.5" y="0.5" width="131" height="27"></rect>
                            <path d="M65.226,14.1 C65.226,16.886 63.07,19 60.354,19 L57.26,19 L57.26,9.2 L60.354,9.2 C63.07,9.2 65.226,11.314 65.226,14.1 Z M63.938,14.1 C63.938,12 62.412,10.362 60.326,10.362 L58.506,10.362 L58.506,17.838 L60.326,17.838 C62.412,17.838 63.938,16.2 63.938,14.1 Z M70.43,12.112 L70.43,13.316 C70.43,13.316 70.304,13.288 70.094,13.288 C68.834,13.288 68.064,14.296 68.064,15.766 L68.064,19 L66.874,19 L66.874,12.196 L68.05,12.196 L68.05,13.4 C68.358,12.616 69.24,12.084 70.136,12.084 C70.304,12.084 70.43,12.112 70.43,12.112 Z M73.128,10.18 C73.128,10.628 72.764,10.992 72.316,10.992 C71.868,10.992 71.504,10.628 71.504,10.18 C71.504,9.732 71.868,9.368 72.316,9.368 C72.764,9.368 73.128,9.732 73.128,10.18 Z M71.714,12.196 L72.918,12.196 L72.918,19 L71.714,19 L71.714,12.196 Z M76.162,15.444 L76.162,19 L74.958,19 L74.958,12.196 L76.162,12.196 L76.162,13.176 C76.582,12.504 77.31,12.042 78.332,12.042 C80.068,12.042 81.076,13.204 81.076,15.01 L81.076,19 L79.872,19 L79.872,15.15 C79.872,13.932 79.242,13.162 78.08,13.162 C76.918,13.162 76.162,14.058 76.162,15.444 Z M84.208,9.2 L84.208,14.898 L87.064,12.196 L88.604,12.196 L85.51,15.094 L88.87,19 L87.344,19 L84.67,15.836 L84.208,16.27 L84.208,19 L83.018,19 L83.018,9.2 L84.208,9.2 Z M92.32,10.348 L92.32,9.2 L99.292,9.2 L99.292,10.348 L96.436,10.348 L96.436,19 L95.176,19 L95.176,10.348 L92.32,10.348 Z M105.462,12.196 L102.186,20.036 C101.57,21.506 100.968,22.08 99.946,22.08 C99.652,22.08 99.4,22.024 99.204,21.94 L99.204,20.876 C99.358,20.932 99.596,20.988 99.848,20.988 C100.394,20.988 100.716,20.666 101.08,19.798 L101.486,18.818 L98.784,12.196 L100.072,12.196 L102.116,17.446 L104.216,12.196 L105.462,12.196 Z M107.824,21.912 L106.634,21.912 L106.634,12.196 L107.824,12.196 L107.824,13.274 C108.314,12.532 109.238,12.042 110.232,12.042 C112.164,12.042 113.648,13.582 113.648,15.598 C113.648,17.6 112.164,19.154 110.232,19.154 C109.238,19.154 108.328,18.72 107.824,17.978 L107.824,21.912 Z M112.43,15.598 C112.43,14.226 111.422,13.148 110.092,13.148 C108.762,13.148 107.754,14.226 107.754,15.598 C107.754,16.97 108.762,18.048 110.092,18.048 C111.422,18.048 112.43,16.97 112.43,15.598 Z M118.25,19.154 C116.234,19.154 114.778,17.67 114.778,15.598 C114.778,13.568 116.234,12.042 118.166,12.042 C120.084,12.042 121.47,13.61 121.47,15.542 C121.47,15.808 121.456,15.976 121.456,15.976 L115.982,15.976 C116.066,17.18 117.088,18.076 118.264,18.076 C119.286,18.076 119.804,17.586 120.238,16.914 L121.218,17.418 C120.658,18.44 119.622,19.154 118.25,19.154 Z M116.01,14.982 L120.252,14.982 C120.126,13.904 119.258,13.092 118.138,13.092 C117.032,13.092 116.122,14.058 116.01,14.982 Z" id="Cell-Value" fill="#757575"></path>
                        </g>
                        <g transform="translate(274.000000, 0.000000)">
                            <rect id="Background" stroke="#C9C9C9" fill-rule="nonzero" x="0.5" y="0.5" width="131" height="27"></rect>
                            <path d="M74.518,16.648 L75.68,16.228 C76.044,17.25 76.8,17.978 77.92,17.978 C78.914,17.978 79.754,17.39 79.754,16.368 C79.754,15.584 79.278,15.08 78.298,14.716 L77.15,14.282 C75.694,13.736 74.91,12.924 74.91,11.65 C74.91,10.04 76.184,9.032 77.78,9.032 C79.166,9.032 80.258,9.858 80.748,11.23 L79.614,11.706 C79.306,10.866 78.704,10.208 77.766,10.208 C76.87,10.208 76.17,10.754 76.17,11.58 C76.17,12.28 76.66,12.756 77.654,13.134 L78.788,13.568 C80.286,14.142 81.028,14.996 81.028,16.284 C81.028,18.062 79.628,19.154 77.878,19.154 C76.226,19.154 74.994,18.216 74.518,16.648 Z M85.63,19.154 C83.614,19.154 82.158,17.67 82.158,15.598 C82.158,13.568 83.614,12.042 85.546,12.042 C87.464,12.042 88.85,13.61 88.85,15.542 C88.85,15.808 88.836,15.976 88.836,15.976 L83.362,15.976 C83.446,17.18 84.468,18.076 85.644,18.076 C86.666,18.076 87.184,17.586 87.618,16.914 L88.598,17.418 C88.038,18.44 87.002,19.154 85.63,19.154 Z M83.39,14.982 L87.632,14.982 C87.506,13.904 86.638,13.092 85.518,13.092 C84.412,13.092 83.502,14.058 83.39,14.982 Z M93.886,12.112 L93.886,13.316 C93.886,13.316 93.76,13.288 93.55,13.288 C92.29,13.288 91.52,14.296 91.52,15.766 L91.52,19 L90.33,19 L90.33,12.196 L91.506,12.196 L91.506,13.4 C91.814,12.616 92.696,12.084 93.592,12.084 C93.76,12.084 93.886,12.112 93.886,12.112 Z M98.404,19 L97.424,19 L94.582,12.196 L95.87,12.196 L97.928,17.348 L99.986,12.196 L101.246,12.196 L98.404,19 Z M103.832,10.18 C103.832,10.628 103.468,10.992 103.02,10.992 C102.572,10.992 102.208,10.628 102.208,10.18 C102.208,9.732 102.572,9.368 103.02,9.368 C103.468,9.368 103.832,9.732 103.832,10.18 Z M102.418,12.196 L103.622,12.196 L103.622,19 L102.418,19 L102.418,12.196 Z M106.866,15.444 L106.866,19 L105.662,19 L105.662,12.196 L106.866,12.196 L106.866,13.176 C107.286,12.504 108.014,12.042 109.036,12.042 C110.772,12.042 111.78,13.204 111.78,15.01 L111.78,19 L110.576,19 L110.576,15.15 C110.576,13.932 109.946,13.162 108.784,13.162 C107.622,13.162 106.866,14.058 106.866,15.444 Z M118.902,17.698 C118.426,18.44 117.516,18.93 116.55,18.93 C114.688,18.93 113.232,17.446 113.232,15.5 C113.232,13.554 114.688,12.042 116.55,12.042 C117.516,12.042 118.412,12.476 118.902,13.218 L118.902,12.196 L120.092,12.196 L120.092,18.608 C120.092,20.722 118.762,22.08 116.718,22.08 C115.304,22.08 114.156,21.45 113.526,20.316 L114.478,19.644 C114.954,20.512 115.766,20.988 116.718,20.988 C118.048,20.988 118.902,20.078 118.902,18.636 L118.902,17.698 Z M118.972,15.5 C118.972,14.184 117.992,13.148 116.704,13.148 C115.416,13.148 114.45,14.184 114.45,15.5 C114.45,16.816 115.416,17.852 116.704,17.852 C117.992,17.852 118.972,16.816 118.972,15.5 Z" id="Cell-Value" fill="#757575"></path>
                        </g>
                        <g>
                            <rect id="Background" stroke="#C9C9C9" fill="#F1F1F3" fill-rule="nonzero" x="0.5" y="0.5" width="25" height="27"></rect>
                            <polygon id="1" fill="#808080" points="14.344 19 12.692 19 12.692 10.922 10.998 10.922 10.998 9.382 14.344 9.382"></polygon>
                        </g>
                    </g>
                    <g id="Group-4" transform="translate(0.000000, 27.000000)">
                        <g transform="translate(25.000000, 0.000000)">
                            <rect id="Background" stroke="#C9C9C9" fill-rule="nonzero" x="0.5" y="0.5" width="118" height="27"></rect>
                            <path d="M14.214,9.2 L15.194,9.2 L19.226,19 L17.91,19 L16.762,16.158 L12.604,16.158 L11.456,19 L10.168,19 L14.214,9.2 Z M14.676,10.95 L13.052,15.024 L16.314,15.024 L14.676,10.95 Z M21.826,19 L20.622,19 L20.622,13.274 L19.572,13.274 L19.572,12.196 L20.622,12.196 L20.622,11.608 C20.622,9.872 21.616,9.032 22.96,9.032 C23.45,9.032 23.772,9.116 23.982,9.2 L23.982,10.278 C23.772,10.194 23.506,10.138 23.156,10.138 C22.4,10.138 21.826,10.516 21.826,11.58 L21.826,12.196 L23.73,12.196 L23.73,13.274 L21.826,13.274 L21.826,19 Z M29.788,17.698 C29.312,18.44 28.402,18.93 27.436,18.93 C25.574,18.93 24.118,17.446 24.118,15.5 C24.118,13.554 25.574,12.042 27.436,12.042 C28.402,12.042 29.298,12.476 29.788,13.218 L29.788,12.196 L30.978,12.196 L30.978,18.608 C30.978,20.722 29.648,22.08 27.604,22.08 C26.19,22.08 25.042,21.45 24.412,20.316 L25.364,19.644 C25.84,20.512 26.652,20.988 27.604,20.988 C28.934,20.988 29.788,20.078 29.788,18.636 L29.788,17.698 Z M29.858,15.5 C29.858,14.184 28.878,13.148 27.59,13.148 C26.302,13.148 25.336,14.184 25.336,15.5 C25.336,16.816 26.302,17.852 27.59,17.852 C28.878,17.852 29.858,16.816 29.858,15.5 Z M34.222,15.444 L34.222,19 L33.018,19 L33.018,9.2 L34.222,9.2 L34.222,13.176 C34.642,12.504 35.37,12.042 36.392,12.042 C38.128,12.042 39.136,13.204 39.136,15.01 L39.136,19 L37.932,19 L37.932,15.15 C37.932,13.932 37.302,13.162 36.14,13.162 C34.978,13.162 34.222,14.058 34.222,15.444 Z M46.412,12.196 L47.602,12.196 L47.602,19 L46.412,19 L46.412,17.908 C45.922,18.664 44.998,19.154 44.004,19.154 C42.072,19.154 40.588,17.614 40.588,15.598 C40.588,13.596 42.072,12.042 44.004,12.042 C44.998,12.042 45.908,12.476 46.412,13.232 L46.412,12.196 Z M46.482,15.598 C46.482,14.226 45.474,13.148 44.144,13.148 C42.814,13.148 41.806,14.226 41.806,15.598 C41.806,16.97 42.814,18.048 44.144,18.048 C45.474,18.048 46.482,16.97 46.482,15.598 Z M50.846,15.444 L50.846,19 L49.642,19 L49.642,12.196 L50.846,12.196 L50.846,13.176 C51.266,12.504 51.994,12.042 53.016,12.042 C54.752,12.042 55.76,13.204 55.76,15.01 L55.76,19 L54.556,19 L54.556,15.15 C54.556,13.932 53.926,13.162 52.764,13.162 C51.602,13.162 50.846,14.058 50.846,15.444 Z M59.116,10.18 C59.116,10.628 58.752,10.992 58.304,10.992 C57.856,10.992 57.492,10.628 57.492,10.18 C57.492,9.732 57.856,9.368 58.304,9.368 C58.752,9.368 59.116,9.732 59.116,10.18 Z M57.702,12.196 L58.906,12.196 L58.906,19 L57.702,19 L57.702,12.196 Z M60.302,17.306 L61.366,16.9 C61.576,17.628 62.164,18.104 62.878,18.104 C63.452,18.104 64.012,17.754 64.012,17.152 C64.012,16.69 63.704,16.396 63.046,16.172 L62.29,15.92 C61.072,15.514 60.54,14.856 60.54,13.988 C60.54,12.84 61.492,12.042 62.752,12.042 C63.858,12.042 64.712,12.672 65.076,13.694 L64.026,14.114 C63.788,13.456 63.326,13.078 62.724,13.078 C62.164,13.078 61.73,13.414 61.73,13.904 C61.73,14.31 62.038,14.618 62.724,14.856 L63.424,15.094 C64.656,15.514 65.202,16.186 65.202,17.082 C65.202,18.286 64.18,19.154 62.85,19.154 C61.59,19.154 60.61,18.426 60.302,17.306 Z M66.892,10.152 L68.096,10.152 L68.096,12.196 L70,12.196 L70,13.274 L68.096,13.274 L68.096,16.872 C68.096,17.67 68.446,18.034 69.23,18.034 C69.496,18.034 69.79,17.964 70,17.824 L70,18.944 C69.762,19.07 69.412,19.154 68.95,19.154 C67.662,19.154 66.892,18.356 66.892,17.04 L66.892,13.274 L65.842,13.274 L65.842,12.196 L66.892,12.196 L66.892,10.152 Z M76.66,12.196 L77.85,12.196 L77.85,19 L76.66,19 L76.66,17.908 C76.17,18.664 75.246,19.154 74.252,19.154 C72.32,19.154 70.836,17.614 70.836,15.598 C70.836,13.596 72.32,12.042 74.252,12.042 C75.246,12.042 76.156,12.476 76.66,13.232 L76.66,12.196 Z M76.73,15.598 C76.73,14.226 75.722,13.148 74.392,13.148 C73.062,13.148 72.054,14.226 72.054,15.598 C72.054,16.97 73.062,18.048 74.392,18.048 C75.722,18.048 76.73,16.97 76.73,15.598 Z M81.094,15.444 L81.094,19 L79.89,19 L79.89,12.196 L81.094,12.196 L81.094,13.176 C81.514,12.504 82.242,12.042 83.264,12.042 C85,12.042 86.008,13.204 86.008,15.01 L86.008,19 L84.804,19 L84.804,15.15 C84.804,13.932 84.174,13.162 83.012,13.162 C81.85,13.162 81.094,14.058 81.094,15.444 Z" id="Cell-Value" fill="#757575"></path>
                        </g>
                        <g transform="translate(143.000000, 0.000000)">
                            <rect id="Background" stroke="#C9C9C9" fill-rule="nonzero" x="0.5" y="0.5" width="131" height="27"></rect>
                            <path d="M94.26,19 L94.26,9.2 L97.312,9.2 C99.118,9.2 100.364,10.18 100.364,11.79 C100.364,12.714 99.958,13.428 99.188,13.792 C100.322,14.17 100.952,15.038 100.952,16.214 C100.952,17.964 99.636,19 97.606,19 L94.26,19 Z M95.506,17.894 L97.592,17.894 C98.866,17.894 99.692,17.264 99.692,16.172 C99.692,15.122 98.838,14.464 97.564,14.464 L95.506,14.464 L95.506,17.894 Z M95.506,13.386 L97.298,13.386 C98.39,13.386 99.132,12.812 99.132,11.846 C99.132,10.866 98.39,10.306 97.284,10.306 L95.506,10.306 L95.506,13.386 Z M105.638,19.154 C103.622,19.154 102.166,17.67 102.166,15.598 C102.166,13.568 103.622,12.042 105.554,12.042 C107.472,12.042 108.858,13.61 108.858,15.542 C108.858,15.808 108.844,15.976 108.844,15.976 L103.37,15.976 C103.454,17.18 104.476,18.076 105.652,18.076 C106.674,18.076 107.192,17.586 107.626,16.914 L108.606,17.418 C108.046,18.44 107.01,19.154 105.638,19.154 Z M103.398,14.982 L107.64,14.982 C107.514,13.904 106.646,13.092 105.526,13.092 C104.42,13.092 103.51,14.058 103.398,14.982 Z M113.39,19.154 C111.374,19.154 109.918,17.67 109.918,15.598 C109.918,13.568 111.374,12.042 113.306,12.042 C115.224,12.042 116.61,13.61 116.61,15.542 C116.61,15.808 116.596,15.976 116.596,15.976 L111.122,15.976 C111.206,17.18 112.228,18.076 113.404,18.076 C114.426,18.076 114.944,17.586 115.378,16.914 L116.358,17.418 C115.798,18.44 114.762,19.154 113.39,19.154 Z M111.15,14.982 L115.392,14.982 C115.266,13.904 114.398,13.092 113.278,13.092 C112.172,13.092 111.262,14.058 111.15,14.982 Z M121.646,12.112 L121.646,13.316 C121.646,13.316 121.52,13.288 121.31,13.288 C120.05,13.288 119.28,14.296 119.28,15.766 L119.28,19 L118.09,19 L118.09,12.196 L119.266,12.196 L119.266,13.4 C119.574,12.616 120.456,12.084 121.352,12.084 C121.52,12.084 121.646,12.112 121.646,12.112 Z" id="Cell-Value" fill="#757575"></path>
                        </g>
                        <g transform="translate(274.000000, 0.000000)">
                            <rect id="Background" stroke="#C9C9C9" fill-rule="nonzero" x="0.5" y="0.5" width="131" height="27"></rect>
                            <path d="M116.662,19.154 C114.044,19.154 112.784,16.788 112.784,14.198 C112.784,11.594 114.044,9.228 116.662,9.228 C119.28,9.228 120.54,11.594 120.54,14.198 C120.54,16.788 119.28,19.154 116.662,19.154 Z M116.662,17.992 C118.482,17.992 119.294,16.158 119.294,14.198 C119.294,12.238 118.482,10.39 116.662,10.39 C114.842,10.39 114.03,12.238 114.03,14.198 C114.03,16.158 114.842,17.992 116.662,17.992 Z" id="Cell-Value" fill="#757575"></path>
                        </g>
                        <g>
                            <rect id="Background" stroke="#C9C9C9" fill="#F1F1F3" fill-rule="nonzero" x="0.5" y="0.5" width="25" height="27"></rect>
                            <path d="M12.986,9.214 C14.862,9.214 16.248,10.474 16.248,12.238 C16.248,13.4 15.688,14.296 14.344,15.486 L12.048,17.502 L16.346,17.502 L16.346,19 L9.682,19 L9.682,17.67 L13.434,14.296 C14.246,13.554 14.582,12.966 14.582,12.336 C14.582,11.44 13.882,10.768 12.986,10.768 C11.992,10.768 11.362,11.594 11.348,12.658 L9.724,12.658 C9.724,10.614 11.026,9.214 12.986,9.214 Z" id="1" fill="#808080"></path>
                        </g>
                    </g>
                    <g id="Group-4" transform="translate(0.000000, 54.000000)">
                        <g transform="translate(25.000000, 0.000000)">
                            <rect id="Background" stroke="#C9C9C9" fill-rule="nonzero" x="0.5" y="0.5" width="118" height="27"></rect>
                            <path d="M14.214,9.2 L15.194,9.2 L19.226,19 L17.91,19 L16.762,16.158 L12.604,16.158 L11.456,19 L10.168,19 L14.214,9.2 Z M14.676,10.95 L13.052,15.024 L16.314,15.024 L14.676,10.95 Z M21.826,19 L20.622,19 L20.622,13.274 L19.572,13.274 L19.572,12.196 L20.622,12.196 L20.622,11.608 C20.622,9.872 21.616,9.032 22.96,9.032 C23.45,9.032 23.772,9.116 23.982,9.2 L23.982,10.278 C23.772,10.194 23.506,10.138 23.156,10.138 C22.4,10.138 21.826,10.516 21.826,11.58 L21.826,12.196 L23.73,12.196 L23.73,13.274 L21.826,13.274 L21.826,19 Z M29.788,17.698 C29.312,18.44 28.402,18.93 27.436,18.93 C25.574,18.93 24.118,17.446 24.118,15.5 C24.118,13.554 25.574,12.042 27.436,12.042 C28.402,12.042 29.298,12.476 29.788,13.218 L29.788,12.196 L30.978,12.196 L30.978,18.608 C30.978,20.722 29.648,22.08 27.604,22.08 C26.19,22.08 25.042,21.45 24.412,20.316 L25.364,19.644 C25.84,20.512 26.652,20.988 27.604,20.988 C28.934,20.988 29.788,20.078 29.788,18.636 L29.788,17.698 Z M29.858,15.5 C29.858,14.184 28.878,13.148 27.59,13.148 C26.302,13.148 25.336,14.184 25.336,15.5 C25.336,16.816 26.302,17.852 27.59,17.852 C28.878,17.852 29.858,16.816 29.858,15.5 Z M34.222,15.444 L34.222,19 L33.018,19 L33.018,9.2 L34.222,9.2 L34.222,13.176 C34.642,12.504 35.37,12.042 36.392,12.042 C38.128,12.042 39.136,13.204 39.136,15.01 L39.136,19 L37.932,19 L37.932,15.15 C37.932,13.932 37.302,13.162 36.14,13.162 C34.978,13.162 34.222,14.058 34.222,15.444 Z M46.412,12.196 L47.602,12.196 L47.602,19 L46.412,19 L46.412,17.908 C45.922,18.664 44.998,19.154 44.004,19.154 C42.072,19.154 40.588,17.614 40.588,15.598 C40.588,13.596 42.072,12.042 44.004,12.042 C44.998,12.042 45.908,12.476 46.412,13.232 L46.412,12.196 Z M46.482,15.598 C46.482,14.226 45.474,13.148 44.144,13.148 C42.814,13.148 41.806,14.226 41.806,15.598 C41.806,16.97 42.814,18.048 44.144,18.048 C45.474,18.048 46.482,16.97 46.482,15.598 Z M50.846,15.444 L50.846,19 L49.642,19 L49.642,12.196 L50.846,12.196 L50.846,13.176 C51.266,12.504 51.994,12.042 53.016,12.042 C54.752,12.042 55.76,13.204 55.76,15.01 L55.76,19 L54.556,19 L54.556,15.15 C54.556,13.932 53.926,13.162 52.764,13.162 C51.602,13.162 50.846,14.058 50.846,15.444 Z M59.116,10.18 C59.116,10.628 58.752,10.992 58.304,10.992 C57.856,10.992 57.492,10.628 57.492,10.18 C57.492,9.732 57.856,9.368 58.304,9.368 C58.752,9.368 59.116,9.732 59.116,10.18 Z M57.702,12.196 L58.906,12.196 L58.906,19 L57.702,19 L57.702,12.196 Z M60.302,17.306 L61.366,16.9 C61.576,17.628 62.164,18.104 62.878,18.104 C63.452,18.104 64.012,17.754 64.012,17.152 C64.012,16.69 63.704,16.396 63.046,16.172 L62.29,15.92 C61.072,15.514 60.54,14.856 60.54,13.988 C60.54,12.84 61.492,12.042 62.752,12.042 C63.858,12.042 64.712,12.672 65.076,13.694 L64.026,14.114 C63.788,13.456 63.326,13.078 62.724,13.078 C62.164,13.078 61.73,13.414 61.73,13.904 C61.73,14.31 62.038,14.618 62.724,14.856 L63.424,15.094 C64.656,15.514 65.202,16.186 65.202,17.082 C65.202,18.286 64.18,19.154 62.85,19.154 C61.59,19.154 60.61,18.426 60.302,17.306 Z M66.892,10.152 L68.096,10.152 L68.096,12.196 L70,12.196 L70,13.274 L68.096,13.274 L68.096,16.872 C68.096,17.67 68.446,18.034 69.23,18.034 C69.496,18.034 69.79,17.964 70,17.824 L70,18.944 C69.762,19.07 69.412,19.154 68.95,19.154 C67.662,19.154 66.892,18.356 66.892,17.04 L66.892,13.274 L65.842,13.274 L65.842,12.196 L66.892,12.196 L66.892,10.152 Z M76.66,12.196 L77.85,12.196 L77.85,19 L76.66,19 L76.66,17.908 C76.17,18.664 75.246,19.154 74.252,19.154 C72.32,19.154 70.836,17.614 70.836,15.598 C70.836,13.596 72.32,12.042 74.252,12.042 C75.246,12.042 76.156,12.476 76.66,13.232 L76.66,12.196 Z M76.73,15.598 C76.73,14.226 75.722,13.148 74.392,13.148 C73.062,13.148 72.054,14.226 72.054,15.598 C72.054,16.97 73.062,18.048 74.392,18.048 C75.722,18.048 76.73,16.97 76.73,15.598 Z M81.094,15.444 L81.094,19 L79.89,19 L79.89,12.196 L81.094,12.196 L81.094,13.176 C81.514,12.504 82.242,12.042 83.264,12.042 C85,12.042 86.008,13.204 86.008,15.01 L86.008,19 L84.804,19 L84.804,15.15 C84.804,13.932 84.174,13.162 83.012,13.162 C81.85,13.162 81.094,14.058 81.094,15.444 Z" id="Cell-Value" fill="#757575"></path>
                        </g>
                        <g transform="translate(143.000000, 0.000000)">
                            <rect id="Background" stroke="#C9C9C9" fill-rule="nonzero" x="0.5" y="0.5" width="131" height="27"></rect>
                            <path d="M93.312,19 L92.514,19 L89.196,9.2 L90.484,9.2 L92.948,16.676 L95.524,9.2 L96.294,9.2 L98.87,16.676 L101.348,9.2 L102.608,9.2 L99.276,19 L98.478,19 L95.888,11.538 L93.312,19 Z M105.138,10.18 C105.138,10.628 104.774,10.992 104.326,10.992 C103.878,10.992 103.514,10.628 103.514,10.18 C103.514,9.732 103.878,9.368 104.326,9.368 C104.774,9.368 105.138,9.732 105.138,10.18 Z M103.724,12.196 L104.928,12.196 L104.928,19 L103.724,19 L103.724,12.196 Z M108.172,15.444 L108.172,19 L106.968,19 L106.968,12.196 L108.172,12.196 L108.172,13.176 C108.592,12.504 109.32,12.042 110.342,12.042 C112.078,12.042 113.086,13.204 113.086,15.01 L113.086,19 L111.882,19 L111.882,15.15 C111.882,13.932 111.252,13.162 110.09,13.162 C108.928,13.162 108.172,14.058 108.172,15.444 Z M118.01,19.154 C115.994,19.154 114.538,17.67 114.538,15.598 C114.538,13.568 115.994,12.042 117.926,12.042 C119.844,12.042 121.23,13.61 121.23,15.542 C121.23,15.808 121.216,15.976 121.216,15.976 L115.742,15.976 C115.826,17.18 116.848,18.076 118.024,18.076 C119.046,18.076 119.564,17.586 119.998,16.914 L120.978,17.418 C120.418,18.44 119.382,19.154 118.01,19.154 Z M115.77,14.982 L120.012,14.982 C119.886,13.904 119.018,13.092 117.898,13.092 C116.792,13.092 115.882,14.058 115.77,14.982 Z" id="Cell-Value" fill="#757575"></path>
                        </g>
                        <g transform="translate(274.000000, 0.000000)">
                            <rect id="Background" stroke="#C9C9C9" fill-rule="nonzero" x="0.5" y="0.5" width="131" height="27"></rect>
                            <path d="M116.662,19.154 C114.044,19.154 112.784,16.788 112.784,14.198 C112.784,11.594 114.044,9.228 116.662,9.228 C119.28,9.228 120.54,11.594 120.54,14.198 C120.54,16.788 119.28,19.154 116.662,19.154 Z M116.662,17.992 C118.482,17.992 119.294,16.158 119.294,14.198 C119.294,12.238 118.482,10.39 116.662,10.39 C114.842,10.39 114.03,12.238 114.03,14.198 C114.03,16.158 114.842,17.992 116.662,17.992 Z" id="Cell-Value" fill="#757575"></path>
                        </g>
                        <g>
                            <rect id="Background" stroke="#C9C9C9" fill="#F1F1F3" fill-rule="nonzero" x="0.5" y="0.5" width="25" height="27"></rect>
                            <path d="M12.965,13.316 C13.735,13.316 14.393,12.7 14.393,12 C14.393,11.272 13.805,10.726 12.979,10.726 C12.083,10.726 11.481,11.384 11.453,12.294 L9.857,12.294 C9.885,10.418 11.187,9.214 13.007,9.214 C14.771,9.214 16.045,10.334 16.031,11.818 C16.031,12.714 15.583,13.442 14.785,13.876 C15.821,14.254 16.451,15.122 16.451,16.2 C16.451,17.95 15.009,19.168 13.049,19.168 C11.005,19.168 9.675,17.908 9.647,15.892 L11.257,15.892 C11.327,16.886 12.069,17.642 13.091,17.642 C14.071,17.642 14.785,17.054 14.785,16.116 C14.785,15.234 14.001,14.646 12.965,14.646 L12.489,14.646 L12.489,13.316 L12.965,13.316 Z" id="1" fill="#808080"></path>
                        </g>
                        <g transform="translate(25.000000, 27.000000)">
                            <rect id="Background" stroke="#C9C9C9" fill-rule="nonzero" x="0.5" y="0.5" width="118" height="27"></rect>
                            <path d="M14.214,9.2 L15.194,9.2 L19.226,19 L17.91,19 L16.762,16.158 L12.604,16.158 L11.456,19 L10.168,19 L14.214,9.2 Z M14.676,10.95 L13.052,15.024 L16.314,15.024 L14.676,10.95 Z M20.314,9.2 L21.518,9.2 L21.518,19 L20.314,19 L20.314,9.2 Z M24.748,19 L23.558,19 L23.558,9.2 L24.748,9.2 L24.748,13.274 C25.238,12.532 26.162,12.042 27.156,12.042 C29.088,12.042 30.572,13.582 30.572,15.598 C30.572,17.6 29.088,19.154 27.156,19.154 C26.162,19.154 25.252,18.72 24.748,17.978 L24.748,19 Z M29.354,15.598 C29.354,14.226 28.346,13.148 27.016,13.148 C25.686,13.148 24.678,14.226 24.678,15.598 C24.678,16.97 25.686,18.048 27.016,18.048 C28.346,18.048 29.354,16.97 29.354,15.598 Z M37.526,12.196 L38.716,12.196 L38.716,19 L37.526,19 L37.526,17.908 C37.036,18.664 36.112,19.154 35.118,19.154 C33.186,19.154 31.702,17.614 31.702,15.598 C31.702,13.596 33.186,12.042 35.118,12.042 C36.112,12.042 37.022,12.476 37.526,13.232 L37.526,12.196 Z M37.596,15.598 C37.596,14.226 36.588,13.148 35.258,13.148 C33.928,13.148 32.92,14.226 32.92,15.598 C32.92,16.97 33.928,18.048 35.258,18.048 C36.588,18.048 37.596,16.97 37.596,15.598 Z M41.96,15.444 L41.96,19 L40.756,19 L40.756,12.196 L41.96,12.196 L41.96,13.176 C42.38,12.504 43.108,12.042 44.13,12.042 C45.866,12.042 46.874,13.204 46.874,15.01 L46.874,19 L45.67,19 L45.67,15.15 C45.67,13.932 45.04,13.162 43.878,13.162 C42.716,13.162 41.96,14.058 41.96,15.444 Z M50.23,10.18 C50.23,10.628 49.866,10.992 49.418,10.992 C48.97,10.992 48.606,10.628 48.606,10.18 C48.606,9.732 48.97,9.368 49.418,9.368 C49.866,9.368 50.23,9.732 50.23,10.18 Z M48.816,12.196 L50.02,12.196 L50.02,19 L48.816,19 L48.816,12.196 Z M57.394,12.196 L58.584,12.196 L58.584,19 L57.394,19 L57.394,17.908 C56.904,18.664 55.98,19.154 54.986,19.154 C53.054,19.154 51.57,17.614 51.57,15.598 C51.57,13.596 53.054,12.042 54.986,12.042 C55.98,12.042 56.89,12.476 57.394,13.232 L57.394,12.196 Z M57.464,15.598 C57.464,14.226 56.456,13.148 55.126,13.148 C53.796,13.148 52.788,14.226 52.788,15.598 C52.788,16.97 53.796,18.048 55.126,18.048 C56.456,18.048 57.464,16.97 57.464,15.598 Z" id="Cell-Value" fill="#757575"></path>
                        </g>
                        <g transform="translate(143.000000, 27.000000)">
                            <rect id="Background" stroke="#C9C9C9" fill-rule="nonzero" x="0.5" y="0.5" width="131" height="27"></rect>
                            <path d="M94.26,19 L94.26,9.2 L97.312,9.2 C99.118,9.2 100.364,10.18 100.364,11.79 C100.364,12.714 99.958,13.428 99.188,13.792 C100.322,14.17 100.952,15.038 100.952,16.214 C100.952,17.964 99.636,19 97.606,19 L94.26,19 Z M95.506,17.894 L97.592,17.894 C98.866,17.894 99.692,17.264 99.692,16.172 C99.692,15.122 98.838,14.464 97.564,14.464 L95.506,14.464 L95.506,17.894 Z M95.506,13.386 L97.298,13.386 C98.39,13.386 99.132,12.812 99.132,11.846 C99.132,10.866 98.39,10.306 97.284,10.306 L95.506,10.306 L95.506,13.386 Z M105.638,19.154 C103.622,19.154 102.166,17.67 102.166,15.598 C102.166,13.568 103.622,12.042 105.554,12.042 C107.472,12.042 108.858,13.61 108.858,15.542 C108.858,15.808 108.844,15.976 108.844,15.976 L103.37,15.976 C103.454,17.18 104.476,18.076 105.652,18.076 C106.674,18.076 107.192,17.586 107.626,16.914 L108.606,17.418 C108.046,18.44 107.01,19.154 105.638,19.154 Z M103.398,14.982 L107.64,14.982 C107.514,13.904 106.646,13.092 105.526,13.092 C104.42,13.092 103.51,14.058 103.398,14.982 Z M113.39,19.154 C111.374,19.154 109.918,17.67 109.918,15.598 C109.918,13.568 111.374,12.042 113.306,12.042 C115.224,12.042 116.61,13.61 116.61,15.542 C116.61,15.808 116.596,15.976 116.596,15.976 L111.122,15.976 C111.206,17.18 112.228,18.076 113.404,18.076 C114.426,18.076 114.944,17.586 115.378,16.914 L116.358,17.418 C115.798,18.44 114.762,19.154 113.39,19.154 Z M111.15,14.982 L115.392,14.982 C115.266,13.904 114.398,13.092 113.278,13.092 C112.172,13.092 111.262,14.058 111.15,14.982 Z M121.646,12.112 L121.646,13.316 C121.646,13.316 121.52,13.288 121.31,13.288 C120.05,13.288 119.28,14.296 119.28,15.766 L119.28,19 L118.09,19 L118.09,12.196 L119.266,12.196 L119.266,13.4 C119.574,12.616 120.456,12.084 121.352,12.084 C121.52,12.084 121.646,12.112 121.646,12.112 Z" id="Cell-Value" fill="#757575"></path>
                        </g>
                        <g transform="translate(274.000000, 27.000000)">
                            <rect id="Background" stroke="#C9C9C9" fill-rule="nonzero" x="0.5" y="0.5" width="131" height="27"></rect>
                            <path d="M109.794,9.228 C111.572,9.228 112.902,10.446 112.902,12.154 C112.902,13.274 112.37,14.17 111.152,15.318 L108.436,17.852 L113.028,17.852 L113.028,19 L106.616,19 L106.616,17.992 L110.452,14.394 C111.306,13.582 111.656,12.924 111.656,12.21 C111.656,11.174 110.83,10.39 109.794,10.39 C108.646,10.39 107.904,11.37 107.89,12.532 L106.686,12.532 C106.686,10.6 107.932,9.228 109.794,9.228 Z M113.99,12.63 C113.99,10.726 115.516,9.228 117.462,9.228 C119.464,9.228 120.948,10.698 120.948,12.644 C120.948,13.456 120.654,14.352 119.87,15.528 L117.574,19 L116.09,19 L118.386,15.598 C118.106,15.766 117.742,15.878 117.238,15.878 C115.376,15.878 113.99,14.422 113.99,12.63 Z M115.236,12.574 C115.236,13.834 116.23,14.772 117.462,14.772 C118.722,14.772 119.702,13.834 119.702,12.588 C119.702,11.37 118.736,10.39 117.476,10.39 C116.23,10.39 115.236,11.37 115.236,12.574 Z" id="Cell-Value" fill="#757575"></path>
                        </g>
                        <g transform="translate(0.000000, 27.000000)">
                            <rect id="Background" stroke="#C9C9C9" fill="#F1F1F3" fill-rule="nonzero" x="0.5" y="0.5" width="25" height="27"></rect>
                            <path d="M9.122,16.886 L9.122,15.71 L13.574,9.396 L15.534,9.396 L15.534,15.486 L16.878,15.486 L16.878,16.886 L15.534,16.886 L15.534,19 L13.924,19 L13.924,16.886 L9.122,16.886 Z M10.956,15.486 L13.924,15.486 L13.924,11.286 L10.956,15.486 Z" id="1" fill="#808080"></path>
                        </g>
                        <g transform="translate(25.000000, 54.000000)">
                            <rect id="Background" stroke="#C9C9C9" fill-rule="nonzero" x="0.5" y="0.5" width="118" height="27"></rect>
                            <path d="M14.214,9.2 L15.194,9.2 L19.226,19 L17.91,19 L16.762,16.158 L12.604,16.158 L11.456,19 L10.168,19 L14.214,9.2 Z M14.676,10.95 L13.052,15.024 L16.314,15.024 L14.676,10.95 Z M20.314,9.2 L21.518,9.2 L21.518,19 L20.314,19 L20.314,9.2 Z M24.748,19 L23.558,19 L23.558,9.2 L24.748,9.2 L24.748,13.274 C25.238,12.532 26.162,12.042 27.156,12.042 C29.088,12.042 30.572,13.582 30.572,15.598 C30.572,17.6 29.088,19.154 27.156,19.154 C26.162,19.154 25.252,18.72 24.748,17.978 L24.748,19 Z M29.354,15.598 C29.354,14.226 28.346,13.148 27.016,13.148 C25.686,13.148 24.678,14.226 24.678,15.598 C24.678,16.97 25.686,18.048 27.016,18.048 C28.346,18.048 29.354,16.97 29.354,15.598 Z M37.526,12.196 L38.716,12.196 L38.716,19 L37.526,19 L37.526,17.908 C37.036,18.664 36.112,19.154 35.118,19.154 C33.186,19.154 31.702,17.614 31.702,15.598 C31.702,13.596 33.186,12.042 35.118,12.042 C36.112,12.042 37.022,12.476 37.526,13.232 L37.526,12.196 Z M37.596,15.598 C37.596,14.226 36.588,13.148 35.258,13.148 C33.928,13.148 32.92,14.226 32.92,15.598 C32.92,16.97 33.928,18.048 35.258,18.048 C36.588,18.048 37.596,16.97 37.596,15.598 Z M41.96,15.444 L41.96,19 L40.756,19 L40.756,12.196 L41.96,12.196 L41.96,13.176 C42.38,12.504 43.108,12.042 44.13,12.042 C45.866,12.042 46.874,13.204 46.874,15.01 L46.874,19 L45.67,19 L45.67,15.15 C45.67,13.932 45.04,13.162 43.878,13.162 C42.716,13.162 41.96,14.058 41.96,15.444 Z M50.23,10.18 C50.23,10.628 49.866,10.992 49.418,10.992 C48.97,10.992 48.606,10.628 48.606,10.18 C48.606,9.732 48.97,9.368 49.418,9.368 C49.866,9.368 50.23,9.732 50.23,10.18 Z M48.816,12.196 L50.02,12.196 L50.02,19 L48.816,19 L48.816,12.196 Z M57.394,12.196 L58.584,12.196 L58.584,19 L57.394,19 L57.394,17.908 C56.904,18.664 55.98,19.154 54.986,19.154 C53.054,19.154 51.57,17.614 51.57,15.598 C51.57,13.596 53.054,12.042 54.986,12.042 C55.98,12.042 56.89,12.476 57.394,13.232 L57.394,12.196 Z M57.464,15.598 C57.464,14.226 56.456,13.148 55.126,13.148 C53.796,13.148 52.788,14.226 52.788,15.598 C52.788,16.97 53.796,18.048 55.126,18.048 C56.456,18.048 57.464,16.97 57.464,15.598 Z" id="Cell-Value" fill="#757575"></path>
                        </g>
                        <g transform="translate(143.000000, 54.000000)">
                            <rect id="Background" stroke="#C9C9C9" fill-rule="nonzero" x="0.5" y="0.5" width="131" height="27"></rect>
                            <path d="M93.312,19 L92.514,19 L89.196,9.2 L90.484,9.2 L92.948,16.676 L95.524,9.2 L96.294,9.2 L98.87,16.676 L101.348,9.2 L102.608,9.2 L99.276,19 L98.478,19 L95.888,11.538 L93.312,19 Z M105.138,10.18 C105.138,10.628 104.774,10.992 104.326,10.992 C103.878,10.992 103.514,10.628 103.514,10.18 C103.514,9.732 103.878,9.368 104.326,9.368 C104.774,9.368 105.138,9.732 105.138,10.18 Z M103.724,12.196 L104.928,12.196 L104.928,19 L103.724,19 L103.724,12.196 Z M108.172,15.444 L108.172,19 L106.968,19 L106.968,12.196 L108.172,12.196 L108.172,13.176 C108.592,12.504 109.32,12.042 110.342,12.042 C112.078,12.042 113.086,13.204 113.086,15.01 L113.086,19 L111.882,19 L111.882,15.15 C111.882,13.932 111.252,13.162 110.09,13.162 C108.928,13.162 108.172,14.058 108.172,15.444 Z M118.01,19.154 C115.994,19.154 114.538,17.67 114.538,15.598 C114.538,13.568 115.994,12.042 117.926,12.042 C119.844,12.042 121.23,13.61 121.23,15.542 C121.23,15.808 121.216,15.976 121.216,15.976 L115.742,15.976 C115.826,17.18 116.848,18.076 118.024,18.076 C119.046,18.076 119.564,17.586 119.998,16.914 L120.978,17.418 C120.418,18.44 119.382,19.154 118.01,19.154 Z M115.77,14.982 L120.012,14.982 C119.886,13.904 119.018,13.092 117.898,13.092 C116.792,13.092 115.882,14.058 115.77,14.982 Z" id="Cell-Value" fill="#757575"></path>
                        </g>
                        <g transform="translate(274.000000, 54.000000)">
                            <rect id="Background" stroke="#C9C9C9" fill-rule="nonzero" x="0.5" y="0.5" width="131" height="27"></rect>
                            <path d="M105.5,19 L104.268,19 L104.268,10.558 L102.532,10.558 L102.532,9.382 L105.5,9.382 L105.5,19 Z M110.48,13.4 C111.362,13.4 112.174,12.686 112.174,11.888 C112.174,11.02 111.432,10.376 110.466,10.376 C109.43,10.376 108.702,11.146 108.674,12.196 L107.47,12.196 C107.498,10.404 108.758,9.228 110.494,9.228 C112.188,9.228 113.392,10.32 113.392,11.776 C113.392,12.686 112.902,13.47 112.048,13.876 C113.112,14.226 113.798,15.15 113.798,16.242 C113.798,17.95 112.398,19.154 110.522,19.154 C108.562,19.154 107.26,17.894 107.232,16.004 L108.45,16.004 C108.534,17.152 109.332,17.992 110.522,17.992 C111.67,17.992 112.552,17.278 112.552,16.228 C112.552,15.206 111.642,14.492 110.48,14.492 L109.948,14.492 L109.948,13.4 L110.48,13.4 Z M117.952,9.228 C119.73,9.228 121.06,10.446 121.06,12.154 C121.06,13.274 120.528,14.17 119.31,15.318 L116.594,17.852 L121.186,17.852 L121.186,19 L114.774,19 L114.774,17.992 L118.61,14.394 C119.464,13.582 119.814,12.924 119.814,12.21 C119.814,11.174 118.988,10.39 117.952,10.39 C116.804,10.39 116.062,11.37 116.048,12.532 L114.844,12.532 C114.844,10.6 116.09,9.228 117.952,9.228 Z" id="Cell-Value" fill="#757575"></path>
                        </g>
                        <g transform="translate(0.000000, 54.000000)">
                            <rect id="Background" stroke="#C9C9C9" fill="#F1F1F3" fill-rule="nonzero" x="0.5" y="0.5" width="25" height="27"></rect>
                            <path d="M11.306,14.828 L9.808,14.52 L10.508,9.382 L15.842,9.382 L15.842,10.852 L11.782,10.852 L11.46,13.176 C11.88,12.756 12.636,12.49 13.378,12.49 C15.212,12.49 16.528,13.932 16.528,15.682 C16.528,17.67 15.002,19.168 13.042,19.168 C11.012,19.168 9.598,17.894 9.57,16.088 L11.194,16.088 C11.292,16.97 11.964,17.642 13.028,17.642 C14.064,17.642 14.862,16.802 14.862,15.766 C14.862,14.702 14.05,13.904 13,13.904 C12.258,13.904 11.698,14.282 11.306,14.828 Z" id="1" fill="#808080"></path>
                        </g>
                    </g>
                </g>
            </g>
            <path d="M10.29,7.528 L10.29,13 L7.572,13 L7.572,7.528 L3.072,0.4 L6.168,0.4 L8.958,5.008 L11.748,0.4 L14.79,0.4 L10.29,7.528 Z M20.226,9.994 L22.44,10.876 C21.702,12.334 20.262,13.234 18.318,13.234 C15.546,13.234 13.602,11.308 13.602,8.554 C13.602,5.872 15.582,3.874 18.21,3.874 C20.892,3.874 22.746,5.836 22.746,8.626 C22.746,8.932 22.728,9.166 22.71,9.274 L16.176,9.274 C16.266,10.318 17.22,11.074 18.318,11.074 C19.29,11.074 19.812,10.66 20.226,9.994 Z M16.194,7.564 L20.172,7.564 C20.064,6.61 19.254,5.926 18.192,5.926 C17.148,5.926 16.302,6.718 16.194,7.564 Z M27.426,5.98 C26.94,5.98 26.598,6.232 26.598,6.592 C26.598,6.916 26.85,7.15 27.336,7.276 L28.452,7.564 C30.126,7.996 31.026,8.932 31.026,10.192 C31.026,11.974 29.514,13.234 27.444,13.234 C25.68,13.234 24.276,12.424 23.682,11.056 L25.806,9.886 C26.13,10.624 26.796,11.092 27.462,11.092 C28.02,11.092 28.398,10.84 28.398,10.408 C28.398,10.102 28.128,9.868 27.588,9.742 L26.544,9.49 C24.87,9.094 24.006,8.158 24.006,6.754 C24.006,5.062 25.41,3.874 27.444,3.874 C28.974,3.874 30.414,4.702 30.972,5.944 L28.83,7.078 C28.56,6.412 27.966,5.98 27.426,5.98 Z" id="Yes" fill="#2A2A2A"></path>
            <g id="Group-7" transform="translate(250.000000, 2.000000)" fill-rule="nonzero">
                <g id="Group-6-Copy" fill="#029906">
                    <circle id="Oval" cx="7.5" cy="7.5" r="7.5"></circle>
                </g>
                <polygon id="Path" fill="#FFFFFF" points="11.1240452 4 12.3657709 5.2331331 6.38112726 11.2594785 3 7.65166555 4.27690154 6.45499414 6.41761246 8.73922778"></polygon>
            </g>
            <g id="Group-6" transform="translate(379.000000, 2.000000)">
                <circle id="Oval" fill="#FB3703" fill-rule="nonzero" cx="7.5" cy="7.5" r="7.5"></circle>
                <polygon id="+" fill="#FFFFFF" transform="translate(7.656854, 7.656854) rotate(-315.000000) translate(-7.656854, -7.656854) " points="3.65685425 8.46708879 3.65685425 6.81250457 6.82207164 6.81250457 6.82207164 3.65685425 8.49163686 3.65685425 8.49163686 6.81250457 11.6568542 6.81250457 11.6568542 8.46708879 8.49163686 8.46708879 8.49163686 11.6568542 6.82207164 11.6568542 6.82207164 8.46708879"></polygon>
            </g>
        </g>
    </g>
</svg>