<?xml version="1.0" encoding="UTF-8"?>
<svg width="282px" height="141px" viewBox="0 0 282 141" version="1.1" xmlns="http://www.w3.org/2000/svg" xmlns:xlink="http://www.w3.org/1999/xlink">
    <!-- Generator: Sketch 52.2 (67145) - http://www.bohemiancoding.com/sketch -->
    <title>yes-table-small</title>
    <desc>Created with Sketch.</desc>
    <g id="Page-1" stroke="none" stroke-width="1" fill="none" fill-rule="evenodd">
        <g id="yes-table-small" transform="translate(0.000000, -4.000000)">
            <g id="Group-8" transform="translate(0.000000, 29.000000)">
                <g id="Group-5">
                    <g id="Group-4">
                        <g transform="translate(21.000000, 0.000000)">
                            <rect id="Background" stroke="#C9C9C9" fill-rule="nonzero" x="0.5" y="0.5" width="82" height="23"></rect>
                            <path d="M8.624,11.8 C8.624,9.364 10.508,7.456 12.92,7.456 C13.808,7.456 14.636,7.72 15.38,8.212 L15.38,9.4 C14.564,8.788 13.76,8.488 12.896,8.488 C11.12,8.488 9.728,9.94 9.728,11.8 C9.728,13.636 11.12,15.1 12.896,15.1 C13.748,15.1 14.588,14.8 15.404,14.212 L15.404,15.4 C14.612,15.892 13.784,16.132 12.908,16.132 C10.508,16.132 8.624,14.224 8.624,11.8 Z M19.4085714,10.036 C21.1605714,10.036 22.4565714,11.392 22.4565714,13.084 C22.4565714,14.776 21.1605714,16.132 19.4085714,16.132 C17.6565714,16.132 16.3605714,14.776 16.3605714,13.084 C16.3605714,11.392 17.6565714,10.036 19.4085714,10.036 Z M19.4085714,10.984 C18.2685714,10.984 17.4045714,11.92 17.4045714,13.084 C17.4045714,14.248 18.2685714,15.184 19.4085714,15.184 C20.5485714,15.184 21.4125714,14.248 21.4125714,13.084 C21.4125714,11.92 20.5485714,10.984 19.4085714,10.984 Z M27.8411428,13.216 L27.8411428,10.168 L28.8731428,10.168 L28.8731428,16 L27.8411428,16 L27.8411428,15.16 C27.4811428,15.736 26.8691428,16.132 25.9931428,16.132 C24.5171428,16.132 23.6651428,15.136 23.6651428,13.588 L23.6651428,10.168 L24.6971428,10.168 L24.6971428,13.468 C24.6971428,14.512 25.2251428,15.172 26.2091428,15.172 C27.1931428,15.172 27.8411428,14.404 27.8411428,13.216 Z M31.6537143,12.952 L31.6537143,16 L30.6217143,16 L30.6217143,10.168 L31.6537143,10.168 L31.6537143,11.008 C32.0137143,10.432 32.6377143,10.036 33.5137143,10.036 C35.0017143,10.036 35.8657143,11.032 35.8657143,12.58 L35.8657143,16 L34.8337143,16 L34.8337143,12.7 C34.8337143,11.656 34.2937143,10.996 33.2977143,10.996 C32.3017143,10.996 31.6537143,11.764 31.6537143,12.952 Z M37.6982857,8.416 L38.7302857,8.416 L38.7302857,10.168 L40.3622857,10.168 L40.3622857,11.092 L38.7302857,11.092 L38.7302857,14.176 C38.7302857,14.86 39.0302857,15.172 39.7022857,15.172 C39.9302857,15.172 40.1822857,15.112 40.3622857,14.992 L40.3622857,15.952 C40.1582857,16.06 39.8582857,16.132 39.4622857,16.132 C38.3582857,16.132 37.6982857,15.448 37.6982857,14.32 L37.6982857,11.092 L36.7982857,11.092 L36.7982857,10.168 L37.6982857,10.168 L37.6982857,8.416 Z M44.6068571,10.096 L44.6068571,11.128 C44.6068571,11.128 44.4988571,11.104 44.3188571,11.104 C43.2388571,11.104 42.5788571,11.968 42.5788571,13.228 L42.5788571,16 L41.5588571,16 L41.5588571,10.168 L42.5668571,10.168 L42.5668571,11.2 C42.8308571,10.528 43.5868571,10.072 44.3548571,10.072 C44.4988571,10.072 44.6068571,10.096 44.6068571,10.096 Z M50.9274285,10.168 L48.1194285,16.888 C47.5914285,18.148 47.0754285,18.64 46.1994285,18.64 C45.9474285,18.64 45.7314285,18.592 45.5634285,18.52 L45.5634285,17.608 C45.6954285,17.656 45.8994285,17.704 46.1154285,17.704 C46.5834285,17.704 46.8594285,17.428 47.1714285,16.684 L47.5194285,15.844 L45.2034285,10.168 L46.3074285,10.168 L48.0594285,14.668 L49.8594285,10.168 L50.9274285,10.168 Z" id="Cell-Value" fill="#757575"></path>
                        </g>
                        <g transform="translate(103.000000, 0.000000)">
                            <rect id="Background" stroke="#C9C9C9" fill-rule="nonzero" x="0.5" y="0.5" width="89" height="23"></rect>
                            <path d="M32.908,11.8 C32.908,14.188 31.06,16 28.732,16 L26.08,16 L26.08,7.6 L28.732,7.6 C31.06,7.6 32.908,9.412 32.908,11.8 Z M31.804,11.8 C31.804,10 30.496,8.596 28.708,8.596 L27.148,8.596 L27.148,15.004 L28.708,15.004 C30.496,15.004 31.804,13.6 31.804,11.8 Z M37.3685714,10.096 L37.3685714,11.128 C37.3685714,11.128 37.2605714,11.104 37.0805714,11.104 C36.0005714,11.104 35.3405714,11.968 35.3405714,13.228 L35.3405714,16 L34.3205714,16 L34.3205714,10.168 L35.3285714,10.168 L35.3285714,11.2 C35.5925714,10.528 36.3485714,10.072 37.1165714,10.072 C37.2605714,10.072 37.3685714,10.096 37.3685714,10.096 Z M39.6811428,8.44 C39.6811428,8.824 39.3691428,9.136 38.9851428,9.136 C38.6011428,9.136 38.2891428,8.824 38.2891428,8.44 C38.2891428,8.056 38.6011428,7.744 38.9851428,7.744 C39.3691428,7.744 39.6811428,8.056 39.6811428,8.44 Z M38.4691428,10.168 L39.5011428,10.168 L39.5011428,16 L38.4691428,16 L38.4691428,10.168 Z M42.2817143,12.952 L42.2817143,16 L41.2497143,16 L41.2497143,10.168 L42.2817143,10.168 L42.2817143,11.008 C42.6417143,10.432 43.2657143,10.036 44.1417143,10.036 C45.6297143,10.036 46.4937143,11.032 46.4937143,12.58 L46.4937143,16 L45.4617143,16 L45.4617143,12.7 C45.4617143,11.656 44.9217143,10.996 43.9257143,10.996 C42.9297143,10.996 42.2817143,11.764 42.2817143,12.952 Z M49.1782857,7.6 L49.1782857,12.484 L51.6262857,10.168 L52.9462857,10.168 L50.2942857,12.652 L53.1742857,16 L51.8662857,16 L49.5742857,13.288 L49.1782857,13.66 L49.1782857,16 L48.1582857,16 L48.1582857,7.6 L49.1782857,7.6 Z M56.1314285,8.584 L56.1314285,7.6 L62.1074285,7.6 L62.1074285,8.584 L59.6594285,8.584 L59.6594285,16 L58.5794285,16 L58.5794285,8.584 L56.1314285,8.584 Z M67.396,10.168 L64.588,16.888 C64.06,18.148 63.544,18.64 62.668,18.64 C62.416,18.64 62.2,18.592 62.032,18.52 L62.032,17.608 C62.164,17.656 62.368,17.704 62.584,17.704 C63.052,17.704 63.328,17.428 63.64,16.684 L63.988,15.844 L61.672,10.168 L62.776,10.168 L64.528,14.668 L66.328,10.168 L67.396,10.168 Z M69.4205714,18.496 L68.4005714,18.496 L68.4005714,10.168 L69.4205714,10.168 L69.4205714,11.092 C69.8405714,10.456 70.6325714,10.036 71.4845714,10.036 C73.1405714,10.036 74.4125714,11.356 74.4125714,13.084 C74.4125714,14.8 73.1405714,16.132 71.4845714,16.132 C70.6325714,16.132 69.8525714,15.76 69.4205714,15.124 L69.4205714,18.496 Z M73.3685714,13.084 C73.3685714,11.908 72.5045714,10.984 71.3645714,10.984 C70.2245714,10.984 69.3605714,11.908 69.3605714,13.084 C69.3605714,14.26 70.2245714,15.184 71.3645714,15.184 C72.5045714,15.184 73.3685714,14.26 73.3685714,13.084 Z M78.3571428,16.132 C76.6291428,16.132 75.3811428,14.86 75.3811428,13.084 C75.3811428,11.344 76.6291428,10.036 78.2851428,10.036 C79.9291428,10.036 81.1171428,11.38 81.1171428,13.036 C81.1171428,13.264 81.1051428,13.408 81.1051428,13.408 L76.4131428,13.408 C76.4851428,14.44 77.3611428,15.208 78.3691428,15.208 C79.2451428,15.208 79.6891428,14.788 80.0611428,14.212 L80.9011428,14.644 C80.4211428,15.52 79.5331428,16.132 78.3571428,16.132 Z M76.4371428,12.556 L80.0731428,12.556 C79.9651428,11.632 79.2211428,10.936 78.2611428,10.936 C77.3131428,10.936 76.5331428,11.764 76.4371428,12.556 Z" id="Cell-Value" fill="#757575"></path>
                        </g>
                        <g transform="translate(192.000000, 0.000000)">
                            <rect id="Background" stroke="#C9C9C9" fill-rule="nonzero" x="0.5" y="0.5" width="89" height="23"></rect>
                            <path d="M41.444,13.984 L42.44,13.624 C42.752,14.5 43.4,15.124 44.36,15.124 C45.212,15.124 45.932,14.62 45.932,13.744 C45.932,13.072 45.524,12.64 44.684,12.328 L43.7,11.956 C42.452,11.488 41.78,10.792 41.78,9.7 C41.78,8.32 42.872,7.456 44.24,7.456 C45.428,7.456 46.364,8.164 46.784,9.34 L45.812,9.748 C45.548,9.028 45.032,8.464 44.228,8.464 C43.46,8.464 42.86,8.932 42.86,9.64 C42.86,10.24 43.28,10.648 44.132,10.972 L45.104,11.344 C46.388,11.836 47.024,12.568 47.024,13.672 C47.024,15.196 45.824,16.132 44.324,16.132 C42.908,16.132 41.852,15.328 41.444,13.984 Z M50.9685714,16.132 C49.2405714,16.132 47.9925714,14.86 47.9925714,13.084 C47.9925714,11.344 49.2405714,10.036 50.8965714,10.036 C52.5405714,10.036 53.7285714,11.38 53.7285714,13.036 C53.7285714,13.264 53.7165714,13.408 53.7165714,13.408 L49.0245714,13.408 C49.0965714,14.44 49.9725714,15.208 50.9805714,15.208 C51.8565714,15.208 52.3005714,14.788 52.6725714,14.212 L53.5125714,14.644 C53.0325714,15.52 52.1445714,16.132 50.9685714,16.132 Z M49.0485714,12.556 L52.6845714,12.556 C52.5765714,11.632 51.8325714,10.936 50.8725714,10.936 C49.9245714,10.936 49.1445714,11.764 49.0485714,12.556 Z M58.0451428,10.096 L58.0451428,11.128 C58.0451428,11.128 57.9371428,11.104 57.7571428,11.104 C56.6771428,11.104 56.0171428,11.968 56.0171428,13.228 L56.0171428,16 L54.9971428,16 L54.9971428,10.168 L56.0051428,10.168 L56.0051428,11.2 C56.2691428,10.528 57.0251428,10.072 57.7931428,10.072 C57.9371428,10.072 58.0451428,10.096 58.0451428,10.096 Z M61.9177143,16 L61.0777143,16 L58.6417143,10.168 L59.7457143,10.168 L61.5097143,14.584 L63.2737143,10.168 L64.3537143,10.168 L61.9177143,16 Z M66.5702857,8.44 C66.5702857,8.824 66.2582857,9.136 65.8742857,9.136 C65.4902857,9.136 65.1782857,8.824 65.1782857,8.44 C65.1782857,8.056 65.4902857,7.744 65.8742857,7.744 C66.2582857,7.744 66.5702857,8.056 66.5702857,8.44 Z M65.3582857,10.168 L66.3902857,10.168 L66.3902857,16 L65.3582857,16 L65.3582857,10.168 Z M69.1708571,12.952 L69.1708571,16 L68.1388571,16 L68.1388571,10.168 L69.1708571,10.168 L69.1708571,11.008 C69.5308571,10.432 70.1548571,10.036 71.0308571,10.036 C72.5188571,10.036 73.3828571,11.032 73.3828571,12.58 L73.3828571,16 L72.3508571,16 L72.3508571,12.7 C72.3508571,11.656 71.8108571,10.996 70.8148571,10.996 C69.8188571,10.996 69.1708571,11.764 69.1708571,12.952 Z M79.4874285,14.884 C79.0794285,15.52 78.2994285,15.94 77.4714285,15.94 C75.8754285,15.94 74.6274285,14.668 74.6274285,13 C74.6274285,11.332 75.8754285,10.036 77.4714285,10.036 C78.2994285,10.036 79.0674285,10.408 79.4874285,11.044 L79.4874285,10.168 L80.5074285,10.168 L80.5074285,15.664 C80.5074285,17.476 79.3674285,18.64 77.6154285,18.64 C76.4034285,18.64 75.4194285,18.1 74.8794285,17.128 L75.6954285,16.552 C76.1034285,17.296 76.7994285,17.704 77.6154285,17.704 C78.7554285,17.704 79.4874285,16.924 79.4874285,15.688 L79.4874285,14.884 Z M79.5474285,13 C79.5474285,11.872 78.7074285,10.984 77.6034285,10.984 C76.4994285,10.984 75.6714285,11.872 75.6714285,13 C75.6714285,14.128 76.4994285,15.016 77.6034285,15.016 C78.7074285,15.016 79.5474285,14.128 79.5474285,13 Z" id="Cell-Value" fill="#757575"></path>
                        </g>
                        <g>
                            <rect id="Background" stroke="#C9C9C9" fill="#F1F1F3" fill-rule="nonzero" x="0.5" y="0.5" width="21" height="23"></rect>
                            <polygon id="1" fill="#808080" points="12.152 16 10.736 16 10.736 9.076 9.284 9.076 9.284 7.756 12.152 7.756"></polygon>
                        </g>
                    </g>
                    <g id="Group-4" transform="translate(0.000000, 23.000000)">
                        <g transform="translate(21.000000, 0.000000)">
                            <rect id="Background" stroke="#C9C9C9" fill-rule="nonzero" x="0.5" y="0.5" width="82" height="23"></rect>
                            <path d="M11.612,7.6 L12.452,7.6 L15.908,16 L14.78,16 L13.796,13.564 L10.232,13.564 L9.248,16 L8.144,16 L11.612,7.6 Z M12.008,9.1 L10.616,12.592 L13.412,12.592 L12.008,9.1 Z M18.1365714,16 L17.1045714,16 L17.1045714,11.092 L16.2045714,11.092 L16.2045714,10.168 L17.1045714,10.168 L17.1045714,9.664 C17.1045714,8.176 17.9565714,7.456 19.1085714,7.456 C19.5285714,7.456 19.8045714,7.528 19.9845714,7.6 L19.9845714,8.524 C19.8045714,8.452 19.5765714,8.404 19.2765714,8.404 C18.6285714,8.404 18.1365714,8.728 18.1365714,9.64 L18.1365714,10.168 L19.7685714,10.168 L19.7685714,11.092 L18.1365714,11.092 L18.1365714,16 Z M24.9611428,14.884 C24.5531428,15.52 23.7731428,15.94 22.9451428,15.94 C21.3491428,15.94 20.1011428,14.668 20.1011428,13 C20.1011428,11.332 21.3491428,10.036 22.9451428,10.036 C23.7731428,10.036 24.5411428,10.408 24.9611428,11.044 L24.9611428,10.168 L25.9811428,10.168 L25.9811428,15.664 C25.9811428,17.476 24.8411428,18.64 23.0891428,18.64 C21.8771428,18.64 20.8931428,18.1 20.3531428,17.128 L21.1691428,16.552 C21.5771428,17.296 22.2731428,17.704 23.0891428,17.704 C24.2291428,17.704 24.9611428,16.924 24.9611428,15.688 L24.9611428,14.884 Z M25.0211428,13 C25.0211428,11.872 24.1811428,10.984 23.0771428,10.984 C21.9731428,10.984 21.1451428,11.872 21.1451428,13 C21.1451428,14.128 21.9731428,15.016 23.0771428,15.016 C24.1811428,15.016 25.0211428,14.128 25.0211428,13 Z M28.7617143,12.952 L28.7617143,16 L27.7297143,16 L27.7297143,7.6 L28.7617143,7.6 L28.7617143,11.008 C29.1217143,10.432 29.7457143,10.036 30.6217143,10.036 C32.1097143,10.036 32.9737143,11.032 32.9737143,12.58 L32.9737143,16 L31.9417143,16 L31.9417143,12.7 C31.9417143,11.656 31.4017143,10.996 30.4057143,10.996 C29.4097143,10.996 28.7617143,11.764 28.7617143,12.952 Z M39.2102857,10.168 L40.2302857,10.168 L40.2302857,16 L39.2102857,16 L39.2102857,15.064 C38.7902857,15.712 37.9982857,16.132 37.1462857,16.132 C35.4902857,16.132 34.2182857,14.812 34.2182857,13.084 C34.2182857,11.368 35.4902857,10.036 37.1462857,10.036 C37.9982857,10.036 38.7782857,10.408 39.2102857,11.056 L39.2102857,10.168 Z M39.2702857,13.084 C39.2702857,11.908 38.4062857,10.984 37.2662857,10.984 C36.1262857,10.984 35.2622857,11.908 35.2622857,13.084 C35.2622857,14.26 36.1262857,15.184 37.2662857,15.184 C38.4062857,15.184 39.2702857,14.26 39.2702857,13.084 Z M43.0108571,12.952 L43.0108571,16 L41.9788571,16 L41.9788571,10.168 L43.0108571,10.168 L43.0108571,11.008 C43.3708571,10.432 43.9948571,10.036 44.8708571,10.036 C46.3588571,10.036 47.2228571,11.032 47.2228571,12.58 L47.2228571,16 L46.1908571,16 L46.1908571,12.7 C46.1908571,11.656 45.6508571,10.996 44.6548571,10.996 C43.6588571,10.996 43.0108571,11.764 43.0108571,12.952 Z M50.0994285,8.44 C50.0994285,8.824 49.7874285,9.136 49.4034285,9.136 C49.0194285,9.136 48.7074285,8.824 48.7074285,8.44 C48.7074285,8.056 49.0194285,7.744 49.4034285,7.744 C49.7874285,7.744 50.0994285,8.056 50.0994285,8.44 Z M48.8874285,10.168 L49.9194285,10.168 L49.9194285,16 L48.8874285,16 L48.8874285,10.168 Z M51.116,14.548 L52.028,14.2 C52.208,14.824 52.712,15.232 53.324,15.232 C53.816,15.232 54.296,14.932 54.296,14.416 C54.296,14.02 54.032,13.768 53.468,13.576 L52.82,13.36 C51.776,13.012 51.32,12.448 51.32,11.704 C51.32,10.72 52.136,10.036 53.216,10.036 C54.164,10.036 54.896,10.576 55.208,11.452 L54.308,11.812 C54.104,11.248 53.708,10.924 53.192,10.924 C52.712,10.924 52.34,11.212 52.34,11.632 C52.34,11.98 52.604,12.244 53.192,12.448 L53.792,12.652 C54.848,13.012 55.316,13.588 55.316,14.356 C55.316,15.388 54.44,16.132 53.3,16.132 C52.22,16.132 51.38,15.508 51.116,14.548 Z M56.7645714,8.416 L57.7965714,8.416 L57.7965714,10.168 L59.4285714,10.168 L59.4285714,11.092 L57.7965714,11.092 L57.7965714,14.176 C57.7965714,14.86 58.0965714,15.172 58.7685714,15.172 C58.9965714,15.172 59.2485714,15.112 59.4285714,14.992 L59.4285714,15.952 C59.2245714,16.06 58.9245714,16.132 58.5285714,16.132 C57.4245714,16.132 56.7645714,15.448 56.7645714,14.32 L56.7645714,11.092 L55.8645714,11.092 L55.8645714,10.168 L56.7645714,10.168 L56.7645714,8.416 Z M65.1371428,10.168 L66.1571428,10.168 L66.1571428,16 L65.1371428,16 L65.1371428,15.064 C64.7171428,15.712 63.9251428,16.132 63.0731428,16.132 C61.4171428,16.132 60.1451428,14.812 60.1451428,13.084 C60.1451428,11.368 61.4171428,10.036 63.0731428,10.036 C63.9251428,10.036 64.7051428,10.408 65.1371428,11.056 L65.1371428,10.168 Z M65.1971428,13.084 C65.1971428,11.908 64.3331428,10.984 63.1931428,10.984 C62.0531428,10.984 61.1891428,11.908 61.1891428,13.084 C61.1891428,14.26 62.0531428,15.184 63.1931428,15.184 C64.3331428,15.184 65.1971428,14.26 65.1971428,13.084 Z M68.9377142,12.952 L68.9377142,16 L67.9057142,16 L67.9057142,10.168 L68.9377142,10.168 L68.9377142,11.008 C69.2977142,10.432 69.9217142,10.036 70.7977142,10.036 C72.2857142,10.036 73.1497142,11.032 73.1497142,12.58 L73.1497142,16 L72.1177142,16 L72.1177142,12.7 C72.1177142,11.656 71.5777142,10.996 70.5817142,10.996 C69.5857142,10.996 68.9377142,11.764 68.9377142,12.952 Z" id="Cell-Value" fill="#757575"></path>
                        </g>
                        <g transform="translate(103.000000, 0.000000)">
                            <rect id="Background" stroke="#C9C9C9" fill-rule="nonzero" x="0.5" y="0.5" width="89" height="23"></rect>
                            <path d="M58.08,16 L58.08,7.6 L60.696,7.6 C62.244,7.6 63.312,8.44 63.312,9.82 C63.312,10.612 62.964,11.224 62.304,11.536 C63.276,11.86 63.816,12.604 63.816,13.612 C63.816,15.112 62.688,16 60.948,16 L58.08,16 Z M59.148,15.052 L60.936,15.052 C62.028,15.052 62.736,14.512 62.736,13.576 C62.736,12.676 62.004,12.112 60.912,12.112 L59.148,12.112 L59.148,15.052 Z M59.148,11.188 L60.684,11.188 C61.62,11.188 62.256,10.696 62.256,9.868 C62.256,9.028 61.62,8.548 60.672,8.548 L59.148,8.548 L59.148,11.188 Z M67.8325714,16.132 C66.1045714,16.132 64.8565714,14.86 64.8565714,13.084 C64.8565714,11.344 66.1045714,10.036 67.7605714,10.036 C69.4045714,10.036 70.5925714,11.38 70.5925714,13.036 C70.5925714,13.264 70.5805714,13.408 70.5805714,13.408 L65.8885714,13.408 C65.9605714,14.44 66.8365714,15.208 67.8445714,15.208 C68.7205714,15.208 69.1645714,14.788 69.5365714,14.212 L70.3765714,14.644 C69.8965714,15.52 69.0085714,16.132 67.8325714,16.132 Z M65.9125714,12.556 L69.5485714,12.556 C69.4405714,11.632 68.6965714,10.936 67.7365714,10.936 C66.7885714,10.936 66.0085714,11.764 65.9125714,12.556 Z M74.4771428,16.132 C72.7491428,16.132 71.5011428,14.86 71.5011428,13.084 C71.5011428,11.344 72.7491428,10.036 74.4051428,10.036 C76.0491428,10.036 77.2371428,11.38 77.2371428,13.036 C77.2371428,13.264 77.2251428,13.408 77.2251428,13.408 L72.5331428,13.408 C72.6051428,14.44 73.4811428,15.208 74.4891428,15.208 C75.3651428,15.208 75.8091428,14.788 76.1811428,14.212 L77.0211428,14.644 C76.5411428,15.52 75.6531428,16.132 74.4771428,16.132 Z M72.5571428,12.556 L76.1931428,12.556 C76.0851428,11.632 75.3411428,10.936 74.3811428,10.936 C73.4331428,10.936 72.6531428,11.764 72.5571428,12.556 Z M81.5537143,10.096 L81.5537143,11.128 C81.5537143,11.128 81.4457143,11.104 81.2657143,11.104 C80.1857143,11.104 79.5257143,11.968 79.5257143,13.228 L79.5257143,16 L78.5057143,16 L78.5057143,10.168 L79.5137143,10.168 L79.5137143,11.2 C79.7777143,10.528 80.5337143,10.072 81.3017143,10.072 C81.4457143,10.072 81.5537143,10.096 81.5537143,10.096 Z" id="Cell-Value" fill="#757575"></path>
                        </g>
                        <g transform="translate(192.000000, 0.000000)">
                            <rect id="Background" stroke="#C9C9C9" fill-rule="nonzero" x="0.5" y="0.5" width="89" height="23"></rect>
                            <path d="M77.996,16.132 C75.752,16.132 74.672,14.104 74.672,11.884 C74.672,9.652 75.752,7.624 77.996,7.624 C80.24,7.624 81.32,9.652 81.32,11.884 C81.32,14.104 80.24,16.132 77.996,16.132 Z M77.996,15.136 C79.556,15.136 80.252,13.564 80.252,11.884 C80.252,10.204 79.556,8.62 77.996,8.62 C76.436,8.62 75.74,10.204 75.74,11.884 C75.74,13.564 76.436,15.136 77.996,15.136 Z" id="Cell-Value" fill="#757575"></path>
                        </g>
                        <g>
                            <rect id="Background" stroke="#C9C9C9" fill="#F1F1F3" fill-rule="nonzero" x="0.5" y="0.5" width="21" height="23"></rect>
                            <path d="M10.988,7.612 C12.596,7.612 13.784,8.692 13.784,10.204 C13.784,11.2 13.304,11.968 12.152,12.988 L10.184,14.716 L13.868,14.716 L13.868,16 L8.156,16 L8.156,14.86 L11.372,11.968 C12.068,11.332 12.356,10.828 12.356,10.288 C12.356,9.52 11.756,8.944 10.988,8.944 C10.136,8.944 9.596,9.652 9.584,10.564 L8.192,10.564 C8.192,8.812 9.308,7.612 10.988,7.612 Z" id="1" fill="#808080"></path>
                        </g>
                    </g>
                    <g id="Group-4" transform="translate(0.000000, 46.000000)">
                        <g transform="translate(21.000000, 0.000000)">
                            <rect id="Background" stroke="#C9C9C9" fill-rule="nonzero" x="0.5" y="0.5" width="82" height="23"></rect>
                            <path d="M11.612,7.6 L12.452,7.6 L15.908,16 L14.78,16 L13.796,13.564 L10.232,13.564 L9.248,16 L8.144,16 L11.612,7.6 Z M12.008,9.1 L10.616,12.592 L13.412,12.592 L12.008,9.1 Z M18.1365714,16 L17.1045714,16 L17.1045714,11.092 L16.2045714,11.092 L16.2045714,10.168 L17.1045714,10.168 L17.1045714,9.664 C17.1045714,8.176 17.9565714,7.456 19.1085714,7.456 C19.5285714,7.456 19.8045714,7.528 19.9845714,7.6 L19.9845714,8.524 C19.8045714,8.452 19.5765714,8.404 19.2765714,8.404 C18.6285714,8.404 18.1365714,8.728 18.1365714,9.64 L18.1365714,10.168 L19.7685714,10.168 L19.7685714,11.092 L18.1365714,11.092 L18.1365714,16 Z M24.9611428,14.884 C24.5531428,15.52 23.7731428,15.94 22.9451428,15.94 C21.3491428,15.94 20.1011428,14.668 20.1011428,13 C20.1011428,11.332 21.3491428,10.036 22.9451428,10.036 C23.7731428,10.036 24.5411428,10.408 24.9611428,11.044 L24.9611428,10.168 L25.9811428,10.168 L25.9811428,15.664 C25.9811428,17.476 24.8411428,18.64 23.0891428,18.64 C21.8771428,18.64 20.8931428,18.1 20.3531428,17.128 L21.1691428,16.552 C21.5771428,17.296 22.2731428,17.704 23.0891428,17.704 C24.2291428,17.704 24.9611428,16.924 24.9611428,15.688 L24.9611428,14.884 Z M25.0211428,13 C25.0211428,11.872 24.1811428,10.984 23.0771428,10.984 C21.9731428,10.984 21.1451428,11.872 21.1451428,13 C21.1451428,14.128 21.9731428,15.016 23.0771428,15.016 C24.1811428,15.016 25.0211428,14.128 25.0211428,13 Z M28.7617143,12.952 L28.7617143,16 L27.7297143,16 L27.7297143,7.6 L28.7617143,7.6 L28.7617143,11.008 C29.1217143,10.432 29.7457143,10.036 30.6217143,10.036 C32.1097143,10.036 32.9737143,11.032 32.9737143,12.58 L32.9737143,16 L31.9417143,16 L31.9417143,12.7 C31.9417143,11.656 31.4017143,10.996 30.4057143,10.996 C29.4097143,10.996 28.7617143,11.764 28.7617143,12.952 Z M39.2102857,10.168 L40.2302857,10.168 L40.2302857,16 L39.2102857,16 L39.2102857,15.064 C38.7902857,15.712 37.9982857,16.132 37.1462857,16.132 C35.4902857,16.132 34.2182857,14.812 34.2182857,13.084 C34.2182857,11.368 35.4902857,10.036 37.1462857,10.036 C37.9982857,10.036 38.7782857,10.408 39.2102857,11.056 L39.2102857,10.168 Z M39.2702857,13.084 C39.2702857,11.908 38.4062857,10.984 37.2662857,10.984 C36.1262857,10.984 35.2622857,11.908 35.2622857,13.084 C35.2622857,14.26 36.1262857,15.184 37.2662857,15.184 C38.4062857,15.184 39.2702857,14.26 39.2702857,13.084 Z M43.0108571,12.952 L43.0108571,16 L41.9788571,16 L41.9788571,10.168 L43.0108571,10.168 L43.0108571,11.008 C43.3708571,10.432 43.9948571,10.036 44.8708571,10.036 C46.3588571,10.036 47.2228571,11.032 47.2228571,12.58 L47.2228571,16 L46.1908571,16 L46.1908571,12.7 C46.1908571,11.656 45.6508571,10.996 44.6548571,10.996 C43.6588571,10.996 43.0108571,11.764 43.0108571,12.952 Z M50.0994285,8.44 C50.0994285,8.824 49.7874285,9.136 49.4034285,9.136 C49.0194285,9.136 48.7074285,8.824 48.7074285,8.44 C48.7074285,8.056 49.0194285,7.744 49.4034285,7.744 C49.7874285,7.744 50.0994285,8.056 50.0994285,8.44 Z M48.8874285,10.168 L49.9194285,10.168 L49.9194285,16 L48.8874285,16 L48.8874285,10.168 Z M51.116,14.548 L52.028,14.2 C52.208,14.824 52.712,15.232 53.324,15.232 C53.816,15.232 54.296,14.932 54.296,14.416 C54.296,14.02 54.032,13.768 53.468,13.576 L52.82,13.36 C51.776,13.012 51.32,12.448 51.32,11.704 C51.32,10.72 52.136,10.036 53.216,10.036 C54.164,10.036 54.896,10.576 55.208,11.452 L54.308,11.812 C54.104,11.248 53.708,10.924 53.192,10.924 C52.712,10.924 52.34,11.212 52.34,11.632 C52.34,11.98 52.604,12.244 53.192,12.448 L53.792,12.652 C54.848,13.012 55.316,13.588 55.316,14.356 C55.316,15.388 54.44,16.132 53.3,16.132 C52.22,16.132 51.38,15.508 51.116,14.548 Z M56.7645714,8.416 L57.7965714,8.416 L57.7965714,10.168 L59.4285714,10.168 L59.4285714,11.092 L57.7965714,11.092 L57.7965714,14.176 C57.7965714,14.86 58.0965714,15.172 58.7685714,15.172 C58.9965714,15.172 59.2485714,15.112 59.4285714,14.992 L59.4285714,15.952 C59.2245714,16.06 58.9245714,16.132 58.5285714,16.132 C57.4245714,16.132 56.7645714,15.448 56.7645714,14.32 L56.7645714,11.092 L55.8645714,11.092 L55.8645714,10.168 L56.7645714,10.168 L56.7645714,8.416 Z M65.1371428,10.168 L66.1571428,10.168 L66.1571428,16 L65.1371428,16 L65.1371428,15.064 C64.7171428,15.712 63.9251428,16.132 63.0731428,16.132 C61.4171428,16.132 60.1451428,14.812 60.1451428,13.084 C60.1451428,11.368 61.4171428,10.036 63.0731428,10.036 C63.9251428,10.036 64.7051428,10.408 65.1371428,11.056 L65.1371428,10.168 Z M65.1971428,13.084 C65.1971428,11.908 64.3331428,10.984 63.1931428,10.984 C62.0531428,10.984 61.1891428,11.908 61.1891428,13.084 C61.1891428,14.26 62.0531428,15.184 63.1931428,15.184 C64.3331428,15.184 65.1971428,14.26 65.1971428,13.084 Z M68.9377142,12.952 L68.9377142,16 L67.9057142,16 L67.9057142,10.168 L68.9377142,10.168 L68.9377142,11.008 C69.2977142,10.432 69.9217142,10.036 70.7977142,10.036 C72.2857142,10.036 73.1497142,11.032 73.1497142,12.58 L73.1497142,16 L72.1177142,16 L72.1177142,12.7 C72.1177142,11.656 71.5777142,10.996 70.5817142,10.996 C69.5857142,10.996 68.9377142,11.764 68.9377142,12.952 Z" id="Cell-Value" fill="#757575"></path>
                        </g>
                        <g transform="translate(103.000000, 0.000000)">
                            <rect id="Background" stroke="#C9C9C9" fill-rule="nonzero" x="0.5" y="0.5" width="89" height="23"></rect>
                            <path d="M57.696,16 L57.012,16 L54.168,7.6 L55.272,7.6 L57.384,14.008 L59.592,7.6 L60.252,7.6 L62.46,14.008 L64.584,7.6 L65.664,7.6 L62.808,16 L62.124,16 L59.904,9.604 L57.696,16 Z M67.8325714,8.44 C67.8325714,8.824 67.5205714,9.136 67.1365714,9.136 C66.7525714,9.136 66.4405714,8.824 66.4405714,8.44 C66.4405714,8.056 66.7525714,7.744 67.1365714,7.744 C67.5205714,7.744 67.8325714,8.056 67.8325714,8.44 Z M66.6205714,10.168 L67.6525714,10.168 L67.6525714,16 L66.6205714,16 L66.6205714,10.168 Z M70.4331428,12.952 L70.4331428,16 L69.4011428,16 L69.4011428,10.168 L70.4331428,10.168 L70.4331428,11.008 C70.7931428,10.432 71.4171428,10.036 72.2931428,10.036 C73.7811428,10.036 74.6451428,11.032 74.6451428,12.58 L74.6451428,16 L73.6131428,16 L73.6131428,12.7 C73.6131428,11.656 73.0731428,10.996 72.0771428,10.996 C71.0811428,10.996 70.4331428,11.764 70.4331428,12.952 Z M78.8657143,16.132 C77.1377143,16.132 75.8897143,14.86 75.8897143,13.084 C75.8897143,11.344 77.1377143,10.036 78.7937143,10.036 C80.4377143,10.036 81.6257143,11.38 81.6257143,13.036 C81.6257143,13.264 81.6137143,13.408 81.6137143,13.408 L76.9217143,13.408 C76.9937143,14.44 77.8697143,15.208 78.8777143,15.208 C79.7537143,15.208 80.1977143,14.788 80.5697143,14.212 L81.4097143,14.644 C80.9297143,15.52 80.0417143,16.132 78.8657143,16.132 Z M76.9457143,12.556 L80.5817143,12.556 C80.4737143,11.632 79.7297143,10.936 78.7697143,10.936 C77.8217143,10.936 77.0417143,11.764 76.9457143,12.556 Z" id="Cell-Value" fill="#757575"></path>
                        </g>
                        <g transform="translate(192.000000, 0.000000)">
                            <rect id="Background" stroke="#C9C9C9" fill-rule="nonzero" x="0.5" y="0.5" width="89" height="23"></rect>
                            <path d="M77.996,16.132 C75.752,16.132 74.672,14.104 74.672,11.884 C74.672,9.652 75.752,7.624 77.996,7.624 C80.24,7.624 81.32,9.652 81.32,11.884 C81.32,14.104 80.24,16.132 77.996,16.132 Z M77.996,15.136 C79.556,15.136 80.252,13.564 80.252,11.884 C80.252,10.204 79.556,8.62 77.996,8.62 C76.436,8.62 75.74,10.204 75.74,11.884 C75.74,13.564 76.436,15.136 77.996,15.136 Z" id="Cell-Value" fill="#757575"></path>
                        </g>
                        <g>
                            <rect id="Background" stroke="#C9C9C9" fill="#F1F1F3" fill-rule="nonzero" x="0.5" y="0.5" width="21" height="23"></rect>
                            <path d="M10.97,11.128 C11.63,11.128 12.194,10.6 12.194,10 C12.194,9.376 11.69,8.908 10.982,8.908 C10.214,8.908 9.698,9.472 9.674,10.252 L8.306,10.252 C8.33,8.644 9.446,7.612 11.006,7.612 C12.518,7.612 13.61,8.572 13.598,9.844 C13.598,10.612 13.214,11.236 12.53,11.608 C13.418,11.932 13.958,12.676 13.958,13.6 C13.958,15.1 12.722,16.144 11.042,16.144 C9.29,16.144 8.15,15.064 8.126,13.336 L9.506,13.336 C9.566,14.188 10.202,14.836 11.078,14.836 C11.918,14.836 12.53,14.332 12.53,13.528 C12.53,12.772 11.858,12.268 10.97,12.268 L10.562,12.268 L10.562,11.128 L10.97,11.128 Z" id="1" fill="#808080"></path>
                        </g>
                        <g transform="translate(21.000000, 23.000000)">
                            <rect id="Background" stroke="#C9C9C9" fill-rule="nonzero" x="0.5" y="0.5" width="82" height="23"></rect>
                            <path d="M11.612,7.6 L12.452,7.6 L15.908,16 L14.78,16 L13.796,13.564 L10.232,13.564 L9.248,16 L8.144,16 L11.612,7.6 Z M12.008,9.1 L10.616,12.592 L13.412,12.592 L12.008,9.1 Z M16.8405714,7.6 L17.8725714,7.6 L17.8725714,16 L16.8405714,16 L16.8405714,7.6 Z M20.6411428,16 L19.6211428,16 L19.6211428,7.6 L20.6411428,7.6 L20.6411428,11.092 C21.0611428,10.456 21.8531428,10.036 22.7051428,10.036 C24.3611428,10.036 25.6331428,11.356 25.6331428,13.084 C25.6331428,14.8 24.3611428,16.132 22.7051428,16.132 C21.8531428,16.132 21.0731428,15.76 20.6411428,15.124 L20.6411428,16 Z M24.5891428,13.084 C24.5891428,11.908 23.7251428,10.984 22.5851428,10.984 C21.4451428,10.984 20.5811428,11.908 20.5811428,13.084 C20.5811428,14.26 21.4451428,15.184 22.5851428,15.184 C23.7251428,15.184 24.5891428,14.26 24.5891428,13.084 Z M31.5937143,10.168 L32.6137143,10.168 L32.6137143,16 L31.5937143,16 L31.5937143,15.064 C31.1737143,15.712 30.3817143,16.132 29.5297143,16.132 C27.8737143,16.132 26.6017143,14.812 26.6017143,13.084 C26.6017143,11.368 27.8737143,10.036 29.5297143,10.036 C30.3817143,10.036 31.1617143,10.408 31.5937143,11.056 L31.5937143,10.168 Z M31.6537143,13.084 C31.6537143,11.908 30.7897143,10.984 29.6497143,10.984 C28.5097143,10.984 27.6457143,11.908 27.6457143,13.084 C27.6457143,14.26 28.5097143,15.184 29.6497143,15.184 C30.7897143,15.184 31.6537143,14.26 31.6537143,13.084 Z M35.3942857,12.952 L35.3942857,16 L34.3622857,16 L34.3622857,10.168 L35.3942857,10.168 L35.3942857,11.008 C35.7542857,10.432 36.3782857,10.036 37.2542857,10.036 C38.7422857,10.036 39.6062857,11.032 39.6062857,12.58 L39.6062857,16 L38.5742857,16 L38.5742857,12.7 C38.5742857,11.656 38.0342857,10.996 37.0382857,10.996 C36.0422857,10.996 35.3942857,11.764 35.3942857,12.952 Z M42.4828571,8.44 C42.4828571,8.824 42.1708571,9.136 41.7868571,9.136 C41.4028571,9.136 41.0908571,8.824 41.0908571,8.44 C41.0908571,8.056 41.4028571,7.744 41.7868571,7.744 C42.1708571,7.744 42.4828571,8.056 42.4828571,8.44 Z M41.2708571,10.168 L42.3028571,10.168 L42.3028571,16 L41.2708571,16 L41.2708571,10.168 Z M48.6234285,10.168 L49.6434285,10.168 L49.6434285,16 L48.6234285,16 L48.6234285,15.064 C48.2034285,15.712 47.4114285,16.132 46.5594285,16.132 C44.9034285,16.132 43.6314285,14.812 43.6314285,13.084 C43.6314285,11.368 44.9034285,10.036 46.5594285,10.036 C47.4114285,10.036 48.1914285,10.408 48.6234285,11.056 L48.6234285,10.168 Z M48.6834285,13.084 C48.6834285,11.908 47.8194285,10.984 46.6794285,10.984 C45.5394285,10.984 44.6754285,11.908 44.6754285,13.084 C44.6754285,14.26 45.5394285,15.184 46.6794285,15.184 C47.8194285,15.184 48.6834285,14.26 48.6834285,13.084 Z" id="Cell-Value" fill="#757575"></path>
                        </g>
                        <g transform="translate(103.000000, 23.000000)">
                            <rect id="Background" stroke="#C9C9C9" fill-rule="nonzero" x="0.5" y="0.5" width="89" height="23"></rect>
                            <path d="M58.08,16 L58.08,7.6 L60.696,7.6 C62.244,7.6 63.312,8.44 63.312,9.82 C63.312,10.612 62.964,11.224 62.304,11.536 C63.276,11.86 63.816,12.604 63.816,13.612 C63.816,15.112 62.688,16 60.948,16 L58.08,16 Z M59.148,15.052 L60.936,15.052 C62.028,15.052 62.736,14.512 62.736,13.576 C62.736,12.676 62.004,12.112 60.912,12.112 L59.148,12.112 L59.148,15.052 Z M59.148,11.188 L60.684,11.188 C61.62,11.188 62.256,10.696 62.256,9.868 C62.256,9.028 61.62,8.548 60.672,8.548 L59.148,8.548 L59.148,11.188 Z M67.8325714,16.132 C66.1045714,16.132 64.8565714,14.86 64.8565714,13.084 C64.8565714,11.344 66.1045714,10.036 67.7605714,10.036 C69.4045714,10.036 70.5925714,11.38 70.5925714,13.036 C70.5925714,13.264 70.5805714,13.408 70.5805714,13.408 L65.8885714,13.408 C65.9605714,14.44 66.8365714,15.208 67.8445714,15.208 C68.7205714,15.208 69.1645714,14.788 69.5365714,14.212 L70.3765714,14.644 C69.8965714,15.52 69.0085714,16.132 67.8325714,16.132 Z M65.9125714,12.556 L69.5485714,12.556 C69.4405714,11.632 68.6965714,10.936 67.7365714,10.936 C66.7885714,10.936 66.0085714,11.764 65.9125714,12.556 Z M74.4771428,16.132 C72.7491428,16.132 71.5011428,14.86 71.5011428,13.084 C71.5011428,11.344 72.7491428,10.036 74.4051428,10.036 C76.0491428,10.036 77.2371428,11.38 77.2371428,13.036 C77.2371428,13.264 77.2251428,13.408 77.2251428,13.408 L72.5331428,13.408 C72.6051428,14.44 73.4811428,15.208 74.4891428,15.208 C75.3651428,15.208 75.8091428,14.788 76.1811428,14.212 L77.0211428,14.644 C76.5411428,15.52 75.6531428,16.132 74.4771428,16.132 Z M72.5571428,12.556 L76.1931428,12.556 C76.0851428,11.632 75.3411428,10.936 74.3811428,10.936 C73.4331428,10.936 72.6531428,11.764 72.5571428,12.556 Z M81.5537143,10.096 L81.5537143,11.128 C81.5537143,11.128 81.4457143,11.104 81.2657143,11.104 C80.1857143,11.104 79.5257143,11.968 79.5257143,13.228 L79.5257143,16 L78.5057143,16 L78.5057143,10.168 L79.5137143,10.168 L79.5137143,11.2 C79.7777143,10.528 80.5337143,10.072 81.3017143,10.072 C81.4457143,10.072 81.5537143,10.096 81.5537143,10.096 Z" id="Cell-Value" fill="#757575"></path>
                        </g>
                        <g transform="translate(192.000000, 23.000000)">
                            <rect id="Background" stroke="#C9C9C9" fill-rule="nonzero" x="0.5" y="0.5" width="89" height="23"></rect>
                            <path d="M71.252,7.624 C72.776,7.624 73.916,8.668 73.916,10.132 C73.916,11.092 73.46,11.86 72.416,12.844 L70.088,15.016 L74.024,15.016 L74.024,16 L68.528,16 L68.528,15.136 L71.816,12.052 C72.548,11.356 72.848,10.792 72.848,10.18 C72.848,9.292 72.14,8.62 71.252,8.62 C70.268,8.62 69.632,9.46 69.62,10.456 L68.588,10.456 C68.588,8.8 69.656,7.624 71.252,7.624 Z M74.8485714,10.54 C74.8485714,8.908 76.1565714,7.624 77.8245714,7.624 C79.5405714,7.624 80.8125714,8.884 80.8125714,10.552 C80.8125714,11.248 80.5605714,12.016 79.8885714,13.024 L77.9205714,16 L76.6485714,16 L78.6165714,13.084 C78.3765714,13.228 78.0645714,13.324 77.6325714,13.324 C76.0365714,13.324 74.8485714,12.076 74.8485714,10.54 Z M75.9165714,10.492 C75.9165714,11.572 76.7685714,12.376 77.8245714,12.376 C78.9045714,12.376 79.7445714,11.572 79.7445714,10.504 C79.7445714,9.46 78.9165714,8.62 77.8365714,8.62 C76.7685714,8.62 75.9165714,9.46 75.9165714,10.492 Z" id="Cell-Value" fill="#757575"></path>
                        </g>
                        <g transform="translate(0.000000, 23.000000)">
                            <rect id="Background" stroke="#C9C9C9" fill="#F1F1F3" fill-rule="nonzero" x="0.5" y="0.5" width="21" height="23"></rect>
                            <path d="M7.676,14.188 L7.676,13.18 L11.492,7.768 L13.172,7.768 L13.172,12.988 L14.324,12.988 L14.324,14.188 L13.172,14.188 L13.172,16 L11.792,16 L11.792,14.188 L7.676,14.188 Z M9.248,12.988 L11.792,12.988 L11.792,9.388 L9.248,12.988 Z" id="1" fill="#808080"></path>
                        </g>
                        <g transform="translate(21.000000, 46.000000)">
                            <rect id="Background" stroke="#C9C9C9" fill-rule="nonzero" x="0.5" y="0.5" width="82" height="23"></rect>
                            <path d="M11.612,7.6 L12.452,7.6 L15.908,16 L14.78,16 L13.796,13.564 L10.232,13.564 L9.248,16 L8.144,16 L11.612,7.6 Z M12.008,9.1 L10.616,12.592 L13.412,12.592 L12.008,9.1 Z M16.8405714,7.6 L17.8725714,7.6 L17.8725714,16 L16.8405714,16 L16.8405714,7.6 Z M20.6411428,16 L19.6211428,16 L19.6211428,7.6 L20.6411428,7.6 L20.6411428,11.092 C21.0611428,10.456 21.8531428,10.036 22.7051428,10.036 C24.3611428,10.036 25.6331428,11.356 25.6331428,13.084 C25.6331428,14.8 24.3611428,16.132 22.7051428,16.132 C21.8531428,16.132 21.0731428,15.76 20.6411428,15.124 L20.6411428,16 Z M24.5891428,13.084 C24.5891428,11.908 23.7251428,10.984 22.5851428,10.984 C21.4451428,10.984 20.5811428,11.908 20.5811428,13.084 C20.5811428,14.26 21.4451428,15.184 22.5851428,15.184 C23.7251428,15.184 24.5891428,14.26 24.5891428,13.084 Z M31.5937143,10.168 L32.6137143,10.168 L32.6137143,16 L31.5937143,16 L31.5937143,15.064 C31.1737143,15.712 30.3817143,16.132 29.5297143,16.132 C27.8737143,16.132 26.6017143,14.812 26.6017143,13.084 C26.6017143,11.368 27.8737143,10.036 29.5297143,10.036 C30.3817143,10.036 31.1617143,10.408 31.5937143,11.056 L31.5937143,10.168 Z M31.6537143,13.084 C31.6537143,11.908 30.7897143,10.984 29.6497143,10.984 C28.5097143,10.984 27.6457143,11.908 27.6457143,13.084 C27.6457143,14.26 28.5097143,15.184 29.6497143,15.184 C30.7897143,15.184 31.6537143,14.26 31.6537143,13.084 Z M35.3942857,12.952 L35.3942857,16 L34.3622857,16 L34.3622857,10.168 L35.3942857,10.168 L35.3942857,11.008 C35.7542857,10.432 36.3782857,10.036 37.2542857,10.036 C38.7422857,10.036 39.6062857,11.032 39.6062857,12.58 L39.6062857,16 L38.5742857,16 L38.5742857,12.7 C38.5742857,11.656 38.0342857,10.996 37.0382857,10.996 C36.0422857,10.996 35.3942857,11.764 35.3942857,12.952 Z M42.4828571,8.44 C42.4828571,8.824 42.1708571,9.136 41.7868571,9.136 C41.4028571,9.136 41.0908571,8.824 41.0908571,8.44 C41.0908571,8.056 41.4028571,7.744 41.7868571,7.744 C42.1708571,7.744 42.4828571,8.056 42.4828571,8.44 Z M41.2708571,10.168 L42.3028571,10.168 L42.3028571,16 L41.2708571,16 L41.2708571,10.168 Z M48.6234285,10.168 L49.6434285,10.168 L49.6434285,16 L48.6234285,16 L48.6234285,15.064 C48.2034285,15.712 47.4114285,16.132 46.5594285,16.132 C44.9034285,16.132 43.6314285,14.812 43.6314285,13.084 C43.6314285,11.368 44.9034285,10.036 46.5594285,10.036 C47.4114285,10.036 48.1914285,10.408 48.6234285,11.056 L48.6234285,10.168 Z M48.6834285,13.084 C48.6834285,11.908 47.8194285,10.984 46.6794285,10.984 C45.5394285,10.984 44.6754285,11.908 44.6754285,13.084 C44.6754285,14.26 45.5394285,15.184 46.6794285,15.184 C47.8194285,15.184 48.6834285,14.26 48.6834285,13.084 Z" id="Cell-Value" fill="#757575"></path>
                        </g>
                        <g transform="translate(103.000000, 46.000000)">
                            <rect id="Background" stroke="#C9C9C9" fill-rule="nonzero" x="0.5" y="0.5" width="89" height="23"></rect>
                            <path d="M57.696,16 L57.012,16 L54.168,7.6 L55.272,7.6 L57.384,14.008 L59.592,7.6 L60.252,7.6 L62.46,14.008 L64.584,7.6 L65.664,7.6 L62.808,16 L62.124,16 L59.904,9.604 L57.696,16 Z M67.8325714,8.44 C67.8325714,8.824 67.5205714,9.136 67.1365714,9.136 C66.7525714,9.136 66.4405714,8.824 66.4405714,8.44 C66.4405714,8.056 66.7525714,7.744 67.1365714,7.744 C67.5205714,7.744 67.8325714,8.056 67.8325714,8.44 Z M66.6205714,10.168 L67.6525714,10.168 L67.6525714,16 L66.6205714,16 L66.6205714,10.168 Z M70.4331428,12.952 L70.4331428,16 L69.4011428,16 L69.4011428,10.168 L70.4331428,10.168 L70.4331428,11.008 C70.7931428,10.432 71.4171428,10.036 72.2931428,10.036 C73.7811428,10.036 74.6451428,11.032 74.6451428,12.58 L74.6451428,16 L73.6131428,16 L73.6131428,12.7 C73.6131428,11.656 73.0731428,10.996 72.0771428,10.996 C71.0811428,10.996 70.4331428,11.764 70.4331428,12.952 Z M78.8657143,16.132 C77.1377143,16.132 75.8897143,14.86 75.8897143,13.084 C75.8897143,11.344 77.1377143,10.036 78.7937143,10.036 C80.4377143,10.036 81.6257143,11.38 81.6257143,13.036 C81.6257143,13.264 81.6137143,13.408 81.6137143,13.408 L76.9217143,13.408 C76.9937143,14.44 77.8697143,15.208 78.8777143,15.208 C79.7537143,15.208 80.1977143,14.788 80.5697143,14.212 L81.4097143,14.644 C80.9297143,15.52 80.0417143,16.132 78.8657143,16.132 Z M76.9457143,12.556 L80.5817143,12.556 C80.4737143,11.632 79.7297143,10.936 78.7697143,10.936 C77.8217143,10.936 77.0417143,11.764 76.9457143,12.556 Z" id="Cell-Value" fill="#757575"></path>
                        </g>
                        <g transform="translate(192.000000, 46.000000)">
                            <rect id="Background" stroke="#C9C9C9" fill-rule="nonzero" x="0.5" y="0.5" width="89" height="23"></rect>
                            <path d="M68,16 L66.944,16 L66.944,8.764 L65.456,8.764 L65.456,7.756 L68,7.756 L68,16 Z M72.2685714,11.2 C73.0245714,11.2 73.7205714,10.588 73.7205714,9.904 C73.7205714,9.16 73.0845714,8.608 72.2565714,8.608 C71.3685714,8.608 70.7445714,9.268 70.7205714,10.168 L69.6885714,10.168 C69.7125714,8.632 70.7925714,7.624 72.2805714,7.624 C73.7325714,7.624 74.7645714,8.56 74.7645714,9.808 C74.7645714,10.588 74.3445714,11.26 73.6125714,11.608 C74.5245714,11.908 75.1125714,12.7 75.1125714,13.636 C75.1125714,15.1 73.9125714,16.132 72.3045714,16.132 C70.6245714,16.132 69.5085714,15.052 69.4845714,13.432 L70.5285714,13.432 C70.6005714,14.416 71.2845714,15.136 72.3045714,15.136 C73.2885714,15.136 74.0445714,14.524 74.0445714,13.624 C74.0445714,12.748 73.2645714,12.136 72.2685714,12.136 L71.8125714,12.136 L71.8125714,11.2 L72.2685714,11.2 Z M78.6731428,7.624 C80.1971428,7.624 81.3371428,8.668 81.3371428,10.132 C81.3371428,11.092 80.8811428,11.86 79.8371428,12.844 L77.5091428,15.016 L81.4451428,15.016 L81.4451428,16 L75.9491428,16 L75.9491428,15.136 L79.2371428,12.052 C79.9691428,11.356 80.2691428,10.792 80.2691428,10.18 C80.2691428,9.292 79.5611428,8.62 78.6731428,8.62 C77.6891428,8.62 77.0531428,9.46 77.0411428,10.456 L76.0091428,10.456 C76.0091428,8.8 77.0771428,7.624 78.6731428,7.624 Z" id="Cell-Value" fill="#757575"></path>
                        </g>
                        <g transform="translate(0.000000, 46.000000)">
                            <rect id="Background" stroke="#C9C9C9" fill="#F1F1F3" fill-rule="nonzero" x="0.5" y="0.5" width="21" height="23"></rect>
                            <path d="M9.548,12.424 L8.264,12.16 L8.864,7.756 L13.436,7.756 L13.436,9.016 L9.956,9.016 L9.68,11.008 C10.04,10.648 10.688,10.42 11.324,10.42 C12.896,10.42 14.024,11.656 14.024,13.156 C14.024,14.86 12.716,16.144 11.036,16.144 C9.296,16.144 8.084,15.052 8.06,13.504 L9.452,13.504 C9.536,14.26 10.112,14.836 11.024,14.836 C11.912,14.836 12.596,14.116 12.596,13.228 C12.596,12.316 11.9,11.632 11,11.632 C10.364,11.632 9.884,11.956 9.548,12.424 Z" id="1" fill="#808080"></path>
                        </g>
                    </g>
                </g>
            </g>
            <path d="M6.48,11.136 L6.48,16 L4.064,16 L4.064,11.136 L0.064,4.8 L2.816,4.8 L5.296,8.896 L7.776,4.8 L10.48,4.8 L6.48,11.136 Z M15.312,13.328 L17.28,14.112 C16.624,15.408 15.344,16.208 13.616,16.208 C11.152,16.208 9.424,14.496 9.424,12.048 C9.424,9.664 11.184,7.888 13.52,7.888 C15.904,7.888 17.552,9.632 17.552,12.112 C17.552,12.384 17.536,12.592 17.52,12.688 L11.712,12.688 C11.792,13.616 12.64,14.288 13.616,14.288 C14.48,14.288 14.944,13.92 15.312,13.328 Z M11.728,11.168 L15.264,11.168 C15.168,10.32 14.448,9.712 13.504,9.712 C12.576,9.712 11.824,10.416 11.728,11.168 Z M21.712,9.76 C21.28,9.76 20.976,9.984 20.976,10.304 C20.976,10.592 21.2,10.8 21.632,10.912 L22.624,11.168 C24.112,11.552 24.912,12.384 24.912,13.504 C24.912,15.088 23.568,16.208 21.728,16.208 C20.16,16.208 18.912,15.488 18.384,14.272 L20.272,13.232 C20.56,13.888 21.152,14.304 21.744,14.304 C22.24,14.304 22.576,14.08 22.576,13.696 C22.576,13.424 22.336,13.216 21.856,13.104 L20.928,12.88 C19.44,12.528 18.672,11.696 18.672,10.448 C18.672,8.944 19.92,7.888 21.728,7.888 C23.088,7.888 24.368,8.624 24.864,9.728 L22.96,10.736 C22.72,10.144 22.192,9.76 21.712,9.76 Z" id="Yes" fill="#2A2A2A"></path>
            <g id="Icon-/-Yes" transform="translate(170.000000, 5.000000)">
                <g id="Group-7">
                    <g id="Group-6-Copy" fill="#029906" fill-rule="nonzero">
                        <circle id="Oval" cx="7.5" cy="7.5" r="7.5"></circle>
                    </g>
                    <polygon id="Path" fill="#FFFFFF" fill-rule="nonzero" points="11.1240452 4 12.3657709 5.2331331 6.38112726 11.2594785 3 7.65166555 4.27690154 6.45499414 6.41761246 8.73922778"></polygon>
                </g>
            </g>
            <g id="Icon-/-No" transform="translate(259.000000, 5.000000)">
                <g id="Group-6">
                    <circle id="Oval" fill="#FB3703" fill-rule="nonzero" cx="7.5" cy="7.5" r="7.5"></circle>
                    <polygon id="+" fill="#FFFFFF" transform="translate(7.656854, 7.656854) rotate(-315.000000) translate(-7.656854, -7.656854) " points="3.65685425 8.46708879 3.65685425 6.81250457 6.82207164 6.81250457 6.82207164 3.65685425 8.49163686 3.65685425 8.49163686 6.81250457 11.6568542 6.81250457 11.6568542 8.46708879 8.49163686 8.46708879 8.49163686 11.6568542 6.82207164 11.6568542 6.82207164 8.46708879"></polygon>
                </g>
            </g>
        </g>
    </g>
</svg>